<mxfile host="app.diagrams.net" modified="2021-12-03T11:59:12.387Z" agent="5.0 (X11; Linux x86_64) AppleWebKit/537.36 (KHTML, like Gecko) Chrome/95.0.4638.69 Safari/537.36" etag="zpAhRR3C7PQC9MkCEWDp" version="15.5.2" type="github">
  <diagram id="e0eUpQ3v2jLpB5CTd5h8" name="Page-1">
    <mxGraphModel dx="910" dy="516" grid="1" gridSize="10" guides="1" tooltips="1" connect="1" arrows="1" fold="1" page="1" pageScale="1" pageWidth="850" pageHeight="1100" math="0" shadow="0">
      <root>
        <mxCell id="0" />
        <mxCell id="1" parent="0" />
        <mxCell id="l9aSFqAme1yQ4oTrggSr-1" value="Linear &lt;br&gt;1024" style="whiteSpace=wrap;html=1;aspect=fixed;" vertex="1" parent="1">
          <mxGeometry x="182" y="280" width="80" height="80" as="geometry" />
        </mxCell>
        <mxCell id="l9aSFqAme1yQ4oTrggSr-2" value="Batch norm" style="rounded=0;whiteSpace=wrap;html=1;" vertex="1" parent="1">
          <mxGeometry x="296" y="280" width="80" height="30" as="geometry" />
        </mxCell>
        <mxCell id="l9aSFqAme1yQ4oTrggSr-3" value="ReLu&lt;span style=&quot;color: rgba(0 , 0 , 0 , 0) ; font-family: monospace ; font-size: 0px&quot;&gt;%3CmxGraphModel%3E%3Croot%3E%3CmxCell%20id%3D%220%22%2F%3E%3CmxCell%20id%3D%221%22%20parent%3D%220%22%2F%3E%3CmxCell%20id%3D%222%22%20value%3D%22%22%20style%3D%22shape%3Dimage%3BverticalLabelPosition%3Dbottom%3BlabelBackgroundColor%3D%23ffffff%3BverticalAlign%3Dtop%3Baspect%3Dfixed%3BimageAspect%3D0%3Bimage%3Ddata%3Aimage%2Fpng%2CiVBORw0KGgoAAAANSUhEUgAAAggAAAIICAYAAAAL%2FBZjAAAgAElEQVR4nOzdeZRk6Vke%2BKpuNVoRIBiMBZJBZswMi4%2BxZYMxB3zAYB97wDOe8XiGOWPLxgbbzGAYc8BYWLS6uyrXyD32LWPJLXLf97hr3NgjMiIzct%2F3zMqs6kUSvVU%2B88e9ERlZ3UiilwpV6%2Fmdc0%2Bp1equ%2B0XonHzq%2Fd7v%2FW7dIiIiIiIiIiIiIiIiIiIiIiIiIiIiIiIiIiIiIiIiIiIiIiIiIiIiIiIiIiIiIiIiIiIiIiIiIiIiIiIiIiIiIiIiIiIiIiIiIiIiIiIiIiIiIiIiIiIiIiIiIiIiIiIiIiIiIiIiIiIiIiIiIiIiIiIiIiIiIiIiIiIiIiIiIiIiIiIiIiIiIiIiIiIiIiIiIiIiIiIiIiIiIiIiIiIiIiIiIiIiIiIiIiIiIiIiIiIiIiIiIiIiIiIiIiIiIiIiIiIiIiIiIiIiIiIiIiIiIiIiIiIiIiIiIiIiIiIiIiIiIiIiIiIiIiIiIiIiIiIiIiIiIiIiIiIiIiIiIiIiIiIiIiIiIiIiIiIiIiIiIiIiIiIiIiIiIiIiIiIiIiIiIiIiIiIiIiIiIiIiIiIiIiIiIiIiIiIiIiIiIiIiIiIiIiIiIiIiIiIiIiIiIiIiIiIiIiIiIiIiIiIiIiIiIiIiIiIiIiIiIiIiIiJ6TwC4Xel3ICIiogpCKPT0g8zyXznXCv%2FoPFX43cvs2rP3Fzb%2B6KX81m88KOz8DRwcfJSBgYiI6NtEKBR6%2BlhJ%2F60jKek%2BVjK7J5HM10613MPz%2BOLD8%2BQSLjMrr9%2FPrV0%2BWNxUXl7e%2Fk3svfg9DApEREQfYDuD2e%2FenpJe2J2OnO3Px64OhQSO5DRO1CxOozmcxRdxL1nAvfQyLrOreJBbf%2F3Fwrb40vLOzzIkEBERfQAVQlOfWumfDq4Ph1%2FfmpCxOxPBQTiOIymFEzWDU20BZ7G8HhBSy7hIr%2BAyu4b7uXW8tLR59NLy7j8B8FSl10FERETvkdz09MdT3p7gYvfY1erADDbHROxMqdibi%2BJQSOBYTusBIZrHeWIJ95IFXKRXcJFZxeXCGh7kN%2FBSYfvklc3dX6r0WoiIiOg9AOB2wt3znzVr8M2FwBBW%2BqawMTyP7QkZe7MaDoREWRUhh%2FP4Is4TS7goVRH0kHA%2Ft4GXCjtLLx0cfKrSayIiIqJ3qeAf%2FWzEEjhX23zIePtQ6BnH2uAstsYk7Eyr2J%2BPlaoIJ5GsXkWIL%2BoB4ZGQ8CC%2FcfXK6u4X2Y9ARET0BANwO%2B7s%2Bq9yi%2FdKbvYg4ejGYscIVvumsTESvq4iGL0Ix0oGJxG9F%2BHmVoOx3ZBdxYuLm5svrx1%2FX6XXRkRERO9Qzj%2F9cc0aSMtNHoiNLkTa%2FMj6BrDcM4G1wdnrXoRZvRfhSE7h2NhqKIaE87KmxYvMKu7n1t54cWX7Vyu9NiIiInqHkp7%2Bz0XM%2FlekJjfEBifkRjcSjm7kO0ZKvQhb4xJ2pyP6VoOY1KsIxWOP5SEhWcBFahmXmVXcX9z6Y24zEBERPaGi1q6%2Fr7b635Aa3ZAaXBBNTkSMXoSlrjGs9s9gY1jfatidiWB%2FLobibIRjNYtTLYfT6HXjYvEI5P3c2hCPPBIRET2hko6efxBp813JjW6IJieEegekBhditg4s%2BAZQ6JnA6sAMNkeFUkg4mI89st2wUKomnMX0oHCZWZ0D8HSl10dERETvQNrZ%2BUtqa%2FvDYkAQ6x0Q6h2Qm%2FSGxVxgGMuhSawNzGJzVMDOpKJvNxQrCaXGxSxOIws4M4LCZWZ5PBQKMSAQERE9iRKOzp%2FQ2nxflRvdkIoBoc4O0eSE2tKOlKsH%2BeDNkLA9IRshIaqfbhCTejVByeBYzeBEW8BFotDEHgQiIqInVNw38L2RNt%2F%2BowGhGBIire1IuUJY7BjRQ8JgWUiYUrE%2FG8XBfBwHQgKHYlKvKKgZXMRz%2F6rSayMiIqJ3CKHQ0zFrsFNt9kA2uSDVOyDVOyDWOSDW64%2FW6kPaFUK%2BYwTLoQmsDcxgYySMrXGptOWwZwQFfaBS5sGLyfznKr02IiIiehfizs5f0lp9byoNLsgm53VAqLNDrLNDMjkRafUh5exGPjCE5Z4JrPZPY31oDlujIrYnJOxMXfcmHImpzlQq9Uyl10VERETvgtYQ%2BmjcEhiMNHmgmJyQ6x2Q6x2Q6uyQ6hyQ652QTU6ozV4k7V1Y8A1gqXMUq71TWB%2BY1WclGNsOe9Paxb6Q%2FMlKr4mIiIjeAzlL4MdiLb4drdENpd5pPA7IdXpYkOscUExOqI1uxM0BZNy9yAeGUOga04PC4Cy2RoXXd6bkP%2BTxRiIiog8ICMKHko5OX7y5HVqDG5F6J9RHH5P%2BREwuaE1epKwdelDwD6HQOfrmWu90y8bExocrvRYiIiJ6lwA8lfT0%2FINom39XbfEi0uhGvMmLeKMHUZMLWr0TWr0TkeKvJhe0Bhc0kwtagxvxFh%2BS1o6vLXr7n90RhI9Uej1ERET0LqXs9mc0W6BObfa8Kdc7EGnyQDY5odQ5EG9wI9noRaLBg3iDG3GTGzGTS38aPEg0eZFs8b2etXSIaWvnL3HmARER0QcAQqGnNXvQrTR5rsRaG6RaG9QmD5R6B5RaO5RqK7QaO5ImN1INHqQbvUg3tetPsw8ZSyd2x%2BXOjYkJbikQERF9UMTs3b%2BltHivxHoHwtUWiDU2KEb1QKmxQa22IVJlhVZtQ7TKhli1DbEaO2K1DsRNLix3jOAyvXLxSmHvxyu9FiIiInoPZFz9fyViDrwhmZwQam0IV1sQvmuGXGeHUmuHWmODWmVFpMqKaJUV0WI4qHEgXu%2FCgq0L%2BzMa7mdW8WJ%2BcxICPlTpNREREdG7lLB3BZRmD4R6RykgzN9pg1hlgVxtg1KthwPNCAixajviNQ4k6pzItAaw0TeNEzGJy%2FQKHiysvX5%2FYevnK70mIiIiehdS9tGPaZbAK1KDS79zocaGcJVeQQjfaYN4xwylqhgQbIhV2RCvtiNR40C60YsV%2FzD2RkXci%2BVxkVrGRWYFLy5uudikSERE9ASLu7s%2Br7a2vymanEZAsJa2GMJ32hB%2BoRXiC21Q7pqh3bWWAkKy1oklZy92hwWcyhnciy%2FhIlnARWoZl9m1Zezs8IgjERHRkypp7%2Fp9pdl7JZmcEI2AIFRbIVRZINw1Q7jTBuGFVgjPt0B8rgXKC21ItQaw2TeDo%2Fk4TiMLONNyOI%2FlcR5fxL3EEi5Syy%2Ffy6x%2ButJrIyIionco7ug0yU1u%2FabGOjvEGhvEGivEaivEKjOEu2aId9ogvtAK6U4bEq0%2BbA3N4yicwLGYwomSwamaxZm2gLOoHhTuJZdeu0iv%2F4%2BVXhsRERG9QylHt1luNK51rrNDqrVBqrEZAcEC8a4Z0l0z5LtmJJp9WAtNYn9KxeF8DEdCAidSGsdyGidqBqeRLM60HM7ii6%2B9lF3%2B7yu9NiIiInqHovbAv1WbPFdSvQNi7c3qgVRlgXTXAvmuBdEGD5aDI9gaCWN3QsbBjIbDuRiOwgkcCQkcS2mcyGmcqlnciy2%2B%2FEpu8%2FsrvTYiIiJ6h2I2z4%2Brzd43pTqHvr1QbYVUbbkOB1UWxExuLHr6sR6awvZQGDujIvYmZBxMaziYjerVhHACx2ISx1IKp1puBanUM5VeGxEREb1DhVDhO2Jt%2Fq%2FIdQ59e6HaAvGuxdhW0MNB3tWLje4J7A6FsTsiYGc4jN1REXsTCvanVBzMGEFhLobDcAJnaraNxxyJiIiecAlLwKKYXJBrbJCqLBDvtEG404ZYkxfLnWPYnVRwJCRxpmZxL5rHvVgeZ2oW%2B%2BMy9sYk7BeDwnQEh3PxV0%2BF3E9Wek1ERET0LhVcoU9pTZ6vKHV2vSmxxgq5zoG8bwDbIwL2ZzQci0mcqlmcR%2FP6UcZkAReJJRxOa9gdEbA7KmJ3XMLhTLSH1QMiIqIPiIS14wuRBtdDqcoCpdGNSIsXy93j2B4TsT%2Br6b0FahbnsUVcJAqloUj34ovY7Z%2FDVv8stoeF%2FYN57QcrvRYiIiJ6D0Wb2xu0eudDpdGNmDmA1dAktscl7M9G9YAQWcB5bBH3ygLCRWoZO4Pz2Owcv78xOPv3K70GIiIieo9BED4UafKalSY34tYgVnunsDMu4WAuhmMphTMjIFwkbwaEjeDo3qK56%2Bcq%2Ff5ERET0Pok1t%2F9rpdGNpK0Ta33T2JmQ9YAgp0sVhGJAuEwv4zK1%2FMZphE2JREREH2iaOfAHcqMLKUc31vpnSgHhRE7jTMvhXnzxRvXgfmbltZfX1r6v0u9NRERE75%2Fb0db2F5RGN9LOHqwPzGJ3QsbhfFwPCJGFtwSEi%2FTKq%2FdTW99V6RcnIiKi9wlu3bqttXjdcoMTaVcPNgbnjCOORv9BNF86wXB5XUF4BcB3VPrdiYiI6H0C4HbUHOjJuHuxMyHjSEjiVMnovQfFcJBaxv3sKi4zK7hILeMyvfIyUscfq%2FS7ExER0fvkpSntU1vD4dzedAT7c1EchuM4llI4UTM404yrnBNLuJcs4DKzgsvsGu5nVo8AfKTS705ERETvg9WumU%2BvDcyebY4K2J6QsTsTwUE4jiMxiWMlg1NtAWexPM7ji7iXLOAivYzLzAoeLKy%2F8eLS5r%2Br9PsTERHReyzV3v1Xc4GhF1f6prAxPI%2BtcQmlKoKYxLGiH3E8i%2Bb0gJBY0rcXMitGSFh748Wl7X9b6XUQERHRe%2BTYPvqxmK1zIdvej%2BWeCawPzmFzTMTOlIL9uaheRZBSOFGz11UEIyCUQkJ2FQ%2FyGy9dFHZ%2BptLrISIiovdAwhb840hr%2B5spVw%2BWusaw1j%2BDjeF5bE%2FI2JuJYH8uhkMhgWM5jZNIFmfRsm0G%2FZhjeUgQcXDw0UqviYiIiN6FvGXse2Jm%2F7ba6ELC2oF8YAgroUmsD85ha0zEzpSK%2FdmyKsLb9CLcu56HgPvZ1ddeXNz%2BlUqvi4iIiN6FqNn%2Fa5Em9xtaowex5nZk3b1Y6tSrCJvDYWyPy0Yvgl5FOJLTOFEzN7Ya7iWXroNCegX3c%2Bud2NnhqQYiIqInVdwWbNGaPFeayYWIyYWUtRN5%2FxBWeiawPjCLrVEBO8ZWw8F8HIdishQSTiILpe2G8%2FiSERYKuMysvvlifiP60tLW77%2BYX%2F8cgKfe7veGdvDRC63wd86ThX9znlz%2B4kVm%2BY8eZNf%2B1SvLmz%2BJAgcvERERVcSxkPq%2Bpa5ReaVnHDlPHxKNXsSb25F1hVDoGMFq7xQ2Buf0kDCpYG9Gw8F8rCwkZI3GxRzOYnmcxRZxFl8sDVK6v7B29SC%2F8dJLixsjLy1t%2Fh%2F3t%2FRxzC8qyvechOM1R0Li8FROv3EWyV6dags4j%2BVxkSxcXaRW3ry%2FsL700tLW72F19Tsr%2FTkRERF9W8DGxod356L%2F12E4vnAwH394KCRxKCSxO6kgbQ4i1RZAztuP5a4xrPZNY2NoHltjkhESInpIEBI4klI4VjJ6UIgslILCeWIJl%2BkVXGZWcZlZxf3sGu7n1q8e5DZOX8xvdh6LyfP96QgO52I4EZKlOx7Oo3nciy%2BVHaFcxYPFjY2vLu%2F%2BzUp%2FZkRERB9YCOHpg9no3z8IJyYP5uOvFn%2FIn5RVA%2FamVKRbA0hbO7HoG8Ry9zjW%2Bqf12QhjInYmFezORLA%2FH8OBkChVE46UdCkonMXyek%2FCjVMOq7jUqwr6k13FmZLFSTiJEymFUyVrTGpcxL1EAfdShVLIuJ9bf%2FXllb1fq%2FTnR0RE9IEC4PaZkvzc4XzMsz8fe%2BlQSFwdGcOPrisAWZxGFnAayWJnXEK80Yu0vRt5%2F5AREmZKA5S2J2XsGkOUitUEPSikShMXz2OLxkClsqCQWi5NX7yf1SsLF4klnIopnMqZsirCIi5SN8PFg9z66y%2Bv7v29Sn%2BWREREHwhrgvB9B%2FPxPz2Yj52VgoGcxnHpT%2FzFYKBvEZxGsjiR08g5exBt8iLjuA4Jxe2G4ijmnSkFe7Ma9ueiNyoKxWrEmaZPXjyLLeI8cd3EWHZNNC7TK0ZASONULZuxkLg%2BGVHcqniQWz8H8EylP1MiIqIn1sbGxof3hcS%2FOJiPrR%2BGkw%2BPxKTRM2CcQFCvg8FJJHv9GD%2Fcd8dlROtdiDV5kbJ3I%2B8bRMHoSVgfnMPmiIDtcb0vYWdKxd6Mhr1ZvaJwJCZR%2Bv2M4UrFrYfiiQc9KOhh4VzL4UQsuzUy9uggJiNMZFfxYmHrbqU%2FWyIioifSXlj5W4fhmLJf%2FGFd%2FEGt3AwG5Y8eDDI4ltM4klLYn4si2dyOSJ0DkUY3krZO5NoHsNQ5ipXQJNYGZrBuVBO2yoPCrIa9KbW0BXEoJFCsWpyomVKlojwsnEUWcCwkcSymcFo%2Bzrk4iMm4GOoivYLLhfX7lf58iYiIviUghKfPYot%2F6VzL%2FaPz2NLvXCSX%2F%2FAivfw7DzIbv%2Fi1tYMfRArP4NlnnzqY0n70IJywH8zFHpZOGZSCwSPhQCurHqgZvR9BTuNITOIgHMf%2BjIakOQi11g6lzgG1wY24JYispxf5wBAK3eNY6ZvG2sAsNoaLQUHE1qigH40cEbA9LpeqCwdz170Kx0ZTZPHyp1M5g6P5OI6EJI4lY6vBuFr6zLhe%2BjypPxeplTdfXNz6fKW%2FEyIioorZEYSP7Ifj%2F%2FBQTIweSsnLEyX95rGaxVk0d3UeX7y6l1h64zKzcvhgYd1zmVisOxYSFwfhOMrDwXFZ1aBY6i%2FfTigFAymFQyGBg3AcezMadicVZFw9UKptUGptUOocUEwuRFt9SDq6kW3vx2Jw2AgKU1jrn8HawCwWPL1Y9A9iuWsMa4%2F0LOxOqdif1fSBS2XveDQfx8GMpoeERwLEabGHIX7dx%2FBgYe1Llf5uiIiIHjsAt1dHpB%2FZGpc7dyaVr%2B3NatifLx91fD2cyJgZcHWZWcVFsqBXC95mO6HYjHhdMcjoxxOlFA6FJA7m49ifi2J3OoKdCRkbQ3OINLqhVFuh1Nig1Noh1zugmJxQmzyItvmRcnQj6%2B1DPjiMQnAYqWYftDoHtAY3EuYAsq4QloLDWOmZuD4FMSZipxgWZjQczsWwNy5jb1LR%2F7pYSSiuobglETWGMcUXcZFZ6av0d0RERPTYrYRG%2F%2B7KwEx%2BYyR8tTUula5dPhQSOHz02uWyC5MuM6tG059%2BXPHUqBIUjy%2FqFQN9O%2BFISuGwuJ0wF8PudATbkwq2xkSsD8wg7xuAdNcM8a4ZcrX1equh3gnV5ITa4IbW7EWiLYC0rfNB3OR8NVbrQLTWoYeEeic0kwvRJi%2BS1g4sePqwFBzR%2Bxf6Z7AxNI%2FtMQk74xI2B%2BewPSpib1K9ntZYXgVRM3rA0fSKwr1kYbjS3xEREdFjlbL3%2FQ8Z38BCITSBtcFZbI4J2J6UsVcszRvzC061snsQiscHiwOJUis4MxoPi8HgRNEbEI%2BlFI7EJA7DCezPxbA3o2FnUsHWuISNoTks90wg6%2B6FWm3D3BfrIDzXAvGFVkh3LZCrrJBqbIiYnEhaOpDzDWJraB7HcvpOxtb1%2BURTe2OqybsVa3A%2FjNY7odU7EKl3ImLSQ0W0pR0pWycWvP0odIxirWcSq93jWA9NYXNoHtujYuneh%2F25KA6MBscj41hm8WjmeWLRU%2BnviYiI6LGJBYOfjNk7h1Pu0FW%2BcxSrxgTD7Ql9MNFe8VRAqYqQe%2Bu1y0a3%2F0ViCadqWTiQUjgSjT6D%2BRj2ZjXsTKl6MBiex2rvFPK%2BQaTsXV8V%2F7QR07%2F3Zcz8wQuY%2B5N6zH%2B5CcKdNmhNHix2jGBzRMDBXFTvF1AyuEyv%2FGlxDbk6%2F8cXWjv%2BYbrF7080%2B45jjcWLoJxQ6x3G40Ss2Yu0pQOL3n6sdI5ivXcam0PzpcuhdqcjKG6tXPdV6GHhPLH4nyr5PRERET02AG5rto5%2FGWnzfy1m68BCYAiF0CTWh%2BawWbwsaVbDflkV4cQ4BXCjipBa1rcb0it6z0F5A%2BJ8HPuzmr6dMCFjcySMtf4ZLAaHseDtw9aocHUkJhbCX6p%2FOPWfX8D0f6nG3JcaoNTYkHX3Yn1gFjuTMvZnozgIx3Ekp3CiZnCZWv5vb7emjZbgJxOtvudiTZ6rWKMHkXoHIjV2qFVWSM%2B1QKu2IW0OYtE7oFcUjMuhNkfC2C6b2KgPYzKCgph8%2FSS68sOP%2BeshIiKqjIJr6lNRWzCstHgRafMh7e3DUtcYVor3IIxL2J1WsT9386Kk4r588ZKke2VB4Ty2iGPRaECcjWJvJqJvJ4wKWB%2BcRaFrDFlPH1Z7p3AkpfRjhZHsm8KXGq5m%2Fks1Zr5YC%2FGFNqTtXVjpmcDm8Ly%2BBTAbxWH4upJxL7H03J%2B3roTZ%2BwNareNl9flWyM%2B1QPpyM8RnmyB9uRnyC22I1NqRNAeR8%2FZjqWMEq6FJrBtHJ7dGRWxNyNdBYUbDYTixhmeffdvro4mIiD5wop6un1Hb%2FA%2BkJg%2BkJjcSji7kAkNYDk1gbWC2dFRwb%2BbtTjTo%2FQjlxwHvJQu4SBZwNB%2FH%2FnQEu0YD4sbQHFZ6JrHQPoDF4DD2ZiLGiGP9oqQTJYPws42Y%2FWId5v6bCUq1FRlnD5ZDk9gYDl8HhNJWRwb3koVnv97a4s0%2Bv3rXDPm5Fshfbob0XAuk51shvdAG%2Ba4Faq0dibYAFty9WAwMY7lnAqt9U8aMhTC2xkT9Dogp5epAjP8vj%2BkrISIiqrykveO3lNb2N6UmN4QGJyJtfmS8fch3jGC5dwrrQ8YRQWNaYalhsXxmQPHug7L7DI7CCWyPSdgcDut9BoEhLHj7sDkSxqGQwImS0QNCZEEfeaxkIDzfitk%2Fqcf8lxqgVNuQcfZgpWei1A%2BxN2s0EBoB4SK1%2FCdfb22ay%2FWpaL3rQrlrhvJCG%2BQX2qDcMUO%2Ba9abH6utkGvtiDZ7kXJ0lyY2LvdMGMOYZrA%2BPI%2FNMSnN6gEREX3bsP%2BW%2FZmkrdOktnivxEYXBJMTUpMbcXsnsv5BFHrGsdI%2FjXVjq6EUEozmvdJApLKjgHpFII%2BjcBzrAzModIwi6wqh0DWG3SkVh%2FMxHAkJHIt68%2BKxmNT7FcQkxBdaMPelBsz%2FaSOUGhsyrhBWQ5PYMLYY9mdvNkveSy19%2BeutD6HQ03FzYEurd0KpskC5a4F81wK5yggH1VZI1VbIdXZ9GFObH2lXDxZ8A8gHh7HUPY7V3qn7%2BTHlex7Xd0JERFRxAJ6KmQM2udkDscEFscEJ0eSE0tKOpLMHueAwCj0TWO2fwcZIGMXZCPrlSHol4bB0EVPZ7AMth8NwAnl3H7LePqwNzGB7TMLu5PWQooO5GPanI9ibjuh9CtMRiM81Y%2F5LDZh%2FthFKrR0ZV0ivIAzN39xiMKoXl%2Bmvv8WQ8oZ%2BKt7mfzXW0g7N5IJaY4NabYNaY7sewlRjg1xrh1zn0AcyNboRbfUhZg0i5Qq9sjMofPdj%2BjqIiIi%2BNQB4Km7rbFGaPJAaXBBMDggmJ8QGFyJtfqTcvch3jOghYWAGm8WQUDrZcN24eCSljLkB%2BtbB3pSKfPsAVnqnsD4wi62RMHbGJexNqdibUrEzIuinBsZE7IxL2B6XID7XgvCzTQh%2FuckICD03mhRLMwqKFYR44U%2B%2F3vpiluDzsTY%2FtGYvtCYP4s1eaCYn1DoH1DqHMYDJAaXeCaXBBbXRjUizF1pL%2B8OYo2sYExMfflzfBRER0bcMALdj5o4%2FUJo9V6LJCcHkvBESNHMAaU8vFjtGsByaxOpAWSVhUsHuTAT7c7HroGD0JhxJKWyPicgVr2o2jhFuDeshYWNgFsudo1jpmTTuTZjDxuAcpDttCD%2FXjPkvN0Gtc1xXEN62ByGLi%2BTyH%2F55awuFQk8nbMF0tNUHrdmDSKMbkQZ9wmKsuR3RJi%2B0Rg8ijR5oTR5oLe2IWzteTzl6BnL%2BkR95nN8DERHRtxSh0fvdMUugTzUqCGJ5QDA5ITW6EbUEkWnv15sWi9ctD89jc0wsXYS0N6Ppf7oPx%2FU5BUICOf8gUs5u5P1DKHSOXR8j7J9F3tuPtKMbWW8%2FloLDWO4ex3L3BMQ7bRCea8H8c81QigEhNIGN4TC2jR6EA2OL4VjJ4CK1bMHOzkcA3H50bQlH50%2FELcGvRlvbEWnyINLkMQKBW3%2BMUBAz%2BxGzBJD2hLA9rbxQie%2BBiIjoW0bOP%2F1xzRxoVRrdr90ICPWO68fkuA4JxsmGQs8EVvumS4OUitWE4vXKe7NR7M9o%2Bg%2FlZi8yzh7kfYModI5itWcCS4FhaCY3FJNTv6HR1omMpw95%2FyCku20IP9%2BC8PMtUOqdb1tBOAwnjL6HDM4TS%2Fcukyu2e5nVX38lt%2Fn9AJ7e2Nj48KGy8Ndyvn5z3BKA1tJe2mIoPuUBQWvT%2Bw0KoYk3DuaTf6fS3wsREVHFCF7vR6LW4AtKs%2Bd1od4Bsd4BucEJyeSEWB4Q6h2lSoJmCSDl7kXO6O5f6ZvCqjFYqBgUtidk7EypWOmdxHyVBWKtHdFWH9LOHv0IYWAYSUsHxGoLxBobxFobZJMTkSYv4uYApCpzWUAo32K4noNwEI7fGNZ0omauzrTc%2FfNkYfJeLPd7B3PR6r0ZbT0XGHoj2uZHpNlbqiBEboQDL7RWH6JmP%2BKOLmyOirkdYecjlf5uiIiIKiJltz8TtXb8vtzseVUwORCus2G%2B1gaxzl4KCKIRDMpDgtjgRKTNh6SzG1nfABY7R1EozgsYNILCSBibI2FEWtoh1NowX22EhJZ2pOxdSNm7oNTaIVZZINXYIFRbIdTaIBpXOsvVFsw%2FUkFYNioIekDQSj0Ix0oGx2qmdAPjoZC42p1WX98eF9%2FcHBGQcvYg2uaD1nIdEFQjHESaPIgUA4IlgHR7P%2FZmIn9U6e%2BGiIioIvAsnoo5Ov9XtdX7omhyIlxnR7jWVnqKIaEUFIyQIJqMoNDghNLsRczagbSnF7nAEJaKQUE%2FrfBnGW%2Fva1K9A0KtDeEaK8JGSFAbXFBq7RDutOkVhFpb6RFqbRDrHZCqLX4kMswAACAASURBVDe2GLJlAaHUpFg2avlISunbG%2BMy1gZmsNo%2Fjc3hMFZCk4hbO6C16gFBK68iNHuLJxWgtfkRs3ZguXfyxVMp9VOV%2Fn6IiIgeOwC3Y7aOf6y2tl%2BKDS6E6%2B03AsJ8jVX%2FE3%2BdHVK9Q3%2BMZkXRdF1VEOsdkBpdUPWuf6RdIWTb%2B5ELDn%2Bt0DlaFbUG%2BuQW75tCnR1CrQ1CjRVCtRXhKgvm77Rh%2FoVWCFVmfeZAg0sPJMYWh1xjRfj5FggvtEIxOZFxPxoQtOstBjWDQyGOtf5p5ANDyAeHsdI7hdW%2BaWQ9vYiZA6WAEGn2XG81NHsRaWnX%2F57Zj4SzGzvT6sr91NZnK%2F0dERERPXYxe%2BfPq2bfidjgglDv0MOBsb0wXwwJ1dchQTYqCZIREKSyv5YanJAaXFAa3Yi0tCNm7ThN2Lt%2BNzU6%2BjHNFvxlrdUfkpvcX5VMTojFoFBtQbjKjPBdM8JVZkh1dqhNHqjN3iu5wQW5wQWpWg8I4WJAeKRJsXyS4rGSwd6shoStAzFLEAs%2B%2FY6HhLUDcWsQ0TY%2FtJb2smDgMX4%2FD7RWvTkxaglgwT%2BIk0j2a5fZ1f8EAR%2Bq9PdERET02CTdoR%2FTLMEtqdENweQoVQ9KwaBYQSh7BKOBUGlwQTF%2BgJeeRheUJs%2BV1uz9StTsG0jYOn4BITx969atW6lU6pmYs%2FOva5bg3Uhre15p8n5NMjmvxDo7SlWFWhukOvuV2uh%2BoLX4JiIt3sFIs%2FdIqrFCuNOG8AutUE0uZNy9WA69tYJwKCVxomawPSFDbdJDStLeCbXRDbnOgZglgGibr7SdoFcQPKWthYgREGK2DqwOzuI8lsdleln56ur%2Bpyv9XRERET0Wmjnwo5oluCQ1ufVBSPXXAaG8gjBfY73uRzACglBjg1zvgNbs%2FbNoi2870uLdjbb6NqNt%2FpmoJXAnau%2F6mUIo9IlHf0%2Fcwu2UPfCXY7bAr6jNviqtzTeqNnuzarN3NdLiXYm0eGWt1dsea%2FX9xwVX30%2FHmpx%2FKWr2f0GqtkJ4odWoIOgBYcW4i%2BFGQBCTOFGz2BoToTS59epDnR1ClRmqcadCtNWHSIseEFSjghBp8ZaONmpmP5KuHuzNajiL5XEvuXT%2FIlP45Up8R0RERI9Vyt7%2Fl6OWYExsfLtwYH9Lk2L5IxgNhEq98zWtzft78Tbf92Y8of9uyx76rh2v8JFv5nZDPIunCubQJ7Lerh%2FWzF0%2FF7d2%2FlLC1vELaUvnX094Qz9QCIW%2Bo%2Fi%2F1cyBH5VqbBDufqMKQgKHUhLHSgbb4xLkRjfEWjvEaivCd9r02xlbfaXtBbWsMTHSrJ9cKG4v5DqGcSylihdMvXGZKvxnALy1kYjo2x2Ojz92mVj8zIPsyg%2Ff39r6LgjCB2YPWnOFPhWzd85KTZ4rweREuGy2QTEczNfaEK57m3BQZzfCgeNhrKW9MWVPPfNevBNu3XrLxMOinLP%2Fh6Ram77FcKfNqCAYTYpDb9OkqKSxNS5CbnBBrLXr%2FQ132iDcNeunFpq9bw0ILV5je8GPmK0D60NzOCndRpnDvfiiDan3Zq1ERPSEeSBkv%2FtgLvalg3D84iAcf3ho3B9g%2FJB49V6yID7IrPxipd%2Fz3dBCoY%2FGHZ0%2Bqcn9pthwczpiqf%2Bgzoaw0RdQDAyC8RRPMsTa%2FPbyP%2BW%2Fnwr%2B0GflWtvD64DgLG0xrA%2FNY3tcunEXw7GSxtaYZAQEG4QqC8J32jD%2FfAtUk%2BtG1aAYEtTm6%2BFIKXcIe9OqfmW1cTvkqbZg57AkIqJvM4VC4Ts2R8N%2FuDUuvbY9KWN3OlK6trj4A%2BdYzeA0sqDvSaeWty8XFz9T6ff%2Bi9IaQh%2BN2jua5Rbvm2KD6%2FoCpnoHwkb1oPwUw9uFA7nBdaU2e2YPQqGPPq73zri7Pi3W2t4U7l4HhLRRQVgfmtMDwox2Y5Li9oR0JZucbwkI4ef1HoZIk6cUDrSWdr0HwdheKHSN4WCuNGQJR3L64VkkW%2FNBqiIREdE3sDEx8eFCaEJdMS4a2hqXsDOlX1l8MB%2FHoZDQ%2FySp6AHhVNNDwnli8dXL1MqvVvr9v1kpu%2F2ZuL3jv6ot7a%2BJDS6IDU6IjS7ITZ7SI5bduRB%2BpHpgHG%2B80lraZ7Pewe9%2BnO%2BumQM%2FqtTaIdw1l20x9BoB4e22GDLYn4%2FG1CbPlVg8Rmn0L8w%2F1wzhThvkOn1Ak1oMCi3tiLb5kHGFsD0mYr94ydR8HPtC4vUTOfUfvpneCiIi%2BgAIhUJPJzw9I0vdY1jpmypdMlS6rrh4VbHxQ8coNeMsmtOb1%2BJLf3aeWP6FSq%2FjGxEE4UMxe%2FdvKa3tX5Ga3JCbvVBbfYiY%2FYhagohZO6CZA1BbfVCavSjOQxDqHXo4MIYjaS3eVMLT9dgrJ0KV60flWhuEKjPmy3sQQpN6BeGRUwzHSgbHcrpRbfZeinV2CNUWCFVmhO%2FopyDmn28pBQWx2gqpxgal3oG0owvrg7PYKV5ZPR0p%2Fv%2Fg9FjNfP5xr5uIiCoAt27dTrl6%2Fihm79RvIgxNYm1wFpujgn5V8bRa%2BhPkUbEXwdhmOI0s4EzL4VTL4Sy2ePKVws4PVHo9f57QPw89rdk6%2F0%2B1rf1FudkDtdWHqDWImK0DCUc3ks4eJJzdSDi6ELd1ImoJQmm5DgmiMTUx0uzNJi2BH6vEGpKNns9JtbYrocqC8F0zlIa3OcVQtsVwomZwGlv846jZ3y%2BZHBBrrCj%2Bs%2BE7rZh%2FQR%2B4NG8cmwzfaUPCHMRq3xQ2BuewORzG1qiI7XEJu1Pq1d5MdOQyFvtkJdZORESPWSE09amIOfBSzNaBBf8gCj3jWOmfxvrQPLbGROxMKtib0bA%2FF8NhOIFjKYUTOY1TNas%2FRlA4UbM41%2FLuSq%2Fn7Tz77LNPxR0d%2FzBi9p%2BrxuVDcUcXks5upNwhpD29SHv7kPboT8odQtzeCa3ND6XJUwwHV2qTZyfm7PhbX%2B%2BkwftpwRr6QbnOcSUY0xaVBlepB6F0imHmZgXhMr38e3F75%2F%2BsNnteEuvsN0PCXbO%2B5XCnDcLdNmgt7Vj0D2G5exyrfdNY7devrN4YCWNzTLy3MxX5p5VYNxERVUDM0fG83OxFpM2HjLcPi52jWO41qggjRhVhSsV%2BsVlRSJZCwlkxJKhZ%2FSickrk8jeS%2Bv9JrKodbt24nXaG%2FE7EEjyNtfsTsnUg4u5Fy9yLj7UfWN4AF%2FyCy%2FkH9V98A0p5eJJ3diFmDUJs9kExOKE3u45S9%2B1crFQ5u3bp1K2UPfVauc%2Bg%2F4KvMUBrcpWOO60YFYfeRgHCRXP4dLRT6aMwcbFYaXG%2BUQkK11dhy0B%2Bp1oaYOYCMO4ScfwhLHaModI1huXcSK31Tr20OzzedTuc%2BXqm1ExHRY6bZAptSkwdSoxtJVw9ygSEUesax2j%2BNjaF5bI2K%2BjXC0xEczEVxNB%2FH0Xwcx2ISp0oG59E8ziILOJFSOAonH57I6S9Uek3lUvbgT0WtwYJmCSBu70TSFULa24esbwC5wBBywWHkjScXGNJDQns%2FUu4QouYAlEY31GbvZdwS%2FI1KN%2Bel7KHPKnWOh%2BEqM8JVlusthkcqCPvzMRyKSRzJaVykCv%2FvrVu3biU8XZ%2BJtLb3KY3uV8U6O6RaG8Qa46KoGisk4zppraUdMUsAaVcPMt4%2B5AJDrxe6xgJboVle1ERE9O2i4Ap9SmnzfUVqckNscCFq7UCmvR%2BLHSNYDk1ibWBW34ce00PCzriE7TGpVFEonmw4i%2BZwGlnAYTiOg9nYt8w2Q8Ic%2BoGYrTMZtQaRcHQh7elFpr0fC%2F5B5IzbDfMdI1jsHMVi5yjyHSPIBYaQbR9AytUDrc2PSEv715LWzt%2FGs5WfHphp6%2FgrSr0eEIRqC5QGN9Ll1z2PS9idieDACAjHSgb3ksu%2Fb%2Fzjt3PO%2Fh%2BKmn2taov3vtLg0m%2BjrLNDqtWHPkl1dkgmB6QGF9RmL6KW4Isxe1dzLtj%2FQxVdOBERPV5Z7%2BAPq22%2B14t3EMhNHiSd3XqJuWsMK71TWDdCwubgHFZDk1gbmMHmSPi6gXE%2BhiNj7v9ZNI9TOaMiFHq60msruEKf0qxBOWoNIuHsNqoGg1jwD%2BnhoCwYlJ5iQPD2I%2BHoQswc%2BLOoJfBfv1XO%2FSfMns8o9c6r6wqC%2B63HHGe064ZSJY3zVOF3y%2F8dhVDoEwlbxz%2FTWn39kRbvqdrofkNpdL8p69soUJs9b6gt7RdRs78%2F6ej69Zzfz20FIqJvN5lg6MfVNv8bYqMbQoM%2BLEgz%2B5H29CIfGEahaxyrfVNY6ZlE0tGFnH8Qhe5xrPRNY63sKOTebBSHRuf8aTT38F6iIL6YX%2F9cpdZ1PDr6saijazRm67hKOruRKd9SMMJB8SkPCPngCHL%2BIWQ8vUjaOl9P2Dqef1xTEr8ZC9bQDyomp3EttFFB%2BAaDki7TK%2F%2Fu0X8PgNsbwYlPpjxdP5OwdnwhaglUR80Bc9TSUR21%2Bn836%2B3%2B26vu4e8EULF%2BCyIiqqCUPfRZtc33mr7F4IRgckJqdCNm7UDG04fF4DAKXWOIt%2Fkhm5xQW9r18BAcRiE0gdWBGWyMhLE1LmF3OoL9OWPbQcngLJb%2F6kW68MLjnttfCIW%2BI%2BHo8kZtHVdJVw%2FSHj0cLBjhIFfaVrgOCPmOkevqQXs%2FMq6eh2lXty1lt3%2Fscb77N5Jx6VsMYrVVP8XQ6L7Rg7A1LmFvJnLjLoaL9MoXvs6%2F8jaA2ym7%2FZmU3f5MKBR62ggFDAZERN%2FOcv7pj6sW%2F6XU5ClVEML1DshNbsTtnch6%2B5FydOl71Q0u%2FWl0I2brwIJvUN%2BGKKsmbBtHIkvXDUeyOE8snV5mVv7u41gPQqGnk87u2qit42F5OCgGg2I4KFUOiv%2B5Y0RvUvQPIuPpu0o5ugdz%2FulvudJ6yh76rFzvMCoIZqiNbqTLtxiMCsJ%2BqQchjfuZ1f9Q6fcmIqInkGoNROVm%2FRRD%2BY2GcqMbUXMAQo1NnwNghAOp0QWxwQWlxaufeggOo9Azoc9OGJ7H1riInSn1uppgNDFepJZnUCh84v1aB4DbSVfPH8Ztna8njQ78YkPiQnnl4JGqQTEk5ANDWGgfQNoTkoVQ6H17z3cj0tL%2BV%2BX6si2GYkAITWJjaM6oINw85ng%2FxYBARETvgObp%2Fp%2BU1varYkAo3j8g1Nkh1NowX2WBZGw9SI16SBCNX6UmNyJmv37yoWx%2BwkZpCmPkRhPjeSz%2F5nly8Tff66Y%2F3Lp1O%2B7s%2Bs24veureuWgF9m3Oa1wo%2BegrA8hHxzGgm8QGW9fPjv4eO9X%2BItYdQ9%2FWjU5H4o3ehB6sfLnnWKQ07iXKvz7Sr83ERE9gRAKPa3ZOjYl45IiPSTYEa61IVwWEPSLjPRQIDa69JDQ5C4FhYSjCwv%2BQSx16zMU1ofnsVmcxFh2gdCptoB7yeXVy8zGj78XcwVw69btpLP7n8btXfeL4aD8KONbthUeDQiBIeT8g8gFBteTnv6KNVZ%2BM%2FQtBmdpuFExIOg9CHPYGhdv3J1xLKdxkV3%2FQqXfm4iInlBxd9fn1Tb%2FG6VmxeIthrU2hKutCNdYoba0Q2n2QmryGCHhOizo1QU31DYfUp5e406HCawOzpY1Mao3mxijuTcvU4Xml%2BOH3%2Ftu3j1j6%2FmFhKPrLOm8GQ4W%2FIPXQ5C%2BQTjI%2B4f2Up7%2Bv%2FlefZ7vF9U9%2FGml3gGx2qLPQSg2KYYmb%2FQglG7fVNK4TC3%2F20q%2FNxERPcHiru7%2FR2lrf11qdENqcEEshoQaK%2BarLZAb9e0EtbUdcrMXcrOnFBZuBIUmN2K2TmR9A1jsGr2%2BHbLsXofry4SyOIsvnl2mC%2F976h2cdkh4u%2F923NG5m3R2I%2B3uRcbbhwVjdPKjWwvlJxbyZU2J%2BcDQ6XL3xM%2B%2BH5%2Fpe03VmxQfClV6QFAby%2Bcg6Mccd6f1LYaj0qCkwm9X%2Br2JiOgJF7N1%2FuuI2fey3OSB2OCEaHJAqNd7EcLVFkj1DkTMfkTMfiit7TdDQuP11oPY%2BNYmxtWBGWwMGxdATSk3ryWW01fHcko4lVI%2F9c2%2Ba9zR%2FdcS9u5CwtGNtDt0416FfHnloKwRcfHGiYUh5PyDl4XA8K8%2FKef9Vbv%2Fs0q986q4xaDeOOZYnIPwaA8CKwhERPQuAbidCvT%2FzZi1Y0pt9b0uN3uvpAYXJJMTYr0DYp0dYp0dWpsPUVvwdbXNB6VFryaUh4XyaoJmCSDt7cNi1yiWe6ewNjhnbDuI2J5UsDOlYHtSxta4hI2R8FdWeyef3wqFvuvR9zJ%2BfQrA7Yx7%2BNNJe1ck6ei%2BSrtDyHj6bjQlFqsHi480JRbDQT4whLx%2F6M%2FyHSNfqPT9Cn8Ri56uz8j1jlJAiPw5AWF%2F7roH4Ty5%2FJuVfm8iIvqAgCB8KOEI%2FY2oteOOZg5IkTb%2FRsTsP460tq9EzYERzeL%2FnaS1%2Byfjjs6piCWgVxNavG%2BpKOhVBTfkZi%2Fi9s5SE%2BNK3zTWBmexPjSH9aE5rA3OYqVvCosdI0i7Q4hZghtxS%2BCfbGxsfPhISv70sZz690dSynwip4f352JDeU9fIuXovkq79HDwlm0F47lxUqGscrAYGH41Hxj%2B%2F0LfAiOh%2FyKM2xyvxEcqCCvFy5pKPQjGFoOcxmVy9d9U%2Br2JiOgDCKHQ01oo9NFYMPjJjYmJD5f%2FPUEQPpRydf%2FzmL3zsrTt0OKF3OwtO%2B1wvfWgtrYj5Q4hFxzGUtcYlkMTKIQmUeiZwFLXGBb8g0i7Q4haAsh4%2B97cmVRye7PRlw7C8asDIYEjKYUjKYWl4AgyrhCynj4stA8YpxCuqwal6sEj2wr5wBDygaHXFjtGn%2F1WGqH8zUrZ%2FZ%2FVKwj6ZU2RRjeypYBgVBCmb1YQLjOsIBARUYXk%2FAPfn3B2OjVrAGqb70ZIKN9yKB6N1CxBpD291ycNjD%2Fh5wJDWPANYKlnXJ%2FMOCFjd0rF3mzZdEAphb1pFQvefuTaB5DzDRZ%2F8L8lHOQ7RrAYHCluKSAXGHpjMThsPQhpH630Z%2FZOxFqCPyTX2h%2BKVWaIVWZEGlxYKA8IY5JxLbcxe0LmKQYiIqowPPvsUwlP78%2FFHF3bb7ftUF5JEBtcUJq9iNk69KBQvkXQOaJPZSyefJhSbpztP5JSOJbT2BoOY9E%2FhMXAEBYDw1gMllUMgmVVg%2BvKwVU%2BONy7Ojz8nZX%2BrN6JRWfnX1JMroJUZYFcZUG80YtkWwB5Tx%2FWQ1PYGprH7riM%2FRkNR%2BEETpUMzmOLeJBZvfdyYevnK%2F3%2BRET0bS5lH%2F1YzNH9Jc3W8WqxmiA9eiSyQQ8JUqMbaqsPCUcX0t4%2BffshMFSayFiqIszoF0EdhOOlvfUTOY31%2FhkjHBgBITiCpWJACOr%2FvTHr4GopMDSX7xj7nkp%2FPu%2FERjD4Sa3Vd5C0dWK5awybQ%2FPYHhOxN6XiYDaKo3ACx1IaJ0oG51oO92J53Ess4SJZwEVqGfezay%2B%2FvLT59yq9DiIioltxf%2BhHYvbOBc0SuCpWE%2FSA4CkFBP1xQm5yI2oJImoNIuvrN6Yxzhh3O0jYKd9mMPbWT5QMTuQ0NgZmUei4DgZLxW2G4DAWA8PI%2BQawFByKF0JTn6r0Z%2FJOpOypZyIt7Ura1YNC1xjW%2BqaxMTyPnXEJu1MqDsr6DU7ULM60HM5jeZzHF3EvsYR7pZCwuvfK5ub3V3o9REREt27dunUr4Qn9h5i98zW1zV86Eik1ecrudNCDgmZsS6Q8vch3jmKl1xiwVH6vw1wUh%2BHrbYYTJYNTJYONgRkUgiModIyWqgZ5%2FxByvkEsBodXNz1Dn6n05%2FBOJc2BfxlpcD1MO3uwGBzGau8U1gfnsF02eOqwOHhKyeA0soCzaA7nsUWcxxdxnljCeWIJF6llPMitOSu9HiIiopJCKPSJmKMzrFkCD5XWdigt3hvHIdWW9tLgpfLjkKv9xnClcUkfrjSjvaUX4UTN4kTJYG9SxUrnGJYCw6XehEJg5Hyhve8nKr3%2Bdwqh0NPRFu%2B%2BXO9A3BJEzjeA5e5xrA3MYHMkjJ1ScLpu4DxRMjiJLOBUK4aEJb2akCzgIr3y0tc2Dn%2Bo0usiIiK6IeYM%2FUrU3nFZPmBJatLvcJCb9UbGSJsPGU%2BfUUUwboccCWN7Qja2GvRehEMhgSM5hWNFDwmnahaHczFs9M1gOTiC5cDQK%2Bsd43%2Bj0mt%2BN%2BKt%2Fs8rDc43hBortJZ2ZNy9WOoYKVURtsrHV8%2FHcSQY%2FRlqBieRLM6ieZzF9KdYTbjIrv1xpddFRET0Fgeh0Efjzm6nZg2%2BVqwaRMx%2BSM16b4LU5Ebc0YVsaaiSvtWwNSaWthpuhAQphWPJCApKRg8K83GcqgvRSq%2F13Yq1%2Be%2FK9Q4ItTbI9Q4kbZ3I%2BQf1KkL%2FNDaHjYuwplTszxohwWjiPFb0kHCq6dWEs2geZ%2FFFXKQKU3gWT8z0SCIi%2BjYTd4f%2BbszemdMs%2FoeaJWA0LzohNDj1WyGNgUqFngn9%2Bugh%2Ffrotw0JRnm91LyoZHAvmr%2BPd3AB1LeSSEv7tFzvgFhrg1BjRaSlHWl3CIvBYayEJrE2MIvNkTC2yxo5b4YEo7pibDmcaAu4l1hcRQpP9OdCREQfcDte4SMxR%2FeXNEvg9eLxR8HkgNjoQtQaRMbbj3zHCJZDk1gru%2Bxpe7IYErTS8cdiUCiGhdNI9hzAEzVKuRxu3boda%2FNpUr0DQo0V4WorxDo7YpYgst5%2BLBUbOQevGzlLWzDFPo2yoHCsZvRTDrH8CbSDJ3JQFBERfRuJBYOf1CzBI32YkguCyQnB5ITcpDcsZn0DWOwcxXJosnT0sVhJ2JlSjcuJotifi%2BFgPq4%2F4ThOlPR%2Bpdf2bsXa%2FJpschoVBL2KIDe4kLB36hMnu8auQ8KIoF%2F3PKVid6YsOIlJHIrJ66bOSHYXqeOPVXptREREX1fKbn9GswZk2ehBEExOCPUOhOsdkJu9SDi63xoShuaxOSropxsmFeOHYkQ%2F5WBUFY6kpFrptb0buHXrdtwa7JFNDkh19tI2g1Brg9rsQdLRjZx%2FEEvdekhYG5zD5kj4%2BjOZKVZYYjgIx3EgJHAoJnGiZNIQ8KFKr4%2BIiOgbitq77iit7XoFoUEPCIJJDwlKixdJZw%2By7fp2Q6knoXht9JiI7XFJryhMKtidUrA3HcGxnP69Sq%2Fr3YpbO39bbXRf6QHBDqHWBqHWBrHODrWlHUlnjx4SjErC2oB%2B4kOvsOhHQ3en9eC0NxvF%2FnwMJ2raW%2Bl1ERERfVPi7q7Pq23%2BV677EK5DgmByQmlp1082lIUE%2FQfiDNaH9KCwOSqUgsLeTOTPduXUX670ut6tBV%2FoB6Mt3q%2FK9WVVBOOR6p1GSOguhYQb2zAjeoVla8KoKEyr2JuNXh2JiV%2Br9LqIiIi%2BKRsTEx%2BO2TqGlBavPmHRCAnhekcpKCjNXsTtnch4%2B25cF73SN60PVBqaw4ax9bA3pX4gJgYCuB03B%2BbUBjf0kOCAWGe%2FfuodUJu9SNivw1PxaKi%2BFXMdnrbGJezMRNY3JjY%2B%2FI1%2FZyIiom8RKe%2FQT0Us%2Fkt9YJLrLf0IgskBudENzRxA0tWDBd8A8kZQ0CsKk1jV7yl4aX9G%2FXSl1%2FNeSXr6P6c1e1%2BV650oVhKk%2BrKgYHJCbtTvski79Su0FztHUegZx0rvFFYHZoxhU%2FMPd6alf1Hp9RAREf2FxRxd%2F3ekzf%2BaVNawKDY49a0Go5ogmpxQmj2IWTuQMoJCLjCEpc5RLHePf201NPPrlV7Hey1u6fijSKMbisl1HRLqHBCNoCCZnJAaXIi0tCNh70Ta04ucf1CvKHSNYaVv6mptaHYQ4IAkIiJ6AgF4Kubq%2Fk9Km%2B9V%2FUIn48ZHkxPiI30JoskJpcmDqDmAhB4WXsv5%2Bv83ALcrvY73Wsre9TORBjciDW6oJif0aoITUr1DrybUO%2FSQUAwKre2IWTuQdPYg4%2B3DQmAw9aQPjSIiom9zAG6n2nt%2FNWoLbittviu5WQ8KUqMbkhEWpAYXpAYX5EY31BbvQ621vaBZfT9d6Xd%2Fv8RafG6x1galzg6twQXV5IRiPHK9E7Lp%2BlEaXFAa3VCaPIi1%2Bt9I27v6c37%2Fxyu9BiIiovdEIRT6RMzW%2BR81azCvtvq%2FojR7Hqqt7VdqS%2FuV2tz%2BhtrqeyVmDabito7fTNlHP7CDfwA8pTS4TsQaG4QqC4QqC6QaG9R6J1STE6rJVXoijW5EmjyItrS%2FmbAEFjOegV%2Bs9PsTERG9LxAKPR31Dv5w0tn5K1lX6De0Nt%2B%2FidkCv6K6uz6NUOiJHaX8zYq3%2Bb5XMTleFWusEKosCFdZIFRbMF9lRrjaArHGBrnODtXkRKTBDa3Jg4QlOIrQkztmmoiIiL6BaIv3n8kmx5VQY4VQbUG4Wg8J81UWhKutCNcYT60NQp3dONEQ%2BMA1ahIREVGZSJN3UKqzQ6yxQai2QKi26iGh5jocCEY4kBrdSDi730x0DX2m0u9NRERE75NQKPS02ujZF2ttEGtsCFdb9Jsdy8OBUTVIOLpQ6JnAzpSytyMIH6n0uxMREdH7JNPa9WnF5HxVDwhWCNVW%2FVbHWhuEWjvkBhfi9k4sdY1hfXAOW%2BMS9udjjZV%2BbyIiInofRZq8%2F1E2Oa%2BKVz0LNVaItfokRa3Vh2x7P5ZDk1gfmsPmqICdSeXqMJz45Uq%2FNxEREb2PIo3e6RtXPddYIdbZETUHsOAbNG62vL7%2Benc68tq5kPiBSr83ERERvU9SdvszaqPnUKwtBgQbpDq7Xjnw9mOxc7R010Lx2uv92WhUEIQPVfrdiYiI6H2SaOv8CbXR%2FYZYq59gEGtsUBrdSDl7kAsMoaDfsWBcxBTG9oSM%2FfnEn1T6vYmIiOh9FG1u%2F6Jc74BYa4NYa4NU50DMHEDG04t8cNjYXpjG2qDef7A7pV4dCrGfrfR7ExER0ftIa2kXigFBqLFCMbkQtwSN7YURLIcmjf6DOWyOitibibyyI2S%2Fu9LvTURExydrowAAIABJREFURO%2BTlN3%2BMaXJc684IEmstSHS5EHK0Y0F%2F6B%2BtbUREDaG57E1JmJvVpvGs8%2FyOmciIqIPqkiT6xeUxv%2BfvTuNjjS96gSfqs0u29gGMzZgDJg2W2MwbRgYeqDpNkuzTU8fYHBPDzC9DAM0zDng6W44QGOB7UytESEp9n1TSApJoX2J9d3f2EMK7fsSIYWUmVUuU3a5XFWZ%2Bs%2BH941FWUVjMxkKp3R%2F5%2Bhk2T7Ouqn8EH%2Fd5z73cTzg1AFFrssCud%2BNgj2ozB8MzynzB6Eo9tT5g5NY%2BvdaXTchhBBCmkju89wRemzg1A2KXLelYf5gGusj89gcC9f3HywKD04S6Y%2B1um5CCCGENAmANlHnTPLdViUcdJkh9NqRNQew7A5h9ZHjhb0ZBsdhqVyW5edbXTshhBBCmkTW2L9J1Nq%2FyHVZ1A6CqT5%2F4JnA2tAsNkYXsB1S5w%2FmOJRiSVer6yaEEEJIE8kG1y8KvXZUAwLXZUFqwIu8I4gV3yTWhmaxNRbGdqi2%2F%2BDiJJL67VbXTQghhJAmkvpc%2Fcr8gRIQhB4bMkY%2Flpxjtf0Hm2OLDe8viK8dhdMfbnXdhBBCCGkSBINPy32uIt9tAd9lAddphqh11OcPBmca9h%2FEsTfD4igsrSKIp1tdOyGEEEKaROzzfoeosX%2BF71IDgrr%2FIG8bQdGrzB9s1gYUE9if43AcT%2Fa3um5CCCGENFGyz%2F2bosZ%2BwXdZwHeawXdbkdJ7UbAr8wfrw3OX5g8O54WH5UT2l1tdNyGEEEKaBECbpHM6xR4bqgFB6LEiYxrEknMMq%2F7p%2BoKkiai6%2F0B8ucLkvrnVtRNCCCGkSdbbg8%2FJOuex0G0F32UG32mGpHUiaw6g6A41rFdWFiTtz7I4jogigLZW104IIYSQJkkPeD8saR0Xgjp%2FwKvrlfO2ERQ9E8rzzsEFbKsPNO3PcTiJpW63um5CCCGENJGkc%2F6W2GODEhDMELqtSOu9WHKM1uYPNkcXL88fxOUfb3XdhBBCCGkSAG2y1hkQu60QOtXjhR4bMqZBLLvGseqfxsbIPLbGwtiZiGFvOoGjsHQXudyzra6dEEIIIU0S7va%2BU9I67oldFghdFgidZshaJ3KWISy7xpX5g5F5df%2BBOn8QliKtrpsQQgghTZQ3en5Y7rE9FNVwIHZZkOpzo2AbwYpXmT%2FYCC5gOxTFzlQc%2B7MsSrHkp1pdNyGEEEKaKNPv%2FgOpxwax0wKx0wyxy4qM3odlxyhWfVP1%2BYOJKHanEjhYEF6%2Fx6W%2B5%2B%2F7fQG0vZhKvfuuUPjY%2FWTxfzmXV%2F7t3dzqL7xYWP%2FHlVzlHVfxZyOEEELIPwDa259KaZ1RqcsCqdMCscMMuceGrHEQRdc41tT5g83Rxdr8wWFYPGYY5pm%2F8%2FcE2iph%2BftPoklTOZY8PU2kH5yyWZzxBZxLyxf3kiuv38%2Bu7b6Q3%2Fzze5n1b7nKPy8hhBBCvgq5Dst7ZI39FSUgmCF1mJHSOpG3DGHFHcLa4ExtQHF3Ko79GQbHUXnm7%2Fr91oPMuw5mmJ7DWfYrR%2FM8SmEJ5VgSJ4k0TtkszoQ8zsUlnMtF3Eut4n524%2Fyl5Z1%2FD9B7DoQQQsjXjYzW9SPJHjvkTgvkTjOkTgsy%2FR4s2Uaw0rj%2FIBTF7lRced45mvnNt%2Fq99oPR92yPLs7vjkcu9ifjOJxhcbwgoByRlYDAZFHh8zgTl3AuL%2BNusoh7qRXcz6xdvLi0o6OQQAghhHwdANCW07n%2FUu62Qu4wK19dVuSq8wfeSWwMPbL%2FYIF%2F9ZBZeu%2Bjv1cwGHy66Byd3BicudgJLmAvFMPRDIujeR6liIRyLKUEBC6PM6GgBAS5iLvJIu6mVnA%2Fu%2F7wxeL2p1vxfSCEEEKIKm%2FwfSSlcwppjeP1ZKcFyQ4zkh1mpHrtKJgCKLrGse6fwob6QNPOpDJ%2FcByR9t9qvXJO7%2FnUknnowYZ3EjvDC9gbi%2BBgKoGjWQ6lRRHlqHLMUGGzOBMKShdBqncR7qZWcS%2Bz9vBLK%2Fs%2F1IrvByGEEHLjpYz%2Bz4gax2tCpxn85wyQ75iUcNBhRkbrQsE8hFV3CBuDM9gKLmAnpOw%2F2JthUIokXbdu3boF4KnKTO4d95j8R86Fwv9%2BPM%2FfP4mlcBpNoTQnYH80jIMJ9ZhhXlACQjyNUyaDCperhwT1qOG82knIbR4AeKrV3yNCCCHkRkmZ%2FF6px3YhdlnA3DaAv20E99f9SN02Id1hQa7fg2VbEKueCWwEZrE1uoid6vzBLIdzLp88F5fXz8WlF8%2FF5VfPxaWH52o34Fxcwrm4hLvSMs6YDA7HozicSuBojsNxtYsQV4YVK1wOFaGAilhQ%2Fr%2By%2BpVcwReKWx9u9feJEEIIuTFSRu9fiVoHcsZBbA7NYW8ihv0ZBodzPA5nWGx6p7BiHsaqYwzrvilsDc%2FXAsLeVBylRREvpFZxVw0DdyUlDNyVlHmCc%2FXXu7Ly35XDktJFmGZwPM%2FjWL3RUI6nccrmUOHzqKidhOqRw7m8jPv5LW2rv1eEEELI17WyLD9%2Flsj8TIXPWytCPn8uLe3clYsr91JrrhfzW79YluXnv5rfR9IPfqesc766bBvBhn8a26OL2A1FcTDDoHYdUZ0TKEdklBYlHM6w2JuI4WiOw9E8j7vSMu6lV3FfLtZCwd1L%2F6x2Aar%2FWVrGYSiGw6kEDmeVGw1KSEihnEjjhM3ilMuhIihBoRoWzpMrq83%2BvhJCCCFPpHvM%2BruOwvJ%2FPlqUPn8cubxLoMLnax%2FC9zNrD1%2FIbfb%2F7Xr5mx79PXDrVlsul3v2JJ1%2B38rgVHQ7uIBSWMTxgoC98Qh2xyPYbzgCKEVknMRT6hGAetug4Sf7e8kV3E0WcT%2BzhnvVcCAvK8GgesQgqd0AtStwPMthPxTFwVQCB7MsjhYEHIUllKJJlOMpnCQyOFWDwimndBXO5eWTVnzPCSGEkK9r%2B5PcD%2B1Nxbf3ZhgczHE4XBBQisoox9M4YTLqT931s%2Ft7qRW8kNs4eXFp85%2B%2BxCy990xc%2FsFzMf%2FJc2l56EwoHJ0JhQdnQgHn1Q98cQnnQgHleQH7EzEcqNcRj8MSSo1Ljfj8pRsHyr9PGSa81zBz0BgIzoSCsuuAz6PC51FelLA3GsZuKIr9hpBwrIaEknrkcJLI4ITJ4ITNoiIU7rf674AQQgj5ulIcmvyJ9ZG5l7fH1c2FsywOFwQcR2TlJ271FkCl4RaAchNgBfcza2%2FcS6186VxcenguFNQOQKH2k33j111pGeeS8hP%2BwVQChzPqB7e6s6BxsVGlISiciUu1zsEZX6j97xUuhwqXU7oBbFb5wE%2BkUY4msRWYxY56pLGnhoTDeR5HiyKOIzKOo3ItKJQTaVT4%2FBHdZCCEEEJUq4GpDxRcY2ergZna2wf7MwwOG366LzccM5yJSziTlpRlQ9WthOk15dpgLRSoMwHVX9Ujgepw4Rmfx8FkHAfTCRzOcTheEGshoZxI13%2Bq5%2FM4rQ0VKqHjlKkHgZN4GuVYCqVYUvnQj0g4Cks4mOWw4ZnE5tAstoP1gcd9tTtyMM%2FjcFHAYVjEkRoWTpnsZKv%2FLgghhJCvC8Fg8Omk0cdkbMNY8U9hY2Qe26EIdqcT2J%2FlcLgo4jha7yKcPrJL4Fwu1jsJ6TV1cHC5fjTwVl%2Fq0cDRLKccNUwzOJjlap2EWvufeWROQJ0VKEVlHEdkHIUlHIVFHC0KOJznlQ%2F%2BOQ77Mwx2Rhdr1ybXAzPK2ubxCHYmYtidSmBvhsH%2BLIv9eeUo5TAsopxI%2FXKr%2Fz4IIYSQrwtZ0%2BCPC%2F1upM2DWPZOYG1oFptji7UFRYfV4b6GLsKbQkLjjEBypaFzUN9TUJ0TqM4KVPg8SgsCdkbDyrVHNSRU%2F31K%2Bz%2BFUlzpKJQTSkfhhMngcI7DwSyH%2FVkWe9MJ7E7FsTMRw3Yoiq2xMDZHF5EzDiLd70HBOowVTwhrg9P156PVBUw7U3HsTiewN8viYIH%2F4iFz%2BPZW%2F30QQgghXxdS1qEwr3NC0nuQd41hZXAaG8EFpYswlagNK1ZnERqPGipC%2Fbih8cZB4wBhpSEQVDsBJ4zyQV%2BKSNgamlOuPk7EsDeVwP4sq7T%2F1aBwFJFwHE2iFEuhHE%2BhFJGxE4piezyCrdFFbIzMY21oFqv%2BaRQ9E1hyjCJrGgT3OT34DhNknRNZcwBLzjGs%2BCaxFpjB%2BogSFLbGw7WwsDvL%2FHGr%2Fy4IIYSQrws5i%2BXZpNH%2Ft5zWDl7nRNoSwLJ3QvlJe0yZRajeaDgK148aLu0SaJgPqHYUzoSCOjjYMDzIZHCSyCgf8rEkShEZh7Ms1n1T2BhSNiduhyLYnYzX%2Fp2X5wQkHEdk7IQiKHomUHCMImcdRto0iOSAB5LWCUnrgNhtBXPbAOa2AWyHCVynGUKvDSm9FznrMJZc4yj6JrEyOI214Tmsj8xjazycoxcdCSGEEJXsCX5Q6Hc%2FYDV2sBqb0kVwjNZmEbbGw7WjhoN5vhYSSrGk8oGvziQ8GhQqfP5yGIgqQ4BHYVH5wF8QcDDHYWcsjGV7EKveSawHlOedt8bC2JlQVizX5gTmOBwsKGEhZfBB0jog9bku5D7nqym9t5Tqd49KOucrfJcZ7Of0YBvCAddpBtdlBt9thaB1IKn3ImMJIGcfQcE1hmV3qHQwFftAq%2F8uCCGEkK8bacfwx8QB90NWqwQETutAyjyIgnscq%2BpRw5Z67XFPvfZ4FFZ%2Bki%2FFkup8QKbWTagePZwyWRyrA4SHiyIO1AHCvRlGmRmYjGM7FEHROY70gAdLthEUPSGsDc5gY2Rebf9XBwrVOYEZBgfTzFba4P2TjDHwM8um4AdT%2Ff53M%2B3MMwDa8kbX%2FyT12F4TuizgOs21gMB3miF0WyF0WyH22CD02CBpHZD7XEgZ%2FbmiN%2FT%2BVv89EEIIIV9XMtbgjwgD7gtWawfTawXTa4XQ50LGOoxlzwRWAzNKSAhFarsRqm3%2F6uBidTagrC4cOmWzKEWTOJhhsTfD1AcIxyPYDC5gfXgOq4PTWHKNgf%2BcAUKHCbLOhaw5gGXnGFa8ypzAxsg8NkYXsDm2qIaU2KuHC8nv%2Brv%2BLIUBx7dxnxl4LfZpDeKf1iLxmYFaN4G7YwTXYYLQZYHUY0Oyz4W0wfclCgeEEELIWxCMg98t6D0POK0DrMYGptcGptcKccCDrG0Ey94JrA7NYHNUCQnV44Z6y1%2BZDTiKyDiuhoVEGgezHDZHF5VAMDSLFd8klpxjyFmHIfe7Iemc4G4bwH1W%2FQDvMEHU2JHSe5G3KXMCK9U5gaFZbIzMX%2ByOhz%2F93%2FuzrDqHPsTcHng99le9iP5lD6J%2F1Ytouxbxz%2FSDvWNEzjqMjZF57M9xOI7IOGEzL35hZeUbr%2Bp7TQghhDwxGBfzdsngfYXTOcBobGoXwabOI3iRcwSVkBCYwXpwXmn7TzZcDZzncbAg4GhRrN04KMWSWB%2BaRcE2goxpEPKAB6l%2B98O0wfOV1IAH6T43uM8MgPnsQO0ne7bDBLbTDK7bClHrgKz3Im0aRM46jLxzFAXX%2BPDf92fJ9tv%2FCfM5%2FRvxv9Yh3q5F7K91EDrNWHaOYXssjL1pZfFT9T2GUzZ777649Q1X8X0mhBBCnjhJk3%2BV0znAauy1DgLTYwWrsUMyeJG1j2DJE1JCwohyu2F7IlrbIbBfCwrqjYN5%2FiI94H0tNeA%2Bz5kDQs4S%2BLNla%2BAH19uDz6V1rs%2BJXebX%2BW4LuA5T7YvvNIPvsoDvtoDrtoDvtUFQBhFfT5v8n%2F1q%2Fhy5Pu9PsbcNDxN%2F04d4uw5ijw0rrnFsjsxjJxStbYasHo2ccrnDQ4ahvQeEEELIW8nYhn9NGHCjOqjIamxI9FQ7CXZIeg8ytmEU3OMo%2BqewOjRTG17cnojWOgq1sDDH6QsDjm9De%2Ftbvmmw6h3%2BAVnnlEWt%2FStSrx1Crw1Cj1X5UoOB2O96NW30smlr6Hu%2F2rcRMobBX2NvGx4mPtMP5nN65MxDWPVOYjO4gN3q6uiGx5pOudw6GOaZx%2FvdJIQQQq6JnCX3bNI0eMr3u1CfRbA2HDfYIfS7kTIPIu8cxbJ3orZDYCO4gM2xMLZCEWwrOxMqh3PMt%2Fx9%2F07cutWW6XV%2BKGvw%2FklmwDue6nfzaYOPSxt8E2nT4J%2BsOic%2F9LU%2BmpQx%2BD%2FJ3jFeJD47AK7ThLx5CKu%2BKWwGF5S3Jaq3MNTFS6dcNku7DwghhJD%2Fjpx37Cckg%2Fd1rs8JVmtvmEeozyRwWgckvRcZ6zDyrrH6sqGhWWXZ0NjiV3YmIv%2BuVX%2BGdL%2Fn95jbeiQ%2BOwC%2B04y8pR4QdidjDa9TKgGhwuej9HIjIYQQ8vfI2Eb%2BX1HvecDrnA3zCDaw6lwCq3YTeJ0DSYMXGesQ8o4gllxjWPaEHqwEprWtbNknDd6%2FYO8YEP9MP8RuK%2FLWYaz6p7A5ejkgHIUlHMeSqHD5MQBtraqXEEIIeSIgGHw6ZRv6Q0nveYXXOcFp7GA1diUYqF9crw2cxg5eY4egc0LudyNl8D7MW4c7c5bcs62sP6X39jC3DUh8ph9Sjw0F2wjWBqexNao8PFXvIChXMit8wUYBgRBCCPkqAGhLGvyfFPtdEHRO8FoHeK29Fgp4jR2Cxg5R54SocyLV78HG0Oyrx7NCy%2FcJpAa8Vua20kFQAkIQq%2F4pbI0uYncyrjxdrQaEUiyJCp%2FXtrpmQggh5ImR1Ds%2FzmvtF2yPFWyPBWy3BWy3Vfm1ywy20wSux4qsZRi7U3GUYqnXXpCXP9jqulMDnmHmtgGJzw5A1jiw5BjF%2BuA0tsaUgHAwyyk7GyISSvEUzoR8e6trJoQQQp4YksH1I7zOccF0W5DoMiPeaVK%2BOoxgui1ImwPYGg%2BrLzxKKMfTr93jlr6n1XUndc75WkDQOrHkGK0dMSgBgcXhoqA%2BNpVCRczT886EEELIV4sZcH0%2Fr3WA6bEi0WWufQk6J1YGp7A1Hq7uO1ADQvKNF%2BSV729lzQDaZJ2LY%2B4YEP%2FsAJI6lxoQZrA1Fq69I3G4qB4xxFOoSEu%2F28qaCSGEkCcK1%2B39MN%2FnfIPttSLRbUGi2wyhz4UlTwjrI%2FPYnohib1p5%2Fvk4IqEcSz28Jy39SKvrlvvcaeaOAYnP6ZWA4BzDWqAhIMxx6tsRSkA44wu%2F0eqaCSGEkCfGsin4Qb7f9YDV2MD0KGuX0%2BYAir5JbIzMYzsUxf6Msl5ZWVucenjGF36mlTUDaJP6XcvMHQOY2wYk%2B9xYdo5h%2FU0BQT1iiKdwJi39SitrJoQQQp4oq7bAB%2Fg%2B5xvKLgRl%2F0HaMoSib1LpIISitRcd1YBwUZHz%2F7KVNQNok%2FucO8wdIxK39UgPeJSAMDSLbTUgHKgdhOOIjHIifVER8z%2FdypoJIYSQJ0pM73kf3%2B%2F6Su1Nhh4r0pYAlr0TWB%2BZUwLCdKIhICQvKmL%2B11pZM4LBpyWN44jtNCFx24DUgBfLrnFsDM1iezyC3emEMjOhHjGUE%2BmLF5LFn2hlzYQQQsgTJdXvfzff5%2Foy2%2FCyY8o0qASEYSUg7E4nakcM5Vjq4lwo%2FIdW1sy4XG8XtY5ztkMJCGn95YCwN5WodRDUgPDwrrD2sVbWTAghhDxRGIPhXeKA56XGGYTGgLAVitSGFA8XRZSiSdwV87%2FXypoPXa63ixr7C2ynCcxtAzIGP4ruceWIQQ0I%2B40dhHjqwT15%2FSOtrJkQQgh5osxYLO8Q9Z57lwOCvx4QxsPYnUrgYJ7DUVhUX0Ys%2FGkra85Zgu8Re21fYDtMYO4YkDEOougOYWN4Dtuh%2BhFDfQYh8%2BqLqeK3t7JmQggh5Iky39%2F%2FNknvLTMNASFp9GPJE8La0KwSEBpmEI6jMs6EXEcra85ZAt8s9Fq%2FzHaYwHQYkTUNYsUzgc2ReeyEItibftMRwxfv87lvbWXNhBBCyBMlZ7E8K%2Bk9e9VbDEyPFbLR1xAQItidSqiLh6odhFxfa2sOfofQY3%2BV7TCB7TAhZw5gxTOBjeG5ekBQj0SOozLKTOalv5XXv6mVNRNCCCFPFKa9%2FRlR711mNPUhRdngQ8E9jrWhWWyO1TsI1Q%2FcUy7vaGXNWaPv%2B4Qe22tshwlcp1kJCN5JbI7MY%2FuRgHAUkXDCZM5fTO2%2Bu5U1E0IIIU8UtLc%2FJeg9aVZrB9Nre%2BuA8Mjq4gqXG2xlzTnL8Mf5HuvrbKcaECxDWPFWFztdHqo8jso4ZbPH9xjmXa2smRBCCHmitLe3PyUaPInGgCAZvEpACMzUA0J1M2FERoXPBVtZc8Y89LN8r%2FUB02EC12VRAoK6%2BXEnVF0NXe94nLDZTezuvq2VNRNCCCFPHNHgHee0ygxCoscKSe9F3jWG1VpAUGcQFpSAcMpkFlpZb8oa%2BHW%2B2%2FKQ7TRB6LEibx3Gqm9SHVJUNj%2FWOghKxyMNhnmmlTUTQgghTxTcQpuo9wxWOwhKQPCg4BrHamAGW%2BNh7EzGLwWECptlWllz0uT7P%2Fhu6wXTYYTQa0PBNlLvIEw0BgTlLYYTLhtDMPh0K2smhBBCnjiS0WdhtY7aEYM44EbeWe0gLNZnEBYEHIUlVJhcrpX1JvXuP2C7zGDuGCBq7MjbRrDqn8JmcOFSB0HZ2yDjlMtNAniqlTUTQgghTxxJ7%2BvldI5aB6EaEFYGp7E5toidyZjyobvAK7cC2OxKK%2BtNGwf%2FnOuygO0wQdI4ULAHseafVgLCROzyEYMygxAE0NbKmgkhhJAnTtLg%2F4vGgCD0u5B3jmJ1cBqbowvYnoxhf1Z58vk4IqHCZVda%2BYGbMQduc10WMB1GSNpHAsLkWwQELqdrb2%2BnDgIhhBDytZD0vj%2BtBwQLhD4X8o5qQFi89KF7FJZwymZ3WxkQknqvkesyKx0ErRNL1VqrHQQ1zNSOGNhsV6tqJYQQQp5YSaP%2F93mds95BUAPCyuA0NkYXsK227aszCCdM%2BqiVASFl8Hq4LrPaQVACwtrgNLZGF7EzEcP%2BzOWAcMbn%2FluraiWEEEKeWClz4N83HjHwfU7kHEGs%2BKewEVzA9kQUu9P1DsJJIl1u5bVBecAd4rotYDuMSPa5LwWE3dq8hFB7XKrCtfb1SUIIIeSJJBi9%2FxvXp3QQmF4reJ0TObsaEEarASHRGBDOW3VtELdutSX13gjXrcwgJPvdWHaNYS0wUwsI%2Bw1HDKVYEidc9ndaUSshhBDyRJOMvl%2BpBoREjxWc1lELCOvB%2BTd1EMrx9AsAWhMQgLak3iNxXWYwd4xIDXhqAWGz2kGoBoRFEcexJCpS4ddbUSshhBDyRBP6nT%2F3aEDI2kZQ9E9hfWS%2BoYOgPPlcTqRfwuHh21tRK4A2ecCTVWYQTEjrvVh2jWM9MHu5g7CghJlSLHVxwud%2BpRW1EkIIIU80sc%2F7U3y%2F64LV2MHUAsIwiv4pbIzMYysUqb3oeBQWUY6nvljJ5d7RilpzltyzUr97jetUbjGk9F4U1Xcjtho6CIfqDEIplro44ws%2F04paCSGEkCcaM%2BD9MSUgNHQQrMMo%2BiZrHYS9hiefy%2FH0K4fM0ntbUSuC68%2FJfe4DrtMMttOEtMGHojukBISxMHZqHQSh2kF4WBHyP9qKWgkhhJAnWsYa%2BEG%2BzwVWY1M7CHZkrENYVgNCtYNwoAaEUjz16n1%2B41tbUascDD4v6VwlrtMEttOMtF4JCOuB2UsB4XBBwGFYRCmeenAu536oFbUSQgghTzTR6Ps%2BoaGDwGrsyFiHUfRO1APCVL2DUIqlv%2FJiJvOhVtRamZl5h6hzVdhOE7guMzIGvxIQhpSAsKs%2BLFW7xRBPv3ovtfE9raiVEEIIeaKlbd4PC9UZhF4lIKQtQ%2BoRw9ylgHC0KKIUS75xL7XUkg%2Fdojf0flHreIntNIHtMiNrHMRyY0CYqgeEw0UR5UTq5YqY%2B45W1EoIIYQ80TjD0IcEvecBU%2Bsg2JC2BLDsncDa8By2xsO1IcXDBQGlWPJBmc%2F%2FcCtqXXVOfkjUOl7mOs3guszImgZR9ExgY3juckCoziDEU1%2BoMLlvbkWthBBCyBMtpQt8QBhwP6h1EHofDQgR7EzGa0cMx9Fkywb%2F0rbgh0Wt88vKEYMFOXMAK141IIyrAUENMupSp5MXU6l3t6JWQggh5InGaF3vFfWeVxiNskmR6bUhZa4GhFlshSKXbgccR5MX51z%2BE62oNWUc%2FFFRY3%2Bd7TSB77Yiaw5gxTuJ9eE5bI9HagGhumq5zKTLkMvPt6JWQggh5Im2bgi%2BS9K7v8A%2BEhCWPCGsDc9hcyxc6yAcLAgoRZMXp3z2f21FrVnT4I%2BLvfbX2E4T%2BB4rcpahWgdBCQgJ7M81LEpi0htlWaaAQAghhHytil7vO0W9555yxGBTAoJpEEueEFbV4b%2BdqXh9AVFEwjmX%2F2Qras1aB39O0NgfVDsIeeswVryT2BiZx3ZI6SAcXDpiyOaxvv5cK2olhBBCnmi78%2FNvEwbcJ6y2HhCSakBYG5pVOwj1%2FQKlaPLinCv8x1bUmrUGfl3otV2wnSYIvTbkrcNY9U1dCgiXZhDYTLyVL08SQgghT6z1YPA5vt91qMwgqAHB6H9TQNirziBEZJwJuf%2FUilozRv9vCb22C6bDBEFjR942glXfJDbVgLDXcNviKCzhlM0sAHiqFbUSQgghTzSmnXlG6HcXq7cYEj1WyEYfCu5xrA3NYmN0EdsNHYTjiIwTNvvnrag1Y%2FD%2FJ77HCrbDBLEWEKodhOil65hHEQnlRGYc7RQQCCGEkK9ZMBh8WjR4M9UjhkSPFbJBCQir6jPKO5Nx7M0oTz4fRyScctmOVtSaNvj%2FK99tBXPHCEnrQN4%2BglV%2FwxGDGhAOFnglILBZB4C2VtRKCCGEPNEAtEkGL%2FumgOBSAsLG6CJ2JmPqk8%2FK7YATJqdrRa2pAe9tvtsKpsMESedEwR7Emn%2F6TR2Eg9oMQlbTijoJIYSQa0Ey%2BGZZraMWECS9FwXXWK2DsD0RrXUQjsISTrmsoxV1pvTePr7bCrbAeE%2BWAAAgAElEQVTDqAQEhxIQNoML2Akpr04eNBwxnHL5T7eiTkIIIeRakIy%2BIe6RgJB3jWF1cBobowvYnohe6iCcchn%2FVdcIoC2p97n5bguYDiNknQsFx%2BgjAYG5NINQYbN%2FctV1EkIIIdcCbqFN6Pd4WV1jQPAg7xyrHTE0BoTDRRGnXGb4yusE2lIGzzDXbQHbYYLc58KScwyr%2FilsjS5iZ%2BLykOJxRL44ZVJ%2FeNV1EkIIIdeGOOAZaOwgiANu5B2jWHmkg7A%2Fx%2BEoLOKEzc5ddY0AnkrqPXNKQDAi2e%2FGkmMUq2oHYVs9YqgPKcoXJ2z2t6%2B6TkIIIeRawK1bbaLee5tr6CAI%2FW7kqgEh%2BBYBIZGOX3mdQFtS70lwXUoHIdnvVjsIlwNCdQbhOCpfnIrZf3XVdRJCCCHXRtLo%2B9NqQGB6rRD6XMg5gm8KCAfzHA4XBZwwGfGqawwGg0%2FLA%2B4s12UG22FEasCDJecY1gana0cMezP1GYRSNPmwwuV%2B4arrJIQQQq4N2ej%2FY07nfHNA8E%2B9ZUAoM%2BkMbt260v0Cu%2F3zb0v2u4tcpxlchwlpvRfLzjGsV3c1TMRqNy2UVyflN%2B7yS%2F%2FzVdZICCGEXCtp69Dvc31OVJ985vucyDmCKPqnsD4yXw8IcxyOFkWUE%2Bnlq66x6PW%2BU%2B5z7XCdZrAdJqT1Piy7xrA2OKN2EOoB4XBRQCmW%2FEqFz338quskhBBCrg3Z4Psdrs9Ze4uB1zmRtY%2FUAsJWqPqUstJBKMVTG1e9obDoDb9T6nMecV1KByFj9KPoGsd6YBZbY%2FWAUKsxlnqlzC19z1XWSAghhFwrksH%2FG3yfSwkIPVYlINhGUPRNKgFhPIKdhpcSy%2FH0%2FlU%2FgrTkcr1X7nOdcV1mcJ0mZAx%2BLLvGsV59knoihv0ZtjakWIqlvlTmUhQQCCGEkH8oQe%2F51eoMQqLHCl7neIsOQlx5sGlRQDmRKoHBlT6jXPSG3i%2FpnC9wnWpAMA5i2TWOjaG5Wgdhv%2BGIoRxP3b%2FP5771KmskhBBCrpWU2ffztQ5Cr00JCLUOwhy2xusB4WBBwHEsdQaGudKAkDEMfUjSOl5WAoIZWZMSEJQjBvVJ6sYhxViqcpJOv%2B8qaySEEEKuFdHo%2B%2Bl6QLCC1dqRsQ4rAWF4Dlsh9YhBDQilWOqFsiw%2Ff5U1pvWe7xU1ji9xnWbwXWZkzQGseEK1gLA7qRwxKDMIIkqxVOm%2BKH7DVdZICCGEXCvigPfHhAH3RTUgcFoHMrZ6QNgcD2NnKo69WVZZQhRLfuGqA0LKGPhhsdf2ZbbTBKHbgqx5CCueifoMwuTlWwzlRHoXcvlKaySEEEKuFXnA9UNCv%2BthrYOgUToIy94J9YhB%2BQDeVwNCKSp%2F8fO53HuussacZegnhF7b60oHwYKcZQgrXiUgbDcOKarvRZTiqRWsrz93lTUSQggh14ps8H2E73c9ZHqtYHqsYHttSFuGsOydwNrwHDbHwtiZVI8Y5nkcR%2BUvn8Su9nw%2Faxr659WAIHRb1YAwifWhOWyPhx%2FZgyCizKTl9SAFBEIIIeQfTNIPfqcw4H5Q7yDYkLYOYdkzgdWhWTUgxLCn%2FoR%2BFJVfuy8Wvu0qa8ybh39N6LWB6zRD6LEhZx3GincCG8Nzl44YqjMI5UQ6ftVXMQkhhJBrJWULfEDod7%2BmbFK0qR2EQK2DsDUWxnbDGf9RRH69IhW%2B8yprzNuGPin02sB2miD22pG3DmPVN1ULCLuT8csBgUmH0N5OAYEQQgj5h0rrPe8TBlyvVFctM702pM2DWPaEHukgKAHhOCI9OOML%2F%2Fgqa8yaBv9I7LVdsB0miBolIKx4Jy8HhNn6DEI5kR68yvoIIYSQayfV73%2B3oHe%2FXO0gML1WpMyDWKoFhMVHAoL8sCLkf%2FQqa0ybB%2F9U6LGC6zRB1DiQt41g1acEhO3xCHYbZiQOF0WUEmnzVa%2BDJoQQQq4VWRN8XhzwvMBq7ZcDgnscq4EZbI4tXjpiOI5IFyU2%2F9NXWWPWNPhpocd6wXaaIWnfIiBM1QPCUVjCCZPqoYBACCGE%2FP%2Bw2z%2F%2FNtHgrbAae%2B09BiUghOoBYSJWe%2FL5OCJfVLjcL1xljRmjr1votkIJCE4U7EFlBmFkHjuhaENA4HAUFlFi0n9xlfURQggh107OYnlW1HuPLnUQTH4Uqh2E0UVsT0RrQ4DHEemiwuT%2B9VXWmBzw9PNdFnCdZsg6lxIQ%2FFPYHJlXOwiJxg7CxUki%2FamrrI8QQgi5dhAMPi0OuDeVgKDsQkga%2FSi4lICwEVzA9kQUu9PKk89HYQkVJv9bV1Yf0JY2eP1CtxVchwnJPletg7AZXMB26E1HDA9PmPTvXVV9hBBCyLUE4ClxwFNo7CDIRh8KrjGsDk5jY3QB26EodqcSOJjjcLQoosJkr%2BwDGO3tT6UN3km%2B2wK2w4RknxtLjlGs%2BaexqT5H3XjEcByWHpYTmV%2B7qvoIIYSQawlAm6j3iNWAkOixQjYoAWFlcBrrjR2EWRZHYfFKW%2FgIBp9OD3jCfJflgu0wIdXvwZIjiLXBabWDEMWeWtvhPI%2BjiPTgjMv%2B8lXVRwghhFxb4oA7zGkdtSFFSe%2BtBYQN9UN4d1rtIIRFnLCZ%2F3ZVtTHtzDPJAY%2FId5nBdpiQGvAoHYTBaWwFF7A9HqkFBHUV9OsVrvDPrqo%2BQggh5NqSDN6JakBI9Fgh6T3IO0cvB4SpOA7UTYWn8XTHVdW2Oz%2F%2FtlSfe4nvstQCwrJzrNZB2FGPPxpmEF4745d%2F%2FKrqI4QQQq4tQe8dqg4pJnqskAY8KDhHUfRPYX1kvjaDUFtlHM%2Forqq2otf7TlnnXOU6zeA6TMjofUpA8KtHDOMR7DUEhOOI%2FMpJovCxq6qPEEIIubZEvcfMah21WwzSgFvpIPinsBFcwNZ4BDtTcSUgLAgoMxnbVdW25HK9N6lz7XGdplpAKKoBYSu4%2BOZrjhHpbyti7juuqj5CCCHkumoTBly62gxCrw1ivxIQqh2ErfGI8uSzGhBOEmnPVRW36Qm9T9LYj7kOE%2FhaQBjHemAGW6OL2GkYUlRmEKSXrvoxKUIIIeRako3%2B25yuPoMg9ruRd1QDwlw9IMyySkBg0sGrqq3gmPo2SWN%2FgVcDQtboR9E1jvXBywHhYJbD4TyPUix5VmFy33xV9RFCCCHXlmj0%2FxWnc9ZuMQh9LuQcQRR9U1gbnsPmeLi%2Ba2BBQDmRmryKunDrVlvW5Plxqcf%2BMn%2FHCKHDhNzfGRCUa47lWLL8Ymr33VdRHyGEEHKtiXrXH3N9ztqipHpAmMT6iBIQdqbitQebSvFUuNk14dattvSA9xOS1nEkdJggdpiR7LGhYApgxR3CRmAWW8EF7E7EsD%2FN4GCWxdGCgEoi%2FfL99Oqvoh1PNbtGQggh5FqT9O4%2FqAWEHiv4PidythElIAxXjxhitSOGUkzmm11T2hT4RNYcqKy4Q9gaWcDueAR7EzHsT8axPxnHwTSDozkOxwsCShEZp%2FE0KmwOZ0IBd5PF%2B%2Fdza%2F%2Bi2TUSQggh15pk8P47XucEq1EDgs6J7KWAEMZOw5PP5Xgq1cx6cpbxb81Zh%2FZW%2FVPYHJ7H9lgYuxMxHMwwyrbERRHlaBIn8TROmQxO2SwqXB4VPo8zoYAzcQl3k8Xtz%2BfW6TYDIYQQ8g8lGfy%2FUQ0IiR4rOK2jFhDWhuewOXY5IJRiySLa25vSwkcw%2BHRywG3KWYex6p3AxtAstkcXsRuKYr%2B6zXFBwHFEQimWxEkijRMmg1Muhwqfr32diQXcSxX7EMTTzaiTEEIIufZkk%2F9X%2BT61g9BrBae1I2sbxrJ3Qg0Ii5cCwnE0udmsM%2F5lT%2FCDyT73l7JGP4puZRhxc2QeO%2BMR7E7GarMGx2ERpaiMcjyFk0RGCQlsFqdcTvni8ziTll64n9783mbUSQghhFx7st7%2Fs0KfqzaDwGkdyFqHGgLC5Q7CcUTeB5oTENLmwd8Re21I9bmVZ529k9gIzGI7qNxY2J9SrzQuCDgOS7WQUK52Eths7asi5C%2Fuyiv%2FdzPqJIQQQq49Se%2F5Sb7fdcFWA4LGjqx1GEXvJNaGZrE5tojtiagaEDiUo8ljrK8%2F97jrANCW0nucXLcFosaOnCmAomsca42zCJPqrYU5DocLPI7CIo6jMkqxFEoNQeGEyeCEzaIiFsabFWYIIYSQay1p8X2c73NeVFctcxo7MpYAlr0TWA3MYHNUDQjT1SMG%2BS4OD9%2F%2BuOtg2tufSendS0KPFZz6tHPBNoIVzwTWAw1HDRMxZfeButnxaFE5bihFk%2FWgUA0LXHapLMvPP%2B5aCSGEkGsvafD%2BgNDnfJjosYJtCAhF74TSQRhdxHZ1IdEch1JEfvEes%2F6ux13HYbvr7Sm9d6MaEMQeGzIGH5Ydo1j1TirrldUHmnYmYtifYepvMCyKOAqLOIpIOI7KalchiTKT3jlkmMceZgghhJBrL2sc%2F26x3%2FU601sNCDZkzAEseyawpnYQdibqAeEoLL38ErP03sddB4LBp5N6T1HotqK6WlnWOJAzDWLZOYZV32RtQdL2eLhW094MU3sn4mBBwOGCgMNFAUdhCaVEKn%2FIPP5uByGEEHLtyQbfR6R%2B92tsjxVMtwVcjxoQ3CGsBWYvBYRDpYPwxt306u8jGHysVwgBtKUGPAGh2wq%2B0wzujhFchwmyzomcOYBl5xhWvJNYD8xiM7iArbGw%2BhS1suWxGhT25zjsz3PKcUgsOUYzCIQQQsjXSDYFPyjrvVu81gG2xwq22wpeDQhFdwirg9PYCi4oNwimGRzOcTiJpXAuLl2cJ1cGkMs9%2BzjrSRu8%2F1HqtT0UqgHhjhFcpxmyzomsKYAlNSSsDc5gY3hOOf4Yj2B7IoqdyTh2pxLYna6FhYtyNPn%2FPM76CCGEkGtPMA5%2Bo6z3rnC9NiTuGMF2msF2msF3W5A1DSo3CNSAsD8Zx9E8j9NEGhUuhzM%2Bj3Nx6eJuauWvHufSpIxz6ENSn%2BvzQrcFXIcJ3B0j2DtGsJ0mSFonsqZBFByjKHpCWPVPYX1oFhsj89gcXcTWeBhboWpYiGF%2Fln3xKJz%2B8OOqjRBCCLn22tvbn5LNgxahzwle50DGEsCqfwqb6hDg3lQCh7McjpQXEnGaqK41zqHSsLXwXFx6%2FYXc%2Bk88rrrQ3v5USu%2FVShr7Bd9pBtdpAtuhfnWaIWjsSBl8yNtGsOQaR9E3idXBaawNzWJ9ZA4bwQVsji4qD0xNJ%2FrBMM88rtoIIYSQa2%2FZPfaDot77hmzw1t5c2ByrzxpUbwcchxtWGicaFhGpGwsrfB7n0nIy9xiPGlK2wAeSfe5todsKrtMMrtOsBgQT2C4z%2BB4rpD4X0kY%2FcrYRFFxjWPaEamFhNTCD9eG5w43x%2BHc%2BrpoIIYSQGyFlGbQI%2Fa76SuWhWWwEF7A1HqkN%2FR3M8zhcFHEcURYRleNplBPpS9sKT5Xjhgd3U6s%2F%2FDjryxiG%2Fqmkc1X4biv4LjO4LnMtLHBdFnDdFgi9dkh9LqQMPmQtQ8jZgyg4R7HkHr%2B75Jv6eQBtj7MmQggh5Fo7dDFvl03%2Bz3M6B5ImP%2FKuMaz4p2pdhOrOA%2BV5Z762X6AUTdYWEJXV9w%2Bq640rwtJfPM4acetWmzTg%2FESyz3Uo9FiVgKB%2B8V0WcF0W8N0W8D02JShoHZD73Eib%2FPcLjuFfonBACCGEfI1StqkPSHrvQ1Zrh9JFGMGSJ4TVwIzSRai%2BvTCdwF7DIqJjNSSUYkl1W2G69uspl08%2B7hceAbTlLIGfknvtrwpdFuXqY6cZvPpV%2FWex146M0Y8VzwR2JmOF3fndtz3OOgghhJAbIWsa%2Fqgw4AarsYPV2JE0%2BpF3jinPO1ePGtSQsNswj1BdPnQcqW8qPFYDwwmbrTzOOYSqnCXw%2FVyn%2BRX2tgHsZ%2FVgPjsA5nN6cB0mpA0%2BrPqnla2Ks6yycjmeyu3uUkAghBBCvmZJve%2FjwoAbrNYOVmMDr3MibRlCwTWOFf8U1oZn1WuDykrj3SllW2H17YPDRQGHiyKOwhKOIhKOwhJO4unzx70T4datW7dy%2FcP%2FiO%2B2vMzeMYL5nB7sHSNSAx6s%2BKewPRbG3lRDgFkQUIolV5qxBpoQQgi59mS77yOiwQtO6wCrsYPptULodyFjHUbBPY4V%2FzRWh2axMaoMLW5P1LcV7s%2By9aDQ8FWOJ3cBPNbNirdu3bqVMTg%2FJPRYX2LvGMHeNiCt92LFO4mN4Tn1dcd4bVbicFFEOZE6qMzk3vG46yCEEEKuvbQn9L6k0feQ01UDgg1Mrw1iv7shJEypuwXmsamuNN6ZjNXXGs%2BytbXGB%2FMcSpHkUDMGA1P9%2Fm8XNfYKe8cIvsuCnDmAFc%2BEEhDUGxf1IxAR5Vj6uBnvRBBCCCHXHoLBp5OWwCanc4LV2sFolIDAauwQBzxKSHApMwmrgRmsDasLiMbqmwp3p%2BLYmYrXZhSOwslfakatUrfp%2FaLWccJ2mMB1qwHBqwSE6pzEI0cMp2V5%2FZuaUQshhBBy7aWsQ78t9LvBai93EZheG4R%2BF1LmQeQdo1jyhLAyqBw5XAoKDWuN96YTL22GYu9rRp3CHeM3ihr7MdthUjoIpgCKnhA2htQjhoYOwtGiiFIs%2BcK5VHx%2FM2ohhBBCrr2Uf%2F7dktF%2FWu0isJpqQLCC6VUGF5NGP7J2ZVNh0TuhrDQOzGBtWDl62AgqbyDsTEX%2FS7PqjFos7xF77XucGhCyJuWIYX1o9tIMQvWWxXEsefe%2BWPi2ZtVDCCGEXHtZx%2FAviQbPg8uzCNZaJ4HT2CEOuJEyB5Sg4B7HkrrSeMU%2FpRw%2FDM0Ui97wO5tVY84y8w6x177GdZrAdZqRMQ2i6A5hfWgWW490EA4XRRxH5ZfOmOR3NaseQggh5NoD8FTaMvwX4oD7YfVGA9vb0EnosYLttYHTOiD1u5E0%2BpCxBJC1DSNvD2LJOXpS9E19XzNrLAeDz4tae04JCCZkjGpACKgBYTJWfdpZ6SBEk1%2B4K%2BX%2BUTNrIoQQQq69YDD4dNoa%2BJQ44Pkyr3OCU48b2F4bmB4ruF4bWPVXXmOHoHUoDyWZ%2FK8WHKGPNbu%2B%2Bf7%2Bt0k6Z7IWENQOwlpgpr7xsbqjQQkIXzpnsh9tdl2EEELIjSAbfL8oDrgfCDoneI1dCQSNXz02iD02yDoniq5xHMwwX7rHZL6l2XWttwefEzX2BKc%2B%2FZwx%2BlF0j6tHDIv1GYQ5rnrE8GqFz3282XURQgghN0LGEPwWoc%2F1ZabbgkSXGUynCYkOIxJ3jGA6zZDV7YW7UwnlxkBYev0sufRdza6LYZhnZJ1jgetSnnxOG%2FxYdo0rRwyji%2FUOQnVIMSp%2F%2BYRN%2F2Sz6yKEEEJuhJTf%2F26h3%2FUS021BvNOEeIcRiQ4jxD4Xir5J9Rno%2Blrj47D0oBJv%2Fk%2FqAJ4SdI4ZJSAYkTb4sOwaw1pgRrlBMRHF%2FoyytOlwQcBRVHr9hEt%2Fotl1EUIIITfCejD4nDDgPmV6rah2EZIGX%2B0Z6O3Q5a2Fx2HpopzI%2FEyz6wLQxmvsY3yXGewdI9J63%2BUOwkQMe9PKkOLBgoDjiPzgjC00ZWkTIYQQcuMgGHxa1Hu2GXU4ke9zIu8YRdE3pbzuGHrzWuMKk%2FvXTa%2Brvf0pUedwcbWA4MWSawxrg9NqB6ExIPA4ikgPTrnsv2p2XYQQQsiNAKBNNHgzjY835R2jKPqnsDEyr7zsOBXH3ixTDwjx9P%2FV9Lra258SNA5nLSAMeLHkHMN6YKbWQdidTtQCwnFEfliRCr%2Fe7LoIIYSQG0M0eCOsxg6mxwqhz4WcI4iibxJrw3NKQJiMYa%2Fh3YNyLP1fm10TgLak3t3Dd1uUp577PVh2jCodhOACdkJR7KnvQRwuCDgKyw9PuOzvNLsuQggh5MaQTb5RTutQjhh0TuTsI7WAsDkWxs5kvH5jYEFAOZ66cxV1pQY8f8N1WcCoAWHJOVYPCBPR%2BhFD9UVHJv1HV1EXIYQQciPIRr%2BJ1TrUtxgcyNqGUfRNYn14Dlvj9aVE1RsDpVjKdRV1JQc8n%2Ba7lYCQ7HdjyTGKVb8SELarHYTqLYaIdHHCZP%2F4KuoihBBCboSUJXCH0zrA9FrBaR3I2Iax7G3oIEzELnUQSrFkqNk14datNlHj%2BDO%2B2wq2ox4Q1vzT2BiZx%2FZ4pD6DoOxnuDhh0n%2FR7LoIIYSQGyNlHfrP1YDAauzIWIex7J3A6tAsNscW39xBiCYZAG3NrkvUOP9E6LFdsHeMkPvcWLIHseqfqs0gNA4pHoZFnCQyf9PsmgghhJAbQ7IO%2Fjanc4LptYHV2JCxDmHZO4G1oVlsjC5iWz3vP1B3DpQi0jLDMM80u66kzvW7Qq%2Ftgu0wQta5ULAHseJTAkKtg9Bw%2FbLMZjubXRMhhBByY8imwX%2FJ97suqs89py0BLHlCWBuaxeboIrYbflpXOgjyMdbXn2t2XUmN%2Ff9UAoIJks6JgtpBqB0xVPczLCgB4SSRMjS7JkIIIeTGyFiDP8L3ux5UA0LKPIiCexyr6lrj7YkodhtuDJQiyRf2o9H3NLuuZJ%2FjN%2Fle2wO2wwhJqwYE3xQ2awFB6SDsqw82leIp51UcfRBCCCE3QtoW%2FLDY736N1diQ6LEiZaoHhI3gghoQ6gOBxxH5lTO%2B8D80vS6951f5Husb7B0jJK2j1kFYH56rdRDqDzaJKMVTQxQQCCGEkMek6PW%2BXxhwf4lRA4Js9KHgGsPK4DQ2RpUrhY0PNh1FpNcrUuE7m11XUuv8OaHH%2BjrbYYSkcSBvG8Gqbwob1YAw2bgCWkApkZqkgEAIIYQ8JjnLzDuEAc9LrEZ5j0E2KAFhdXBaeY%2Bh%2BtN6NSCExTfOEpkfbHZdXI%2F9nwm91q%2BwHUaIGjvythGs%2BNQV0GNh7KoLnKqzEeV4ag7B4NPNrosQQgi5EdaDweckg%2B9UOWKwQNJ7kHeNoeifwrr6HkNjQDhelB6exNI%2F2ey6%2BM9ZPi50W19hO0xKQLAOY8U3ifWh2UsBoXaLIZ6KI5d7ttl1EUIIITeGZPDusho7Ej1WJSA4Ry8FhJ3GDsKiiJNo%2BleaXlOf96Nir%2B0VtsMIodemBATvJDaG57DVsJ%2BhdsQQT%2FFXcbuCEEIIuREAtElGX4HRKLcYxAG3EhCq7zGM199jUG4MCCjFUv%2Bm2XWljIEfFnrtL7MdJgg9NuSswyh6J2odhEcXOB1H5SzWQQGBEEIIeVySJh%2FLamy1J5%2Bz9hEsN77HMHX5vP8oJv9hs2vKap3fLfTYXmQ7TeB7rMhZhi4HhIlH34hIFiu53DuaXRchhBByY8jmwQlWqxwx8Donso%2B86Lj9yE%2FrJ%2FHMXza9JpPng5LGcZfrNEPosSJrDmDFO4G1wAy2RhcvDSkeLAg4jiZXKSAQQgghj1HKMujltHawGhs4rQNZ24iybnm4%2Fh7DI9sUB5pdU7Hf%2F%2B1ir%2B0u12UG321B1jyEouctjhhmWSUgxJI797e2vqHZdRFCCCE3RtI82MvpHn3RUXmPYXNsEdsTMexNN7TzI8khtLc%2F1cya0nrP%2BySts6QEBPWIwR3CekBZAd04g3CwwOM4miydpNPva2ZNhBBCyI0imX2fUgKC8mBT2lJ%2FsKm%2BbllZlqQMBCYTAJoaEFaMg98o61yHXJcZfJcFWXMARU9I6SCMLmKnoSYlIMhn51Lx%2Fc2siRBCCLlRZIv%2F3%2FJ9zgslINiRtgxhyRNS1i2PLmKruk2x%2Fh7Dcs7S3J0DosPxDZLGcch1Xg4Ia4EZbI4uYGciir0Zpr6fIZo8eyG%2B%2FMFm1kQIIYTcKLLZ%2F7N8n%2FNh44NN9YCwgO3Q5eeVjyPyAXZ339bUmjTB56Ve%2BwbXaQbXZUbGOIhlt9JB2BxdxM5E7PIbEVHpfkXMfUczayKEEEJulKx96J8I%2Fc43qlcdk6ZBLFUfbBqtP9hU%2B2k9It2%2Fx6y%2Fq5k1lYPB50WtPad0EMzImgax7B5XOgjBhctHDEpo%2BfxJLP29zayJEEIIuVGSrqHv4vvdX6kHBD8K7nHlwabgArZCUexM1R9HOg5LXzyJNXcgcLd%2F%2Fm2S1iFznWZwnWZkjH4lIAwqAWE7FMVeQwfhKCJ9scIlf6CZNRFCCCE3ypJr4r2i3vNK9YghafQjr77ouB5cwFYogp3q64lzHI7D4oMXmeK3N7OmnMXyrKh1iGxjQHBdDgiNr0weR6QvnzPZjzazJkIIIeRGyVlm3iHqvS8pAUF50THvGsPKo%2B8xzLDYn%2BNwtCg%2BLDP5jzSzJqadeUbuc3Ncp%2FmC7zQjY%2FBhyTXWEBAiDcceHA7D0qsVJv1jzayJEEIIuVEQDD4tGrxnjHrEIOm9KFx60bG%2BTVF9sOmiFJP%2Bx6bWBLTJOuc812UB12lCSu9TOwjTygxCKIpd9dhjf47DUVh%2Brcxk%2F3kzayKEEEJulGAw%2BLRk8B6yWjuYXivEATdyjiCKvimsj8xhazyC7ckYdmcYHCjLki4qXOafNbMmAG3JPneI6zKrAcGLZdcYVv3T2Gh8hlpdlnQUFt4oRVK%2F0MyaCCGEkBsFQJtk8K4yGjuYXhuEfpcaEJQHmzYbVhurAQHlROrXm12XpHP6%2BC4LuA4TkgMeLLvGawFhWx2crAcE8Y1zvvCzza6JEEIIuTEAtMlGn6h0EGwQ%2Blxveo9heyKG3cZ1y9HUf2hqTe3tTyX7nLZqQEgNeLDsVDoImyPz2G7oIBzMczhcFB%2Be8dnfaGZNhBBCyI0jm%2F0L1YDA65zI2YOX3mOoLSZS1y2Xo6k%2Fa3ZNks7Zx3WZwXaYkOx3o%2BAYxap%2F6i2PGA7D4sUpk%2F03za6JEEIIuVFS1kCA1SrvMXC6%2BouOq0Oz2Gh8j6G6uXBR0jW7Jknn6uC7LGA7lYCwdCkghC8dMRwuChflePJ3m10TIYQQcqOkrcOdnM6pBAStHWnrEJY9E1gNzNQfbGrYO1CKJoebXZPc5%2FobvssCpsMIWe0grPjUgDAWxu7kowEh%2FWv%2F%2ByUAABUsSURBVEfNrokQQgi5UdKW4T9SAoJVfbAp8Mh7DPWAcDjPoxSRw%2B1NfvJZ6nf9Kd9tuWA7jJD7lA7Cim9SGVIcjyiDk9W5iEXx4iSR%2FlQz6yGEEEJunIx15Df5ftcF02sF02u9HBDUdcu7DeuWS1F5BQzzTDNrkvtdfyz2WB%2Byd5SAULAHlQ7C8JxyxNDQQThYEFCKJ%2F%2BymfUQQgghN07OEfwpJSDYwGqUFx0L7nGsqAGhdq2w%2FjjS4e58c190zBj8vyv0WB%2ByHUbIOpcaECaVgDCmBITqXMThonhRjqfuNLMeQggh5MbJekMfFfrdbzC9NiR6rEga%2FSi4qgHhzeuWjyPSfcjy882sKWX0%2F5YSEEyQdU7kbSNYUXczVANC4xFDKZbsbWY9hBBCyI2T841%2Fq9Dvfo3R1ANC3ll9sOlyQDiY43AUll7dj%2Bbe08yaxAHnJ4Ue2xtshwmS1om8bRgr3kmsD1UDQv3q5cECj1IipQfQ1syaCCGEkBtlyzH1DcKA58vVgCAbfcg7L7%2FHUN2muD%2FL4nBRfH0vLL2%2FmTUlBzy%2FJPTavqIEBAfythEUq7sZRuu7GerHHkk3gKYOThJCCCE3Ss6Se1Y0eF6uBgTJ4EXeOVoLCJsNDzbVrhVGuO9pZk1pk%2FcTQo%2FtNbbDBEnjQN5a7SBcDgi1wcl4KsA0eXCSEEIIuVHUFx3vsprqg00e5BwNAWEsrC5LYmpXHc%2BZ7EebWZPY5%2F0pvseqdBA0duStwyh6QrWAUF3eVOsgxOQZAE83syZCCCHkRlEfbCrVAkK%2F8qLjsm8Sa%2BqDTdsTUWUoUFm3fHESS%2F9kM2uSus0%2FKfTYXmU7TBB7qwFh4u8MCOVYapaOGAghhJDHTDb5N1mNHazGBqHfrbzHUAsI1Qeb6suSjmPizzeznqzR931Cr%2B3LSkCwIW8ZxopnAmvV7Y6P7maIJaNYX3%2BumTURQgghN45s8mdYTf3Bpqy9%2BqJjNSCoP7HPMEpAiKR%2Bq5n1CL3W7xV6bS%2BzHSaIPTbkLMNYdofUgLCA7VDk0gzCcVQSKjO5dzSzJkIIIeTGSVoGY9UXHTmdE5mGB5tqP7FXW%2FpzHMpR%2Bb80sx5uwPthUet4odpByJmHUKx2EIL1gLA3q%2B5miMqZSo4CAiGEEPJYpawBD6dzgNXYwGkdyFiH1YCgvMewFYpgd0rpIBzM8zgKi91Nraff%2F%2B2SxnGX7TRB6LEiaw6g6A5hPTCrBoTopeVNpai8eh4Ov7OZNRFCCCE3TtI82MHpHEj8f%2B3dW2xjeX0H8B26F1hYUVjRqqtWAqkVL1AB%2B0jhgVKpEoXSqq2qiqpCQr1Q%2BlIkVAkh8VCxm5sT5%2BL7%2FR7HuTuxkzg5Fx%2BfYzvOdcbJTK5OnJmdDmUr0RV7mZ18%2B3DOcZzZtx2froS%2FH8nKo3%2FJS776n%2F%2F5fY3Cpqo3pfcxJM0%2BhuXWIwZ970ApYuViovJQ4rcVm%2B9%2Be0AwHzGY658PjfXP%2BnZH9eB4ZcXS5U1ERERdp%2BxKfF82Kp%2F1Rsfk9cKmyWX9H7KxC%2BFsuVSAhY2Opb7Ibym2wJnY44Lc50HNlcB2aBL19kcMZkDIimgsq6cXhcqLVs1DRETUlSruxLdle%2FBybcADYcCLijuBzdAkbsbnUDcCQnuD4tlS6WY6nbZs78CxO%2F3xks3fEHuckPvcWHfqAaH9DoI5z4l%2BgtA8XJQ%2FZdU8REREXUnzjX%2FZbHQUBjwoO41Gx%2FaAYJ4gZCU0lkpntVrtGavm2YlEPqoM%2BI6kHifkXjeqzji2g3pgufaIwQgsjSXltQuh%2FLtWzUNERNSVysH4HxTtwUeCzQthwAvNGcNmMIPdtnXLj50g%2FKKZtq7RUenxv1Aa9N2UelyQe91Yd8axHczoAWF88T0nGo2l0v27UvX3rJqHiIioK%2B2Hp14sjoQfiu2NjkZAuDW%2BcFXYZOweOFsqvflAED5m1Tw1t%2FsZZShQk3pckHtcWHfEsB3I4GasPSC09UMsKb%2B4L%2B18xqp5iIiIutK9%2BdrzxZHQO%2BYjBnXsqtHRXLfcXpDUyCtvWnkpsOZ2P1MaCmpSjxNSjxPVsZj%2BiCE2awQE%2FUTj8Kph8pdNYeP3rZqHiIioK50GhQ8rY%2BE39UcMZqNjBjvRGdRTC9gzGhSP5gQczQto5IrvNGT5d6yaR%2FjpT59Wh%2FySeYJQHYtiK5BpBYT9jH6i0QosOeVXTan2eavmISIi6kqCIDytjEX%2FRzTuIJRGwnrls9nHMHF93fLJooy7OeWzVs0D4IZqD6xIPS5IrzpRGY1iyz9x7QThcGa1tU3xNK%2B8eSFUv2DVPERERF2r5Ig8EAd9EPrNyue0HhBa65avL0tqrGpfsmoWPSD4c1KPC1KPC5XRSCsg1FMLuN1%2BgrAg4TSvvN0olCxtmCQiIupKmiN2YhY2FYdDemHTtYBwvY%2FhYrXyNatmAfChks2fkXvdkF51ojxiBIRoW0Aw7kQYJwjvnBcqX7FqHiIioq5Vdsc3xEG98lm2B7HeVti0N3F994C%2Bbln9ayvnUe3hiNxrPGIYCbcCwt744vUThKyI05z87plYtrSCmoiIqCtV3Mmc2egoDwWw7k1dBQSjj%2BGgbTnRxYr2L1bNAuCGZg8E5F43xFccKA%2BHselLY9e4NPmeE4Rc8dHZavWbVs1DRETUtareZEgc9BuVz3qj4%2BN9DGZAOFmQcJorvmLlPKo9NCr3uiG%2B6kB5RA8IN6Mz2Hv80mRWxMli8dHFWvVvrJyHiIioK617U%2F8pDfkhmI2OHr2w6T3rlueMgJBXglY2Oqr2gM28g6ANh7DhHcfN6Azq5p2I1lsVekA4Wy7%2FvVWzEBERda2KJ%2FnPUlujY9WdxFZoEruJOdQf316YFXG2rBasDAgle%2BjHcp%2F%2BiEEbCmLDO47dyFVAOJg2K58FnOSKl81V7XtWzUJERNS1qq7EN6UhPwSbHhDKrrgeEOLXA8Lh1brlLfwUllU%2Bq%2Fbgf8h9nkvpFQc0%2B%2FWAcNs8QZhtvXZ52Vip%2FMCqWYiIiLrWRjjzh7LdPEHw6o2OwclWYVP7mwNH8wLOlpRzKyufFVvgB3Kf%2B9I8Qdj0jmMnPN0KCK0TBONOxHmh%2FEOrZiEiIupaFW%2F6M%2FJwEOa6Zc0Zx2ZQ72Oop9oLmwSzj%2BG%2FIeBpq%2BYpDwW%2FX%2BxzPxJfcUAbDGDDk8JueBr1RBb7Ezl9cdPsKo7nRZwsypcXq5UfW%2FnIg4iIqCvtxuOfkO2Bq4DguCpsqj9W2HQ0L6CRV99uqtZVPmv2wD8U%2BzwPZSMgbLYHhLS%2Bl%2BFgRr80ebwg4Wy51MOAQERE1GGKf%2FaF4khIDwj9HqhmYVNsFreSWWP3gP7cXy9IKuL%2Bzs5HrZpH7vH%2BVbHP%2FVB6xQHV5m87QZh%2FLCCs4WRBwtlKaRiw7k4EERFRV1ocHn5OGQ2jVfk8GrkqbEpmsT%2BxhDtTyziaW8OxsU2xmVc%2FadU8ypD%2FW8U%2B10P5VSdUm18%2FQQhNtQLCwdQKDmdW9VmyEs6XVZ%2BVdyKIiIi6EoDfUMbCb%2BrbFM3CponHCpuu3hw4XZRxrigvWTVPeSj4J3Kv%2By3pZw6UBnzYcCexYwaE8UXcMd6qOJ4zAsKKOm7lnQgiIqKupTmjvzQrn4vDQdR86Wt9DLeNi4HmmwPNFfXzVsyBp566UbEF%2F67Y63oo%2F2wMWr8PG64kdoKTqMfnsT%2Bew53JZRzNrOJ4TsCpXh5150F5%2B494D4GIiKjDSo7YudnoqAwHUfMZhU2JeT0gTF4PCBZVLN9Yd0S%2FpQx475X6vajaQ6iNRbHrTaMensF%2BcgGHmSUcz6ziNCvhPK%2FgolDGXXEd94obF%2FfVnT9mSCAiIuogzR3faVU%2B24N65XN4%2Bnofg7EL4WRBwumS%2Bu1Oz1B2xF%2BuuZPnu%2BEp7CcXcHsij8OpFRzNrOI0K6KxKOMsr%2BB8WUWzoKG5WsHFWhUXa1XcFdfxWnGz8WB9%2B4udnouIiKhrqY5YVg8IHsiD%2FlYfw83E3HsCwnFWxFlB%2FadOfn89LXxsw53I7YQmL2%2FFZrGfWsAdMyDMruLksYBwvqKiWSjjYq2Ci7UKmmsVXAhV3FM2lnB6%2BuFOzkZERNS1NGfcKw76IA54Idl8eqNjyGx0XGwtSzIDQnO59Gonv3%2FdEf1WzRF%2FazswgZuRGewlsridNu8bFFr3DU5zRTSWSkZI0NAslHG%2Bqn%2BaaxU0xfW3f17a%2BkYnZyMiIupaZXfyJ1J7QDAKm27G57D32Lrl43kRZ8ulSKe%2B%2B3B4%2BLmKI5IuD4ew6R3XX2mMz2E%2FtYg7mSUcTuunCMdZ0aybRmOphLNlFWcrGs5WNJwXND0krJbxmlzLdmo2IiKirlZ2xb4jD%2FkhDngg2ryouBLYCrYVNmWWcGd6pbUL4XxJzXXqu5WR5EvqoL9RsvlQcyWwE8i0ThHMtxYOpgv6d2dFnC7KOM0X0cgrelBYUds%2BGi7Wqg%2Baat2yPQ1ERERdo%2Bob%2F2orIAx4UTH6GHbNPgZjm%2BKReYKQL2126rvXneEvlmz%2BN%2BU%2BDyojYb2cKTSFW7FZ7CUXWo8a2kNC6yTBCAmnSwoayyX9s6Jdngvrn%2BvUfERERF1r3Rn5nDTohzjghdjvQdkZw2Ygg93oLPbGF7E%2Fkdf%2FQc%2Bu4XhOwHm%2BdBe12jOd%2BO6KM%2FI1xeZ7KPe4UBrwYd0Rw5Yvjd3wNG7F51A33mi4Ko1aw9G8qAeFRVn%2F5Io4ycmtxw%2F3pOpXOzEbERFRV9sKTn9atvkeCX1uPSA4YtgMTGA3OtP6B31gvlEwL%2BI8r%2BC%2BsrkC4IlXHK874l9XbP635R4Xij0uaENB1FwJbPknsBuZwa34vB5SWicJet3z4ZyAo3m9sOlkQcKx8TnJFXG%2ByoBARET0RBS%2F%2FwVlJPSaPOiH1O%2BB2OtCeTSKTV9avwuQzOLORB4Hk8s4mRNwliviwthBcE%2Fe3Mbh4XNP8v3aaPRL6qD%2FDbnXDanHiWKfB9pwCDV3EtvByVZIqKcWsJ%2FO6fchplb0S5OzazicMz7zRmDIyQ%2FPl0p8xEBERPR%2Bqen0R8rueF22%2BaAY%2F5Q3fWnsxef0Z%2F8TSziZF9BYLOJ8qYSLQhnNgv62wMVqBc3VCl5TNhefZIPhpj%2F5kmoPnukBwaWHhH4PyiNh1DwpbAcz2IlM42Z8DreSWeylc8Z2xyXcntLvJhzMrOLOTAEHs6s4yor%2Fe7xS%2B3gn%2F05ERERdpeyO%2F0QZi1xuR6ZRTy1gL72IO1PLODTLkNouA7bvHmiultFcrehBYa366EFp%2B7vvd4Z6Ov2sNhKOF%2Fu9kHpcEHucEHuckNtCwmYgg%2B3wFHajs7iZmMet1EIrKOxn8tg3wsLtqWUczQsrnfwbERERdZWt4PRvqo7o6zWj2rm1FCmzhINp%2FfjefK2wkVdwtlTC%2BYqmfwoazgtlnBsnCnfF9eYDof6x9zMHnsINdSz6p8pg4A25zw2p1wXRCApSvwfqcAhVVwIb%2FglshSaxHZnGbnyuFRTq4wuojy9iL72I%2FUz%2B0cHs2l92%2Bm9FRETUNcru5L%2BWRiOXVW8KW%2BEpfedBagH7mTzuTC0bbwzopwgn5u4BY%2B%2FA%2BYrW%2BtksaGgWyu%2F%2BV3HjL97vLEIw%2BGFtJDRbtPkg9bkh9rog9Log9roh9XtQHApAc8RQ9aZQ809g0wgKO7FZ7MRm9cCQzF7up3Nrp0GBq5aJiIjeL80VL8j2IMoufedB%2BynCvrEY6XB2Fcfz4lVIyBXRWFJwZjxuOFtWW5%2B7QsX3JPOs%2B9OfVYdDh7LNp1%2BW7HND6HPrP%2Fs9kGw%2BKMNBaM4Yqp4kar40NgJ6WNgMT2E7OnNRTy98oVN%2FHyIioq4DQXhadUab0pAfyki41d64G5vFrVS21b%2Bgh4Q1%2Fe2ArP464UnOPE3QlxQ18or%2BCGJF3XrSumXNEf%2B6OhI6Lg76Idl8EPs9V58Br74KetAH2R6AMhqG6ohCc8VR8abub4Umv8G6ZyIioidQc88%2FX3JEX5cG%2FZCG%2FCi74qj5063n%2B7dSC8abAsutk4SjeUFfUGTsHWgtKDJOFs6WS8eHi4tP9MojgBtlb%2FplbSxaUIaD78qDfkiDPog2%2FWPOKw35IdsDkEdC72ruWGnDO%2FEVhgMiIqInpPj9L5QcsdelIT8EmxfF4SAqrgQ2ApmrkJDMtl4nvDN9tXfgaF7AUVbfZNj6LEho5JVD1OvPdmK%2Bui%2F9ybI7%2Fo%2FqWLRaHA29VRwJvSsPB1EcDl0qI6FHymj4VyVHZFvzJP5tM5D%2BVCe%2Bk4iIqOvV0%2BlnNWesKQ0FINp8EGxelEbDqHqS2AxmsB2duQoJ5p2E1s6BgrHJcA1Hc4L%2Bc17A6aK8CeBDnZxTTac%2FsuFNv1z2pf627E78UHPGflR2xL6j%2BWJfLjrin%2BCpARERUQcBuKG6YyXZHoRo82HNaHEsjUZQ9aT0kGC%2BTpicR318AfsTeexP5FuPHQ5mCvpyImNB0UlOGrd6ZgYCIiIii1V84z9SRsOX5mOGtX4PRJsPyohxkhDIYCs8pb9GmJjHrWRW3zdgLifK6GHBeATx6HBB%2FvMP%2BnciIiKiJ1QJT71YHA2%2FIQ359ccMA16s9bshDHigjIRQcSWw7ksbOwdmsBPTtxheLShaxF46h3o6h9tTy417tdrzH%2FTvRERERB1Q9iSGZHsQ7SHB%2FMj2INSxKKqeFGr%2B9LXlRLuxWewm9McPN1PZy%2F1M%2Fgcf9O9CREREHVJP15%2FVXPFT2R6ANPh4SNDvJSgjIX2LoSeJdV8aG4EMNkOT2ApPYTsyje34bPWD%2Fj2IiIiow7Rg8tOqM%2Fa6PHx1ktAKCjYvRJsX4qAPsj2I0lgEqiOGsjuBiieJdX9q%2F%2BeK8sIH%2FTsQERGRBXbj2U9ozviOMhK%2BbH%2FkIA7qn%2FYFRZI9gOJo%2BN2SIyorPX6GAyIiol9nqNWeqXhS%2F64646fKaPihPBKCbA9Asgf0rYXDQSij4XdKjsjtsjf1XUEQnv6gZyYiIqL%2FJzuRyEcrgdSfVTyJAc0Vn1NdsULZnZysepI%2F03zjX2YwICIioqfw1FNcTkRERERERERERERERERERERERERERERERERERERERERERERERERERERERERERERERERERERERERERERERERERERERERERERERERERERERERERERERERERERERERERERERERERERERERERERERERERERERERERERERERERERERERERERERERERERERERERERERERERERERERERERERERERL9O%2Fg8TaYXd4Er4dQAAAABJRU5ErkJggg%3D%3D%3B%22%20vertex%3D%221%22%20parent%3D%221%22%3E%3CmxGeometry%20x%3D%22287.19%22%20y%3D%22192.5%22%20width%3D%22136.86%22%20height%3D%22136.86%22%20as%3D%22geometry%22%2F%3E%3C%2FmxCell%3E%3C%2Froot%3E%3C%2FmxGraphModel%3E&lt;/span&gt;" style="rounded=0;whiteSpace=wrap;html=1;" vertex="1" parent="1">
          <mxGeometry x="296" y="316" width="80" height="30" as="geometry" />
        </mxCell>
        <mxCell id="l9aSFqAme1yQ4oTrggSr-4" value="" style="shape=image;verticalLabelPosition=bottom;labelBackgroundColor=#ffffff;verticalAlign=top;aspect=fixed;imageAspect=0;image=data:image/png,iVBORw0KGgoAAAANSUhEUgAAAggAAAIICAYAAAAL/BZjAAAgAElEQVR4nOzdeZRk6Vke+KpuNVoRIBiMBZJBZswMi4+xZYMxB3zAYB97wDOe8XiGOWPLxgbbzGAYc8BYWLS6uyrXyD32LWPJLXLf97hr3NgjMiIzct/3zMqs6kUSvVU+88e9ERlZ3UiilwpV6/mdc0+p1equ+0XonHzq/d7v/W7dIiIiIiIiIiIiIiIiIiIiIiIiIiIiIiIiIiIiIiIiIiIiIiIiIiIiIiIiIiIiIiIiIiIiIiIiIiIiIiIiIiIiIiIiIiIiIiIiIiIiIiIiIiIiIiIiIiIiIiIiIiIiIiIiIiIiIiIiIiIiIiIiIiIiIiIiIiIiIiIiIiIiIiIiIiIiIiIiIiIiIiIiIiIiIiIiIiIiIiIiIiIiIiIiIiIiIiIiIiIiIiIiIiIiIiIiIiIiIiIiIiIiIiIiIiIiIiIiIiIiIiIiIiIiIiIiIiIiIiIiIiIiIiIiIiIiIiIiIiIiIiIiIiIiIiIiIiIiIiIiIiIiIiIiIiIiIiIiIiIiIiIiIiIiIiIiIiIiIiIiIiIiIiIiIiIiIiIiIiIiIiIiIiIiIiIiIiIiIiIiIiIiIiIiIiIiIiIiIiIiIiIiIiIiIiIiIiIiIiIiIiIiIiIiIiIiIiIiIiIiIiIiIiIiIiIiIiIiIiIiIiIiIiJ6TwC4Xel3ICIiogpCKPT0g8zyXznXCv/oPFX43cvs2rP3Fzb+6KX81m88KOz8DRwcfJSBgYiI6NtEKBR6+lhJ/60jKek+VjK7J5HM10613MPz+OLD8+QSLjMrr9/PrV0+WNxUXl7e/k3svfg9DApEREQfYDuD2e/enpJe2J2OnO3Px64OhQSO5DRO1CxOozmcxRdxL1nAvfQyLrOreJBbf/3Fwrb40vLOzzIkEBERfQAVQlOfWumfDq4Ph1/fmpCxOxPBQTiOIymFEzWDU20BZ7G8HhBSy7hIr+Ayu4b7uXW8tLR59NLy7j8B8FSl10FERETvkdz09MdT3p7gYvfY1erADDbHROxMqdibi+JQSOBYTusBIZrHeWIJ95IFXKRXcJFZxeXCGh7kN/BSYfvklc3dX6r0WoiIiOg9AOB2wt3znzVr8M2FwBBW+qawMTyP7QkZe7MaDoREWRUhh/P4Is4TS7goVRH0kHA/t4GXCjtLLx0cfKrSayIiIqJ3qeAf/WzEEjhX23zIePtQ6BnH2uAstsYk7Eyr2J+PlaoIJ5GsXkWIL+oB4ZGQ8CC/cfXK6u4X2Y9ARET0BANwO+7s+q9yi/dKbvYg4ejGYscIVvumsTESvq4iGL0Ix0oGJxG9F+HmVoOx3ZBdxYuLm5svrx1/X6XXRkRERO9Qzj/9cc0aSMtNHoiNLkTa/Mj6BrDcM4G1wdnrXoRZvRfhSE7h2NhqKIaE87KmxYvMKu7n1t54cWX7Vyu9NiIiInqHkp7+z0XM/lekJjfEBifkRjcSjm7kO0ZKvQhb4xJ2pyP6VoOY1KsIxWOP5SEhWcBFahmXmVXcX9z6Y24zEBERPaGi1q6/r7b635Aa3ZAaXBBNTkSMXoSlrjGs9s9gY1jfatidiWB/LobibIRjNYtTLYfT6HXjYvEI5P3c2hCPPBIRET2hko6efxBp813JjW6IJieEegekBhditg4s+AZQ6JnA6sAMNkeFUkg4mI89st2wUKomnMX0oHCZWZ0D8HSl10dERETvQNrZ+Utqa/vDYkAQ6x0Q6h2Qm/SGxVxgGMuhSawNzGJzVMDOpKJvNxQrCaXGxSxOIws4M4LCZWZ5PBQKMSAQERE9iRKOzp/Q2nxflRvdkIoBoc4O0eSE2tKOlKsH+eDNkLA9IRshIaqfbhCTejVByeBYzeBEW8BFotDEHgQiIqInVNw38L2RNt/+owGhGBIire1IuUJY7BjRQ8JgWUiYUrE/G8XBfBwHQgKHYlKvKKgZXMRz/6rSayMiIqJ3CKHQ0zFrsFNt9kA2uSDVOyDVOyDWOSDW64/W6kPaFUK+YwTLoQmsDcxgYySMrXGptOWwZwQFfaBS5sGLyfznKr02IiIiehfizs5f0lp9byoNLsgm53VAqLNDrLNDMjkRafUh5exGPjCE5Z4JrPZPY31oDlujIrYnJOxMXfcmHImpzlQq9Uyl10VERETvgtYQ+mjcEhiMNHmgmJyQ6x2Q6x2Q6uyQ6hyQ652QTU6ozV4k7V1Y8A1gqXMUq71TWB+Y1WclGNsOe9Paxb6Q/MlKr4mIiIjeAzlL4MdiLb4drdENpd5pPA7IdXpYkOscUExOqI1uxM0BZNy9yAeGUOga04PC4Cy2RoXXd6bkP+TxRiIiog8ICMKHko5OX7y5HVqDG5F6J9RHH5P+REwuaE1epKwdelDwD6HQOfrmWu90y8bExocrvRYiIiJ6lwA8lfT0/INom39XbfEi0uhGvMmLeKMHUZMLWr0TWr0TkeKvJhe0Bhc0kwtagxvxFh+S1o6vLXr7n90RhI9Uej1ERET0LqXs9mc0W6BObfa8Kdc7EGnyQDY5odQ5EG9wI9noRaLBg3iDG3GTGzGTS38aPEg0eZFs8b2etXSIaWvnL3HmARER0QcAQqGnNXvQrTR5rsRaG6RaG9QmD5R6B5RaO5RqK7QaO5ImN1INHqQbvUg3tetPsw8ZSyd2x+XOjYkJbikQERF9UMTs3b+ltHivxHoHwtUWiDU2KEb1QKmxQa22IVJlhVZtQ7TKhli1DbEaO2K1DsRNLix3jOAyvXLxSmHvxyu9FiIiInoPZFz9fyViDrwhmZwQam0IV1sQvmuGXGeHUmuHWmODWmVFpMqKaJUV0WI4qHEgXu/Cgq0L+zMa7mdW8WJ+cxICPlTpNREREdG7lLB3BZRmD4R6RykgzN9pg1hlgVxtg1KthwPNCAixajviNQ4k6pzItAaw0TeNEzGJy/QKHiysvX5/YevnK70mIiIiehdS9tGPaZbAK1KDS79zocaGcJVeQQjfaYN4xwylqhgQbIhV2RCvtiNR40C60YsV/zD2RkXci+VxkVrGRWYFLy5uudikSERE9ASLu7s+r7a2vymanEZAsJa2GMJ32hB+oRXiC21Q7pqh3bWWAkKy1oklZy92hwWcyhnciy/hIlnARWoZl9m1Zezs8IgjERHRkypp7/p9pdl7JZmcEI2AIFRbIVRZINw1Q7jTBuGFVgjPt0B8rgXKC21ItQaw2TeDo/k4TiMLONNyOI/lcR5fxL3EEi5Syy/fy6x+utJrIyIionco7ug0yU1u/abGOjvEGhvEGivEaivEKjOEu2aId9ogvtAK6U4bEq0+bA3N4yicwLGYwomSwamaxZm2gLOoHhTuJZdeu0iv/4+VXhsRERG9QylHt1luNK51rrNDqrVBqrEZAcEC8a4Z0l0z5LtmJJp9WAtNYn9KxeF8DEdCAidSGsdyGidqBqeRLM60HM7ii6+9lF3+7yu9NiIiInqHovbAv1WbPFdSvQNi7c3qgVRlgXTXAvmuBdEGD5aDI9gaCWN3QsbBjIbDuRiOwgkcCQkcS2mcyGmcqlnciy2+/Epu8/srvTYiIiJ6h2I2z4+rzd43pTqHvr1QbYVUbbkOB1UWxExuLHr6sR6awvZQGDujIvYmZBxMaziYjerVhHACx2ISx1IKp1puBanUM5VeGxEREb1DhVDhO2Jt/q/IdQ59e6HaAvGuxdhW0MNB3tWLje4J7A6FsTsiYGc4jN1REXsTCvanVBzMGEFhLobDcAJnaraNxxyJiIiecAlLwKKYXJBrbJCqLBDvtEG404ZYkxfLnWPYnVRwJCRxpmZxL5rHvVgeZ2oW++My9sYk7BeDwnQEh3PxV0+F3E9Wek1ERET0LhVcoU9pTZ6vKHV2vSmxxgq5zoG8bwDbIwL2ZzQci0mcqlmcR/P6UcZkAReJJRxOa9gdEbA7KmJ3XMLhTLSH1QMiIqIPiIS14wuRBtdDqcoCpdGNSIsXy93j2B4TsT+r6b0FahbnsUVcJAqloUj34ovY7Z/DVv8stoeF/YN57QcrvRYiIiJ6D0Wb2xu0eudDpdGNmDmA1dAktscl7M9G9YAQWcB5bBH3ygLCRWoZO4Pz2Owcv78xOPv3K70GIiIieo9BED4UafKalSY34tYgVnunsDMu4WAuhmMphTMjIFwkbwaEjeDo3qK56+cq/f5ERET0Pok1t/9rpdGNpK0Ta33T2JmQ9YAgp0sVhGJAuEwv4zK1/MZphE2JREREH2iaOfAHcqMLKUc31vpnSgHhRE7jTMvhXnzxRvXgfmbltZfX1r6v0u9NRERE75/b0db2F5RGN9LOHqwPzGJ3QsbhfFwPCJGFtwSEi/TKq/dTW99V6RcnIiKi9wlu3bqttXjdcoMTaVcPNgbnjCOORv9BNF86wXB5XUF4BcB3VPrdiYiI6H0C4HbUHOjJuHuxMyHjSEjiVMnovQfFcJBaxv3sKi4zK7hILeMyvfIyUscfq/S7ExER0fvkpSntU1vD4dzedAT7c1EchuM4llI4UTM404yrnBNLuJcs4DKzgsvsGu5nVo8AfKTS705ERETvg9WumU+vDcyebY4K2J6QsTsTwUE4jiMxiWMlg1NtAWexPM7ji7iXLOAivYzLzAoeLKy/8eLS5r+r9PsTERHReyzV3v1Xc4GhF1f6prAxPI+tcQmlKoKYxLGiH3E8i+b0gJBY0rcXMitGSFh748Wl7X9b6XUQERHRe+TYPvqxmK1zIdvej+WeCawPzmFzTMTOlIL9uaheRZBSOFGz11UEIyCUQkJ2FQ/yGy9dFHZ+ptLrISIiovdAwhb840hr+5spVw+Wusaw1j+DjeF5bE/I2JuJYH8uhkMhgWM5jZNIFmfRsm0G/ZhjeUgQcXDw0UqviYiIiN6FvGXse2Jm/7ba6ELC2oF8YAgroUmsD85ha0zEzpSK/dmyKsLb9CLcu56HgPvZ1ddeXNz+lUqvi4iIiN6FqNn/a5Em9xtaowex5nZk3b1Y6tSrCJvDYWyPy0Yvgl5FOJLTOFEzN7Ya7iWXroNCegX3c+ud2NnhqQYiIqInVdwWbNGaPFeayYWIyYWUtRN5/xBWeiawPjCLrVEBO8ZWw8F8HIdishQSTiILpe2G8/iSERYKuMysvvlifiP60tLW77+YX/8cgKfe7veGdvDRC63wd86ThX9znlz+4kVm+Y8eZNf+1SvLmz+JAgcvERERVcSxkPq+pa5ReaVnHDlPHxKNXsSb25F1hVDoGMFq7xQ2Buf0kDCpYG9Gw8F8rCwkZI3GxRzOYnmcxRZxFl8sDVK6v7B29SC/8dJLixsjLy1t/h/3t/RxzC8qyvechOM1R0Li8FROv3EWyV6dags4j+VxkSxcXaRW3ry/sL700tLW72F19Tsr/TkRERF9W8DGxod356L/12E4vnAwH394KCRxKCSxO6kgbQ4i1RZAztuP5a4xrPZNY2NoHltjkhESInpIEBI4klI4VjJ6UIgslILCeWIJl+kVXGZWcZlZxf3sGu7n1q8e5DZOX8xvdh6LyfP96QgO52I4EZKlOx7Oo3nciy+VHaFcxYPFjY2vLu/+zUp/ZkRERB9YCOHpg9no3z8IJyYP5uOvFn/In5RVA/amVKRbA0hbO7HoG8Ry9zjW+qf12QhjInYmFezORLA/H8OBkChVE46UdCkonMXyek/CjVMOq7jUqwr6k13FmZLFSTiJEymFUyVrTGpcxL1EAfdShVLIuJ9bf/Xllb1fq/TnR0RE9IEC4PaZkvzc4XzMsz8fe+lQSFwdGcOPrisAWZxGFnAayWJnXEK80Yu0vRt5/5AREmZKA5S2J2XsGkOUitUEPSikShMXz2OLxkClsqCQWi5NX7yf1SsLF4klnIopnMqZsirCIi5SN8PFg9z66y+v7v29Sn+WREREHwhrgvB9B/PxPz2Yj52VgoGcxnHpT/zFYKBvEZxGsjiR08g5exBt8iLjuA4Jxe2G4ijmnSkFe7Ma9ueiNyoKxWrEmaZPXjyLLeI8cd3EWHZNNC7TK0ZASONULZuxkLg+GVHcqniQWz8H8EylP1MiIqIn1sbGxof3hcS/OJiPrR+Gkw+PxKTRM2CcQFCvg8FJJHv9GD/cd8dlROtdiDV5kbJ3I+8bRMHoSVgfnMPmiIDtcb0vYWdKxd6Mhr1ZvaJwJCZR+v2M4UrFrYfiiQc9KOhh4VzL4UQsuzUy9uggJiNMZFfxYmHrbqU/WyIioifSXlj5W4fhmLJf/GFd/EGt3AwG5Y8eDDI4ltM4klLYn4si2dyOSJ0DkUY3krZO5NoHsNQ5ipXQJNYGZrBuVBO2yoPCrIa9KbW0BXEoJFCsWpyomVKlojwsnEUWcCwkcSymcFo+zrk4iMm4GOoivYLLhfX7lf58iYiIviUghKfPYot/6VzL/aPz2NLvXCSX//Aivfw7DzIbv/i1tYMfRArP4NlnnzqY0n70IJywH8zFHpZOGZSCwSPhQCurHqgZvR9BTuNITOIgHMf+jIakOQi11g6lzgG1wY24JYispxf5wBAK3eNY6ZvG2sAsNoaLQUHE1qigH40cEbA9LpeqCwdz170Kx0ZTZPHyp1M5g6P5OI6EJI4lY6vBuFr6zLhe+jypPxeplTdfXNz6fKW/EyIioorZEYSP7Ifj//BQTIweSsnLEyX95rGaxVk0d3UeX7y6l1h64zKzcvhgYd1zmVisOxYSFwfhOMrDwXFZ1aBY6i/fTigFAymFQyGBg3AcezMadicVZFw9UKptUGptUOocUEwuRFt9SDq6kW3vx2Jw2AgKU1jrn8HawCwWPL1Y9A9iuWsMa4/0LOxOqdif1fSBS2XveDQfx8GMpoeERwLEabGHIX7dx/BgYe1Llf5uiIiIHjsAt1dHpB/ZGpc7dyaVr+3NatifLx91fD2cyJgZcHWZWcVFsqBXC95mO6HYjHhdMcjoxxOlFA6FJA7m49ifi2J3OoKdCRkbQ3OINLqhVFuh1Nig1Noh1zugmJxQmzyItvmRcnQj6+1DPjiMQnAYqWYftDoHtAY3EuYAsq4QloLDWOmZuD4FMSZipxgWZjQczsWwNy5jb1LR/7pYSSiuobglETWGMcUXcZFZ6av0d0RERPTYrYRG/+7KwEx+YyR8tTUula5dPhQSOHz02uWyC5MuM6tG059+XPHUqBIUjy/qFQN9O+FISuGwuJ0wF8PudATbkwq2xkSsD8wg7xuAdNcM8a4ZcrX1equh3gnV5ITa4IbW7EWiLYC0rfNB3OR8NVbrQLTWoYeEeic0kwvRJi+S1g4sePqwFBzR+xf6Z7AxNI/tMQk74xI2B+ewPSpib1K9ntZYXgVRM3rA0fSKwr1kYbjS3xEREdFjlbL3/Q8Z38BCITSBtcFZbI4J2J6UsVcszRvzC061snsQiscHiwOJUis4MxoPi8HgRNEbEI+lFI7EJA7DCezPxbA3o2FnUsHWuISNoTks90wg6+6FWm3D3BfrIDzXAvGFVkh3LZCrrJBqbIiYnEhaOpDzDWJraB7HcvpOxtb1+URTe2OqybsVa3A/jNY7odU7EKl3ImLSQ0W0pR0pWycWvP0odIxirWcSq93jWA9NYXNoHtujYuneh/25KA6MBscj41hm8WjmeWLRU+nviYiI6LGJBYOfjNk7h1Pu0FW+cxSrxgTD7Ql9MNFe8VRAqYqQe+u1y0a3/0ViCadqWTiQUjgSjT6D+Rj2ZjXsTKl6MBiex2rvFPK+QaTsXV8V/7QR07/3Zcz8wQuY+5N6zH+5CcKdNmhNHix2jGBzRMDBXFTvF1AyuEyv/GlxDbk6/8cXWjv+YbrF7080+45jjcWLoJxQ6x3G40Ss2Yu0pQOL3n6sdI5ivXcam0PzpcuhdqcjKG6tXPdV6GHhPLH4nyr5PRERET02AG5rto5/GWnzfy1m68BCYAiF0CTWh+awWbwsaVbDflkV4cQ4BXCjipBa1rcb0it6z0F5A+J8HPuzmr6dMCFjcySMtf4ZLAaHseDtw9aocHUkJhbCX6p/OPWfX8D0f6nG3JcaoNTYkHX3Yn1gFjuTMvZnozgIx3Ekp3CiZnCZWv5vb7emjZbgJxOtvudiTZ6rWKMHkXoHIjV2qFVWSM+1QKu2IW0OYtE7oFcUjMuhNkfC2C6b2KgPYzKCgph8/SS68sOP+eshIiKqjIJr6lNRWzCstHgRafMh7e3DUtcYVor3IIxL2J1WsT9386Kk4r588ZKke2VB4Ty2iGPRaECcjWJvJqJvJ4wKWB+cRaFrDFlPH1Z7p3AkpfRjhZHsm8KXGq5m/ks1Zr5YC/GFNqTtXVjpmcDm8Ly+BTAbxWH4upJxL7H03J+3roTZ+wNareNl9flWyM+1QPpyM8RnmyB9uRnyC22I1NqRNAeR8/ZjqWMEq6FJrBtHJ7dGRWxNyNdBYUbDYTixhmeffdvro4mIiD5wop6un1Hb/A+kJg+kJjcSji7kAkNYDk1gbWC2dFRwb+btTjTo/QjlxwHvJQu4SBZwNB/H/nQEu0YD4sbQHFZ6JrHQPoDF4DD2ZiLGiGP9oqQTJYPws42Y/WId5v6bCUq1FRlnD5ZDk9gYDl8HhNJWRwb3koVnv97a4s0+v3rXDPm5Fshfbob0XAuk51shvdAG+a4Faq0dibYAFty9WAwMY7lnAqt9U8aMhTC2xkT9Dogp5epAjP8vj+krISIiqrykveO3lNb2N6UmN4QGJyJtfmS8fch3jGC5dwrrQ8YRQWNaYalhsXxmQPHug7L7DI7CCWyPSdgcDut9BoEhLHj7sDkSxqGQwImS0QNCZEEfeaxkIDzfitk/qcf8lxqgVNuQcfZgpWei1A+xN2s0EBoB4SK1/Cdfb22ay/WpaL3rQrlrhvJCG+QX2qDcMUO+a9abH6utkGvtiDZ7kXJ0lyY2LvdMGMOYZrA+PI/NMSnN6gEREX3bsP+W/ZmkrdOktnivxEYXBJMTUpMbcXsnsv5BFHrGsdI/jXVjq6EUEozmvdJApLKjgHpFII+jcBzrAzModIwi6wqh0DWG3SkVh/MxHAkJHIt68+KxmNT7FcQkxBdaMPelBsz/aSOUGhsyrhBWQ5PYMLYY9mdvNkveSy19+eutD6HQ03FzYEurd0KpskC5a4F81wK5yggH1VZI1VbIdXZ9GFObH2lXDxZ8A8gHh7HUPY7V3qn7+THlex7Xd0JERFRxAJ6KmQM2udkDscEFscEJ0eSE0tKOpLMHueAwCj0TWO2fwcZIGMXZCPrlSHol4bB0EVPZ7AMth8NwAnl3H7LePqwNzGB7TMLu5PWQooO5GPanI9ibjuh9CtMRiM81Y/5LDZh/thFKrR0ZV0ivIAzN39xiMKoXl+mvv8WQ8oZ+Kt7mfzXW0g7N5IJaY4NabYNaY7sewlRjg1xrh1zn0AcyNboRbfUhZg0i5Qq9sjMofPdj+jqIiIi+NQB4Km7rbFGaPJAaXBBMDggmJ8QGFyJtfqTcvch3jOghYWAGm8WQUDrZcN24eCSljLkB+tbB3pSKfPsAVnqnsD4wi62RMHbGJexNqdibUrEzIuinBsZE7IxL2B6XID7XgvCzTQh/uckICD03mhRLMwqKFYR44U+/3vpiluDzsTY/tGYvtCYP4s1eaCYn1DoH1DqHMYDJAaXeCaXBBbXRjUizF1pL+8OYo2sYExMfflzfBRER0bcMALdj5o4/UJo9V6LJCcHkvBESNHMAaU8vFjtGsByaxOpAWSVhUsHuTAT7c7HroGD0JhxJKWyPicgVr2o2jhFuDeshYWNgFsudo1jpmTTuTZjDxuAcpDttCD/XjPkvN0Gtc1xXEN62ByGLi+TyH/55awuFQk8nbMF0tNUHrdmDSKMbkQZ9wmKsuR3RJi+0Rg8ijR5oTR5oLe2IWzteTzl6BnL+kR95nN8DERHRtxSh0fvdMUugTzUqCGJ5QDA5ITW6EbUEkWnv15sWi9ctD89jc0wsXYS0N6Ppf7oPx/U5BUICOf8gUs5u5P1DKHSOXR8j7J9F3tuPtKMbWW8/loLDWO4ex3L3BMQ7bRCea8H8c81QigEhNIGN4TC2jR6EA2OL4VjJ4CK1bMHOzkcA3H50bQlH50/ELcGvRlvbEWnyINLkMQKBW3+MUBAz+xGzBJD2hLA9rbxQie+BiIjoW0bOP/1xzRxoVRrdr90ICPWO68fkuA4JxsmGQs8EVvumS4OUitWE4vXKe7NR7M9o+g/lZi8yzh7kfYModI5itWcCS4FhaCY3FJNTv6HR1omMpw95/yCku20IP9+C8PMtUOqdb1tBOAwnjL6HDM4TS/cukyu2e5nVX38lt/n9AJ7e2Nj48KGy8Ndyvn5z3BKA1tJe2mIoPuUBQWvT+w0KoYk3DuaTf6fS3wsREVHFCF7vR6LW4AtKs+d1od4Bsd4BucEJyeSEWB4Q6h2lSoJmCSDl7kXO6O5f6ZvCqjFYqBgUtidk7EypWOmdxHyVBWKtHdFWH9LOHv0IYWAYSUsHxGoLxBobxFobZJMTkSYv4uYApCpzWUAo32K4noNwEI7fGNZ0omauzrTc/fNkYfJeLPd7B3PR6r0ZbT0XGHoj2uZHpNlbqiBEboQDL7RWH6JmP+KOLmyOirkdYecjlf5uiIiIKiJltz8TtXb8vtzseVUwORCus2G+1gaxzl4KCKIRDMpDgtjgRKTNh6SzG1nfABY7R1EozgsYNILCSBibI2FEWtoh1NowX22EhJZ2pOxdSNm7oNTaIVZZINXYIFRbIdTaIBpXOsvVFsw/UkFYNioIekDQSj0Ix0oGx2qmdAPjoZC42p1WX98eF9/cHBGQcvYg2uaD1nIdEFQjHESaPIgUA4IlgHR7P/ZmIn9U6e+GiIioIvAsnoo5Ov9XtdX7omhyIlxnR7jWVnqKIaEUFIyQIJqMoNDghNLsRczagbSnF7nAEJaKQUE/rfBnGW/va1K9A0KtDeEaK8JGSFAbXFBq7RDutOkVhFpb6RFqbRDrHZCqLX4kMswAACAASURBVDe2GLJlAaHUpFg2avlISunbG+My1gZmsNo/jc3hMFZCk4hbO6C16gFBK68iNHuLJxWgtfkRs3ZguXfyxVMp9VOV/n6IiIgeOwC3Y7aOf6y2tl+KDS6E6+03AsJ8jVX/E3+dHVK9Q3+MZkXRdF1VEOsdkBpdUPWuf6RdIWTb+5ELDn+t0DlaFbUG+uQW75tCnR1CrQ1CjRVCtRXhKgvm77Rh/oVWCFVmfeZAg0sPJMYWh1xjRfj5FggvtEIxOZFxPxoQtOstBjWDQyGOtf5p5ANDyAeHsdI7hdW+aWQ9vYiZA6WAEGn2XG81NHsRaWnX/57Zj4SzGzvT6sr91NZnK/0dERERPXYxe+fPq2bfidjgglDv0MOBsb0wXwwJ1dchQTYqCZIREKSyv5YanJAaXFAa3Yi0tCNm7ThN2Lt+NzU6+jHNFvxlrdUfkpvcX5VMTojFoFBtQbjKjPBdM8JVZkh1dqhNHqjN3iu5wQW5wQWpWg8I4WJAeKRJsXyS4rGSwd6shoStAzFLEAs+/Y6HhLUDcWsQ0TY/tJb2smDgMX4/D7RWvTkxaglgwT+Ik0j2a5fZ1f8EAR+q9PdERET02CTdoR/TLMEtqdENweQoVQ9KwaBYQSh7BKOBUGlwQTF+gJeeRheUJs+V1uz9StTsG0jYOn4BITx969atW6lU6pmYs/Ova5bg3Uhre15p8n5NMjmvxDo7SlWFWhukOvuV2uh+oLX4JiIt3sFIs/dIqrFCuNOG8AutUE0uZNy9WA69tYJwKCVxomawPSFDbdJDStLeCbXRDbnOgZglgGibr7SdoFcQPKWthYgREGK2DqwOzuI8lsdleln56ur+pyv9XRERET0Wmjnwo5oluCQ1ufVBSPXXAaG8gjBfY73uRzACglBjg1zvgNbs/bNoi2870uLdjbb6NqNt/pmoJXAnau/6mUIo9IlHf0/cwu2UPfCXY7bAr6jNviqtzTeqNnuzarN3NdLiXYm0eGWt1dsea/X9xwVX30/Hmpx/KWr2f0GqtkJ4odWoIOgBYcW4i+FGQBCTOFGz2BoToTS59epDnR1ClRmqcadCtNWHSIseEFSjghBp8ZaONmpmP5KuHuzNajiL5XEvuXT/IlP45Up8R0RERI9Vyt7/l6OWYExsfLtwYH9Lk2L5IxgNhEq98zWtzft78Tbf92Y8of9uyx76rh2v8JFv5nZDPIunCubQJ7Lerh/WzF0/F7d2/lLC1vELaUvnX094Qz9QCIW+o/i/1cyBH5VqbBDufqMKQgKHUhLHSgbb4xLkRjfEWjvEaivCd9r02xlbfaXtBbWsMTHSrJ9cKG4v5DqGcSylihdMvXGZKvxnALy1kYjo2x2Ojz92mVj8zIPsyg/f39r6LgjCB2YPWnOFPhWzd85KTZ4rweREuGy2QTEczNfaEK57m3BQZzfCgeNhrKW9MWVPPfNevBNu3XrLxMOinLP/h6Ram77FcKfNqCAYTYpDb9OkqKSxNS5CbnBBrLXr/Q132iDcNeunFpq9bw0ILV5je8GPmK0D60NzOCndRpnDvfiiDan3Zq1ERPSEeSBkv/tgLvalg3D84iAcf3ho3B9g/JB49V6yID7IrPxipd/z3dBCoY/GHZ0+qcn9pthwczpiqf+gzoaw0RdQDAyC8RRPMsTa/PbyP+W/nwr+0GflWtvD64DgLG0xrA/NY3tcunEXw7GSxtaYZAQEG4QqC8J32jD/fAtUk+tG1aAYEtTm6+FIKXcIe9OqfmW1cTvkqbZg57AkIqJvM4VC4Ts2R8N/uDUuvbY9KWN3OlK6trj4A+dYzeA0sqDvSaeWty8XFz9T6ff+i9IaQh+N2jua5Rbvm2KD6/oCpnoHwkb1oPwUw9uFA7nBdaU2e2YPQqGPPq73zri7Pi3W2t4U7l4HhLRRQVgfmtMDwox2Y5Li9oR0JZucbwkI4ef1HoZIk6cUDrSWdr0HwdheKHSN4WCuNGQJR3L64VkkW/NBqiIREdE3sDEx8eFCaEJdMS4a2hqXsDOlX1l8MB/HoZDQ/ySp6AHhVNNDwnli8dXL1MqvVvr9v1kpu/2ZuL3jv6ot7a+JDS6IDU6IjS7ITZ7SI5bduRB+pHpgHG+80lraZ7Pewe9+nO+umQM/qtTaIdw1l20x9BoB4e22GDLYn4/G1CbPlVg8Rmn0L8w/1wzhThvkOn1Ak1oMCi3tiLb5kHGFsD0mYr94ydR8HPtC4vUTOfUfvpneCiIi+gAIhUJPJzw9I0vdY1jpmypdMlS6rrh4VbHxQ8coNeMsmtOb1+JLf3aeWP6FSq/jGxEE4UMxe/dvKa3tX5Ga3JCbvVBbfYiY/YhagohZO6CZA1BbfVCavSjOQxDqHXo4MIYjaS3eVMLT9dgrJ0KV60flWhuEKjPmy3sQQpN6BeGRUwzHSgbHcrpRbfZeinV2CNUWCFVmhO/opyDmn28pBQWx2gqpxgal3oG0owvrg7PYKV5ZPR0p/v/g9FjNfP5xr5uIiCoAt27dTrl6/ihm79RvIgxNYm1wFpujgn5V8bRa+hPkUbEXwdhmOI0s4EzL4VTL4Sy2ePKVws4PVHo9f57QPw89rdk6/0+1rf1FudkDtdWHqDWImK0DCUc3ks4eJJzdSDi6ELd1ImoJQmm5DgmiMTUx0uzNJi2BH6vEGpKNns9JtbYrocqC8F0zlIa3OcVQtsVwomZwGlv846jZ3y+ZHBBrrCj+s+E7rZh/QR+4NG8cmwzfaUPCHMRq3xQ2BuewORzG1qiI7XEJu1Pq1d5MdOQyFvtkJdZORESPWSE09amIOfBSzNaBBf8gCj3jWOmfxvrQPLbGROxMKtib0bA/F8NhOIFjKYUTOY1TNas/RlA4UbM41/LuSq/n7Tz77LNPxR0d/zBi9p+rxuVDcUcXks5upNwhpD29SHv7kPboT8odQtzeCa3ND6XJUwwHV2qTZyfm7PhbX++kwftpwRr6QbnOcSUY0xaVBlepB6F0imHmZgXhMr38e3F75/+sNnteEuvsN0PCXbO+5XCnDcLdNmgt7Vj0D2G5exyrfdNY7devrN4YCWNzTLy3MxX5p5VYNxERVUDM0fG83OxFpM2HjLcPi52jWO41qggjRhVhSsV+sVlRSJZCwlkxJKhZ/Sickrk8jeS+v9JrKodbt24nXaG/E7EEjyNtfsTsnUg4u5Fy9yLj7UfWN4AF/yCy/kH9V98A0p5eJJ3diFmDUJs9kExOKE3u45S9+1crFQ5u3bp1K2UPfVauc+g/4KvMUBrcpWOO60YFYfeRgHCRXP4dLRT6aMwcbFYaXG+UQkK11dhy0B+p1oaYOYCMO4ScfwhLHaModI1huXcSK31Tr20OzzedTuc+Xqm1ExHRY6bZAptSkwdSoxtJVw9ygSEUesax2j+NjaF5bI2K+jXC0xEczEVxNB/H0Xwcx2ISp0oG59E8ziILOJFSOAonH57I6S9Uek3lUvbgT0WtwYJmCSBu70TSFULa24esbwC5wBBywWHkjScXGNJDQns/Uu4QouYAlEY31GbvZdwS/I1KN+el7KHPKnWOh+EqM8JVlusthkcqCPvzMRyKSRzJaVykCv/vrVu3biU8XZ+JtLb3KY3uV8U6O6RaG8Qa46KoGisk4zppraUdMUsAaVcPMt4+5AJDrxe6xgJboVle1ERE9O2i4Ap9SmnzfUVqckNscCFq7UCmvR+LHSNYDk1ibWBW34ce00PCzriE7TGpVFEonmw4i+ZwGlnAYTiOg9nYt8w2Q8Ic+oGYrTMZtQaRcHQh7elFpr0fC/5B5IzbDfMdI1jsHMVi5yjyHSPIBYaQbR9AytUDrc2PSEv715LWzt/Gs5WfHphp6/grSr0eEIRqC5QGN9Ll1z2PS9idieDACAjHSgb3ksu/b/zjt3PO/h+Kmn2taov3vtLg0m+jrLNDqtWHPkl1dkgmB6QGF9RmL6KW4Isxe1dzLtj/QxVdOBERPV5Z7+APq22+14t3EMhNHiSd3XqJuWsMK71TWDdCwubgHFZDk1gbmMHmSPi6gXE+hiNj7v9ZNI9TOaMiFHq60msruEKf0qxBOWoNIuHsNqoGg1jwD+nhoCwYlJ5iQPD2I+HoQswc+LOoJfBfv1XO/SfMns8o9c6r6wqC+63HHGe064ZSJY3zVOF3y/8dhVDoEwlbxz/TWn39kRbvqdrofkNpdL8p69soUJs9b6gt7RdRs78/6ej69Zzfz20FIqJvN5lg6MfVNv8bYqMbQoM+LEgz+5H29CIfGEahaxyrfVNY6ZlE0tGFnH8Qhe5xrPRNY63sKOTebBSHRuf8aTT38F6iIL6YX/9cpdZ1PDr6saijazRm67hKOruRKd9SMMJB8SkPCPngCHL+IWQ8vUjaOl9P2Dqef1xTEr8ZC9bQDyomp3EttFFB+AaDki7TK//u0X8PgNsbwYlPpjxdP5OwdnwhaglUR80Bc9TSUR21+n836+3+26vu4e8EULF+CyIiqqCUPfRZtc33mr7F4IRgckJqdCNm7UDG04fF4DAKXWOIt/khm5xQW9r18BAcRiE0gdWBGWyMhLE1LmF3OoL9OWPbQcngLJb/6kW68MLjnttfCIW+I+Ho8kZtHVdJVw/SHj0cLBjhIFfaVrgOCPmOkevqQXs/Mq6eh2lXty1lt3/scb77N5Jx6VsMYrVVP8XQ6L7Rg7A1LmFvJnLjLoaL9MoXvs6/8jaA2ym7/ZmU3f5MKBR62ggFDAZERN/Ocv7pj6sW/6XU5ClVEML1DshNbsTtnch6+5FydOl71Q0u/Wl0I2brwIJvUN+GKKsmbBtHIkvXDUeyOE8snV5mVv7u41gPQqGnk87u2qit42F5OCgGg2I4KFUOiv+5Y0RvUvQPIuPpu0o5ugdz/ulvudJ6yh76rFzvMCoIZqiNbqTLtxiMCsJ+qQchjfuZ1f9Q6fcmIqInkGoNROVm/RRD+Y2GcqMbUXMAQo1NnwNghAOp0QWxwQWlxaufeggOo9Azoc9OGJ7H1riInSn1uppgNDFepJZnUCh84v1aB4DbSVfPH8Ztna8njQ78YkPiQnnl4JGqQTEk5ANDWGgfQNoTkoVQ6H17z3cj0tL+V+X6si2GYkAITWJjaM6oINw85ng/xYBARETvgObp/p+U1varYkAo3j8g1Nkh1NowX2WBZGw9SI16SBCNX6UmNyJmv37yoWx+wkZpCmPkRhPjeSz/5nly8Tff66Y/3Lp1O+7s+s24veureuWgF9m3Oa1wo+egrA8hHxzGgm8QGW9fPjv4eO9X+ItYdQ9/WjU5H4o3ehB6sfLnnWKQ07iXKvz7Sr83ERE9gRAKPa3ZOjYl45IiPSTYEa61IVwWEPSLjPRQIDa69JDQ5C4FhYSjCwv+QSx16zMU1ofnsVmcxFh2gdCptoB7yeXVy8zGj78XcwVw69btpLP7n8btXfeL4aD8KONbthUeDQiBIeT8g8gFBteTnv6KNVZ+M/QtBmdpuFExIOg9CHPYGhdv3J1xLKdxkV3/QqXfm4iInlBxd9fn1Tb/G6VmxeIthrU2hKutCNdYoba0Q2n2QmryGCHhOizo1QU31DYfUp5e406HCawOzpY1Mao3mxijuTcvU4Xml+OH3/tu3j1j6/mFhKPrLOm8GQ4W/IPXQ5C+QTjI+4f2Up7+v/lefZ7vF9U9/Gml3gGx2qLPQSg2KYYmb/QglG7fVNK4TC3/20q/NxERPcHiru7/R2lrf11qdENqcEEshoQaK+arLZAb9e0EtbUdcrMXcrOnFBZuBIUmN2K2TmR9A1jsGr2+HbLsXofry4SyOIsvnl2mC/976h2cdkh4u/923NG5m3R2I+3uRcbbhwVjdPKjWwvlJxbyZU2J+cDQ6XL3xM++H5/pe03VmxQfClV6QFAby+cg6Mccd6f1LYaj0qCkwm9X+r2JiOgJF7N1/uuI2fey3OSB2OCEaHJAqNd7EcLVFkj1DkTMfkTMfiit7TdDQuP11oPY+NYmxtWBGWwMGxdATSk3ryWW01fHcko4lVI/9c2+a9zR/dcS9u5CwtGNtDt0416FfHnloKwRcfHGiYUh5PyDl4XA8K8/Kef9Vbv/s0q986q4xaDeOOZYnIPwaA8CKwhERPQuAbidCvT/zZi1Y0pt9b0uN3uvpAYXJJMTYr0DYp0dYp0dWpsPUVvwdbXNB6VFryaUh4XyaoJmCSDt7cNi1yiWe6ewNjhnbDuI2J5UsDOlYHtSxta4hI2R8FdWeyef3wqFvuvR9zJ+fQrA7Yx7+NNJe1ck6ei+SrtDyHj6bjQlFqsHi480JRbDQT4whLx/6M/yHSNfqPT9Cn8Ri56uz8j1jlJAiPw5AWF/7roH4Ty5/JuVfm8iIvqAgCB8KOEI/Y2oteOOZg5IkTb/RsTsP460tq9EzYERzeL/naS1+yfjjs6piCWgVxNavG+pKOhVBTfkZi/i9s5SE+NK3zTWBmexPjSH9aE5rA3OYqVvCosdI0i7Q4hZghtxS+CfbGxsfPhISv70sZz690dSynwip4f352JDeU9fIuXovkq79HDwlm0F47lxUqGscrAYGH41Hxj+/0LfAiOh/yKM2xyvxEcqCCvFy5pKPQjGFoOcxmVy9d9U+r2JiOgDCKHQ01oo9NFYMPjJjYmJD5f/PUEQPpRydf/zmL3zsrTt0OKF3OwtO+1wvfWgtrYj5Q4hFxzGUtcYlkMTKIQmUeiZwFLXGBb8g0i7Q4haAsh4+97cmVRye7PRlw7C8asDIYEjKYUjKYWl4AgyrhCynj4stA8YpxCuqwal6sEj2wr5wBDygaHXFjtGn/1WGqH8zUrZ/Z/VKwj6ZU2RRjeypYBgVBCmb1YQLjOsIBARUYXk/APfn3B2OjVrAGqb70ZIKN9yKB6N1CxBpD291ycNjD/h5wJDWPANYKlnXJ/MOCFjd0rF3mzZdEAphb1pFQvefuTaB5DzDRZ/8L8lHOQ7RrAYHCluKSAXGHpjMThsPQhpH630Z/ZOxFqCPyTX2h+KVWaIVWZEGlxYKA8IY5JxLbcxe0LmKQYiIqowPPvsUwlP78/FHF3bb7ftUF5JEBtcUJq9iNk69KBQvkXQOaJPZSyefJhSbpztP5JSOJbT2BoOY9E/hMXAEBYDw1gMllUMgmVVg+vKwVU+ONy7Ojz8nZX+rN6JRWfnX1JMroJUZYFcZUG80YtkWwB5Tx/WQ1PYGprH7riM/RkNR+EETpUMzmOLeJBZvfdyYevnK/3+RET0bS5lH/1YzNH9Jc3W8WqxmiA9eiSyQQ8JUqMbaqsPCUcX0t4+ffshMFSayFiqIszoF0EdhOOlvfUTOY31/hkjHBgBITiCpWJACOr/vTHr4GopMDSX7xj7nkp/Pu/ERjD4Sa3Vd5C0dWK5awybQ/PYHhOxN6XiYDaKo3ACx1IaJ0oG51oO92J53Ess4SJZwEVqGfezay+/vLT59yq9DiIioltxf+hHYvbOBc0SuCpWE/SA4CkFBP1xQm5yI2oJImoNIuvrN6Yxzhh3O0jYKd9mMPbWT5QMTuQ0NgZmUei4DgZLxW2G4DAWA8PI+QawFByKF0JTn6r0Z/JOpOypZyIt7Ura1YNC1xjW+qaxMTyPnXEJu1MqDsr6DU7ULM60HM5jeZzHF3EvsYR7pZCwuvfK5ub3V3o9REREt27dunUr4Qn9h5i98zW1zV86Eik1ecrudNCDgmZsS6Q8vch3jmKl1xiwVH6vw1wUh+HrbYYTJYNTJYONgRkUgiModIyWqgZ5/xByvkEsBodXNz1Dn6n05/BOJc2BfxlpcD1MO3uwGBzGau8U1gfnsF02eOqwOHhKyeA0soCzaA7nsUWcxxdxnljCeWIJF6llPMitOSu9HiIiopJCKPSJmKMzrFkCD5XWdigt3hvHIdWW9tLgpfLjkKv9xnClcUkfrjSjvaUX4UTN4kTJYG9SxUrnGJYCw6XehEJg5Hyhve8nKr3+dwqh0NPRFu++XO9A3BJEzjeA5e5xrA3MYHMkjJ1ScLpu4DxRMjiJLOBUK4aEJb2akCzgIr3y0tc2Dn+o0usiIiK6IeYM/UrU3nFZPmBJatLvcJCb9UbGSJsPGU+fUUUwboccCWN7Qja2GvRehEMhgSM5hWNFDwmnahaHczFs9M1gOTiC5cDQK+sd43+j0mt+N+Kt/s8rDc43hBortJZ2ZNy9WOoYKVURtsrHV8/HcSQY/RlqBieRLM6ieZzF9KdYTbjIrv1xpddFRET0Fgeh0Efjzm6nZg2+VqwaRMx+SM16b4LU5Ebc0YVsaaiSvtWwNSaWthpuhAQphWPJCApKRg8K83GcqgvRSq/13Yq1+e/K9Q4ItTbI9Q4kbZ3I+Qf1KkL/NDaHjYuwplTszxohwWjiPFb0kHCq6dWEs2geZ/FFXKQKU3gWT8z0SCIi+jYTd4f+bszemdMs/oeaJWA0LzohNDj1WyGNgUqFngn9+ugh/frotw0JRnm91LyoZHAvmr+Pd3AB1LeSSEv7tFzvgFhrg1BjRaSlHWl3CIvBYayEJrE2MIvNkTC2yxo5b4YEo7pibDmcaAu4l1hcRQpP9OdCREQfcDte4SMxR/eXNEvg9eLxR8HkgNjoQtQaRMbbj3zHCJZDk1gru+xpe7IYErTS8cdiUCiGhdNI9hzAEzVKuRxu3boda/NpUr0DQo0V4WorxDo7YpYgst5+LBUbOQevGzlLWzDFPo2yoHCsZvRTDrH8CbSDJ3JQFBERfRuJBYOf1CzBI32YkguCyQnB5ITcpDcsZn0DWOwcxXJosnT0sVhJ2JlSjcuJotifi+FgPq4/4ThOlPR+pdf2bsXa/JpschoVBL2KIDe4kLB36hMnu8auQ8KIoF/3PKVid6YsOIlJHIrJ66bOSHYXqeOPVXptREREX1fKbn9GswZk2ehBEExOCPUOhOsdkJu9SDi63xoShuaxOSropxsmFeOHYkQ/5WBUFY6kpFrptb0buHXrdtwa7JFNDkh19tI2g1Brg9rsQdLRjZx/EEvdekhYG5zD5kj4+jOZKVZYYjgIx3EgJHAoJnGiZNIQ8KFKr4+IiOgbitq77iit7XoFoUEPCIJJDwlKixdJZw+y7fp2Q6knoXht9JiI7XFJryhMKtidUrA3HcGxnP69Sq/r3YpbO39bbXRf6QHBDqHWBqHWBrHODrWlHUlnjx4SjErC2oB+4kOvsOhHQ3en9eC0NxvF/nwMJ2raW+l1ERERfVPi7q7Pq23+V677EK5DgmByQmlp1082lIUE/QfiDNaH9KCwOSqUgsLeTOTPduXUX670ut6tBV/oB6Mt3q/K9WVVBOOR6p1GSOguhYQb2zAjeoVla8KoKEyr2JuNXh2JiV+r9LqIiIi+KRsTEx+O2TqGlBavPmHRCAnhekcpKCjNXsTtnch4+25cF73SN60PVBqaw4ax9bA3pX4gJgYCuB03B+bUBjf0kOCAWGe/fuodUJu9SNivw1PxaKi+FXMdnrbGJezMRNY3JjY+/I1/ZyIiom8RKe/QT0Us/kt9YJLrLf0IgskBudENzRxA0tWDBd8A8kZQ0CsKk1jV7yl4aX9G/XSl1/NeSXr6P6c1e1+V650oVhKk+rKgYHJCbtTvski79Su0FztHUegZx0rvFFYHZoxhU/MPd6alf1Hp9RAREf2FxRxd/3ekzf+aVNawKDY49a0Go5ogmpxQmj2IWTuQMoJCLjCEpc5RLHePf201NPPrlV7Hey1u6fijSKMbisl1HRLqHBCNoCCZnJAaXIi0tCNh70Ta04ucf1CvKHSNYaVv6mptaHYQ4IAkIiJ6AgF4Kubq/k9Km+9V/UIn48ZHkxPiI30JoskJpcmDqDmAhB4WXsv5+v83ALcrvY73Wsre9TORBjciDW6oJif0aoITUr1DrybUO/SQUAwKre2IWTuQdPYg4+3DQmAw9aQPjSIiom9zAG6n2nt/NWoLbittviu5WQ8KUqMbkhEWpAYXpAYX5EY31BbvQ621vaBZfT9d6Xd/v8RafG6x1galzg6twQXV5IRiPHK9E7Lp+lEaXFAa3VCaPIi1+t9I27v6c37/xyu9BiIiovdEIRT6RMzW+R81azCvtvq/ojR7Hqqt7VdqS/uV2tz+htrqeyVmDabito7fTNlHP7CDfwA8pTS4TsQaG4QqC4QqC6QaG9R6J1STE6rJVXoijW5EmjyItrS/mbAEFjOegV+s9PsTERG9LxAKPR31Dv5w0tn5K1lX6De0Nt+/idkCv6K6uz6NUOiJHaX8zYq3+b5XMTleFWusEKosCFdZIFRbMF9lRrjaArHGBrnODtXkRKTBDa3Jg4QlOIrQkztmmoiIiL6BaIv3n8kmx5VQY4VQbUG4Wg8J81UWhKutCNcYT60NQp3dONEQ+MA1ahIREVGZSJN3UKqzQ6yxQai2QKi26iGh5jocCEY4kBrdSDi730x0DX2m0u9NRERE75NQKPS02ujZF2ttEGtsCFdb9Jsdy8OBUTVIOLpQ6JnAzpSytyMIH6n0uxMREdH7JNPa9WnF5HxVDwhWCNVW/VbHWhuEWjvkBhfi9k4sdY1hfXAOW+MS9udjjZV+byIiInofRZq8/1E2Oa+KVz0LNVaItfokRa3Vh2x7P5ZDk1gfmsPmqICdSeXqMJz45Uq/NxEREb2PIo3e6RtXPddYIdbZETUHsOAbNG62vL7+enc68tq5kPiBSr83ERERvU9SdvszaqPnUKwtBgQbpDq7Xjnw9mOxc7R010Lx2uv92WhUEIQPVfrdiYiI6H2SaOv8CbXR/YZYq59gEGtsUBrdSDl7kAsMoaDfsWBcxBTG9oSM/fnEn1T6vYmIiOh9FG1u/6Jc74BYa4NYa4NU50DMHEDG04t8cNjYXpjG2qDef7A7pV4dCrGfrfR7ExER0ftIa2kXigFBqLFCMbkQtwSN7YURLIcmjf6DOWyOitibibyyI2S/u9LvTURExydrowAAIABJREFURO+TlN3+MaXJc684IEmstSHS5EHK0Y0F/6B+tbUREDaG57E1JmJvVpvGs8/yOmciIqIPqkiT6xeUxv+fvTuNjjS96gSfqs0u29gGMzZgDJg2W2MwbRgYeqDpNkuzTU8fYHBPDzC9DAM0zDng6W44QGOB7UytESEp9n1TSApJoX2J9d3f2EMK7fsSIYWUmVUuU3a5XFWZ+s+H941FWUVjMxkKp3R/5+hk2T7Ouqn8EH/d5z73cTzg1AFFrssCud+Ngj2ozB8MzynzB6Eo9tT5g5NY+vdaXTchhBBCmkju89wRemzg1A2KXLelYf5gGusj89gcC9f3HywKD04S6Y+1um5CCCGENAmANlHnTPLdViUcdJkh9NqRNQew7A5h9ZHjhb0ZBsdhqVyW5edbXTshhBBCmkTW2L9J1Nq/yHVZ1A6CqT5/4JnA2tAsNkYXsB1S5w/mOJRiSVer6yaEEEJIE8kG1y8KvXZUAwLXZUFqwIu8I4gV3yTWhmaxNRbGdqi2/+DiJJL67VbXTQghhJAmkvpc/cr8gRIQhB4bMkY/lpxjtf0Hm2OLDe8viK8dhdMfbnXdhBBCCGkSBINPy32uIt9tAd9lAddphqh11OcPBmca9h/EsTfD4igsrSKIp1tdOyGEEEKaROzzfoeosX+F71IDgrr/IG8bQdGrzB9s1gYUE9if43AcT/a3um5CCCGENFGyz/2bosZ+wXdZwHeawXdbkdJ7UbAr8wfrw3OX5g8O54WH5UT2l1tdNyGEEEKaBECbpHM6xR4bqgFB6LEiYxrEknMMq/7p+oKkiai6/0B8ucLkvrnVtRNCCCGkSdbbg8/JOuex0G0F32UG32mGpHUiaw6g6A41rFdWFiTtz7I4jogigLZW104IIYSQJkkPeD8saR0Xgjp/wKvrlfO2ERQ9E8rzzsEFbKsPNO3PcTiJpW63um5CCCGENJGkc/6W2GODEhDMELqtSOu9WHKM1uYPNkcXL88fxOUfb3XdhBBCCGkSAG2y1hkQu60QOtXjhR4bMqZBLLvGseqfxsbIPLbGwtiZiGFvOoGjsHQXudyzra6dEEIIIU0S7va+U9I67oldFghdFgidZshaJ3KWISy7xpX5g5F5df+BOn8QliKtrpsQQgghTZQ3en5Y7rE9FNVwIHZZkOpzo2AbwYpXmT/YCC5gOxTFzlQc+7MsSrHkp1pdNyGEEEKaKNPv/gOpxwax0wKx0wyxy4qM3odlxyhWfVP1+YOJKHanEjhYEF6/x6W+5+/7fQG0vZhKvfuuUPjY/WTxfzmXV/7t3dzqL7xYWP/HlVzlHVfxZyOEEELIPwDa259KaZ1RqcsCqdMCscMMuceGrHEQRdc41tT5g83Rxdr8wWFYPGYY5pm/8/cE2iph+ftPoklTOZY8PU2kH5yyWZzxBZxLyxf3kiuv38+u7b6Q3/zze5n1b7nKPy8hhBBCvgq5Dst7ZI39FSUgmCF1mJHSOpG3DGHFHcLa4ExtQHF3Ko79GQbHUXnm7/r91oPMuw5mmJ7DWfYrR/M8SmEJ5VgSJ4k0TtkszoQ8zsUlnMtF3Eut4n524/yl5Z1/D9B7DoQQQsjXjYzW9SPJHjvkTgvkTjOkTgsy/R4s2Uaw0rj/IBTF7lRced45mvnNt/q99oPR92yPLs7vjkcu9ifjOJxhcbwgoByRlYDAZFHh8zgTl3AuL+Nusoh7qRXcz6xdvLi0o6OQQAghhHwdANCW07n/Uu62Qu4wK19dVuSq8wfeSWwMPbL/YIF/9ZBZeu+jv1cwGHy66Byd3BicudgJLmAvFMPRDIujeR6liIRyLKUEBC6PM6GgBAS5iLvJIu6mVnA/u/7wxeL2p1vxfSCEEEKIKm/wfSSlcwppjeP1ZKcFyQ4zkh1mpHrtKJgCKLrGse6fwob6QNPOpDJ/cByR9t9qvXJO7/nUknnowYZ3EjvDC9gbi+BgKoGjWQ6lRRHlqHLMUGGzOBMKShdBqncR7qZWcS+z9vBLK/s/1IrvByGEEHLjpYz+z4gax2tCpxn85wyQ75iUcNBhRkbrQsE8hFV3CBuDM9gKLmAnpOw/2JthUIokXbdu3boF4KnKTO4d95j8R86Fwv9+PM/fP4mlcBpNoTQnYH80jIMJ9ZhhXlACQjyNUyaDCperhwT1qOG82knIbR4AeKrV3yNCCCHkRkmZ/F6px3YhdlnA3DaAv20E99f9SN02Id1hQa7fg2VbEKueCWwEZrE1uoid6vzBLIdzLp88F5fXz8WlF8/F5VfPxaWH52o34Fxcwrm4hLvSMs6YDA7HozicSuBojsNxtYsQV4YVK1wOFaGAilhQ/r+y+pVcwReKWx9u9feJEEIIuTFSRu9fiVoHcsZBbA7NYW8ihv0ZBodzPA5nWGx6p7BiHsaqYwzrvilsDc/XAsLeVBylRREvpFZxVw0DdyUlDNyVlHmCc/XXu7Ly35XDktJFmGZwPM/jWL3RUI6nccrmUOHzqKidhOqRw7m8jPv5LW2rv1eEEELI17WyLD9/lsj8TIXPWytCPn8uLe3clYsr91JrrhfzW79YluXnv5rfR9IPfqesc766bBvBhn8a26OL2A1FcTDDoHYdUZ0TKEdklBYlHM6w2JuI4WiOw9E8j7vSMu6lV3FfLtZCwd1L/6x2Aar/WVrGYSiGw6kEDmeVGw1KSEihnEjjhM3ilMuhIihBoRoWzpMrq83+vhJCCCFPpHvM+ruOwvJ/PlqUPn8cubxLoMLnax/C9zNrD1/Ibfb/7Xr5mx79PXDrVlsul3v2JJ1+38rgVHQ7uIBSWMTxgoC98Qh2xyPYbzgCKEVknMRT6hGAetug4Sf7e8kV3E0WcT+zhnvVcCAvK8GgesQgqd0AtStwPMthPxTFwVQCB7MsjhYEHIUllKJJlOMpnCQyOFWDwimndBXO5eWTVnzPCSGEkK9r+5PcD+1Nxbf3ZhgczHE4XBBQisoox9M4YTLqT931s/t7qRW8kNs4eXFp85++xCy990xc/sFzMf/Jc2l56EwoHJ0JhQdnQgHn1Q98cQnnQgHleQH7EzEcqNcRj8MSSo1Ljfj8pRsHyr9PGSa81zBz0BgIzoSCsuuAz6PC51FelLA3GsZuKIr9hpBwrIaEknrkcJLI4ITJ4ITNoiIU7rf674AQQgj5ulIcmvyJ9ZG5l7fH1c2FsywOFwQcR2TlJ271FkCl4RaAchNgBfcza2/cS6186VxcenguFNQOQKH2k33j111pGeeS8hP+wVQChzPqB7e6s6BxsVGlISiciUu1zsEZX6j97xUuhwqXU7oBbFb5wE+kUY4msRWYxY56pLGnhoTDeR5HiyKOIzKOo3ItKJQTaVT4/BHdZCCEEEJUq4GpDxRcY2ergZna2wf7MwwOG366LzccM5yJSziTlpRlQ9WthOk15dpgLRSoMwHVX9Ujgepw4Rmfx8FkHAfTCRzOcTheEGshoZxI13+q5/M4rQ0VKqHjlKkHgZN4GuVYCqVYUvnQj0g4Cks4mOWw4ZnE5tAstoP1gcd9tTtyMM/jcFHAYVjEkRoWTpnsZKv/LgghhJCvC8Fg8Omk0cdkbMNY8U9hY2Qe26EIdqcT2J/lcLgo4jha7yKcPrJL4Fwu1jsJ6TV1cHC5fjTwVl/q0cDRLKccNUwzOJjlap2EWvufeWROQJ0VKEVlHEdkHIUlHIVFHC0KOJznlQ/+OQ77Mwx2Rhdr1ybXAzPK2ubxCHYmYtidSmBvhsH+LIv9eeUo5TAsopxI/XKr/z4IIYSQrwtZ0+CPC/1upM2DWPZOYG1oFptji7UFRYfV4b6GLsKbQkLjjEBypaFzUN9TUJ0TqM4KVPg8SgsCdkbDyrVHNSRU/31K+z+FUlzpKJQTSkfhhMngcI7DwSyH/VkWe9MJ7E7FsTMRw3Yoiq2xMDZHF5EzDiLd70HBOowVTwhrg9P156PVBUw7U3HsTiewN8viYIH/4iFz+PZW/30QQgghXxdS1qEwr3NC0nuQd41hZXAaG8EFpYswlagNK1ZnERqPGipC/bih8cZB4wBhpSEQVDsBJ4zyQV+KSNgamlOuPk7EsDeVwP4sq7T/1aBwFJFwHE2iFEuhHE+hFJGxE4piezyCrdFFbIzMY21oFqv+aRQ9E1hyjCJrGgT3OT34DhNknRNZcwBLzjGs+CaxFpjB+ogSFLbGw7WwsDvL/HGr/y4IIYSQrws5i+XZpNH/t5zWDl7nRNoSwLJ3QvlJe0yZRajeaDgK148aLu0SaJgPqHYUzoSCOjjYMDzIZHCSyCgf8rEkShEZh7Ms1n1T2BhSNiduhyLYnYzX/p2X5wQkHEdk7IQiKHomUHCMImcdRto0iOSAB5LWCUnrgNhtBXPbAOa2AWyHCVynGUKvDSm9FznrMJZc4yj6JrEyOI214Tmsj8xjazycoxcdCSGEEJXsCX5Q6Hc/YDV2sBqb0kVwjNZmEbbGw7WjhoN5vhYSSrGk8oGvziQ8GhQqfP5yGIgqQ4BHYVH5wF8QcDDHYWcsjGV7EKveSawHlOedt8bC2JlQVizX5gTmOBwsKGEhZfBB0jog9bku5D7nqym9t5Tqd49KOucrfJcZ7Of0YBvCAddpBtdlBt9thaB1IKn3ImMJIGcfQcE1hmV3qHQwFftAq/8uCCGEkK8bacfwx8QB90NWqwQETutAyjyIgnscq+pRw5Z67XFPvfZ4FFZ+ki/Fkup8QKbWTagePZwyWRyrA4SHiyIO1AHCvRlGmRmYjGM7FEHROY70gAdLthEUPSGsDc5gY2Rebf9XBwrVOYEZBgfTzFba4P2TjDHwM8um4AdT/f53M+3MMwDa8kbX/yT12F4TuizgOs21gMB3miF0WyF0WyH22CD02CBpHZD7XEgZ/bmiN/T+Vv89EEIIIV9XMtbgjwgD7gtWawfTawXTa4XQ50LGOoxlzwRWAzNKSAhFarsRqm3/6uBidTagrC4cOmWzKEWTOJhhsTfD1AcIxyPYDC5gfXgOq4PTWHKNgf+cAUKHCbLOhaw5gGXnGFa8ypzAxsg8NkYXsDm2qIaU2KuHC8nv+rv+LIUBx7dxnxl4LfZpDeKf1iLxmYFaN4G7YwTXYYLQZYHUY0Oyz4W0wfclCgeEEELIWxCMg98t6D0POK0DrMYGptcGptcKccCDrG0Ey94JrA7NYHNUCQnV44Z6y1+ZDTiKyDiuhoVEGgezHDZHF5VAMDSLFd8klpxjyFmHIfe7Iemc4G4bwH1W/QDvMEHU2JHSe5G3KXMCK9U5gaFZbIzMX+yOhz/93/uzrDqHPsTcHng99le9iP5lD6J/1Ytouxbxz/SDvWNEzjqMjZF57M9xOI7IOGEzL35hZeUbr+p7TQghhDwxGBfzdsngfYXTOcBobGoXwabOI3iRcwSVkBCYwXpwXmn7TzZcDZzncbAg4GhRrN04KMWSWB+aRcE2goxpEPKAB6l+98O0wfOV1IAH6T43uM8MgPnsQO0ne7bDBLbTDK7bClHrgKz3Im0aRM46jLxzFAXX+PDf92fJ9tv/CfM5/Rvxv9Yh3q5F7K91EDrNWHaOYXssjL1pZfFT9T2GUzZ777649Q1X8X0mhBBCnjhJk3+V0znAauy1DgLTYwWrsUMyeJG1j2DJE1JCwohyu2F7IlrbIbBfCwrqjYN5/iI94H0tNeA+z5kDQs4S+LNla+AH19uDz6V1rs+JXebX+W4LuA5T7YvvNIPvsoDvtoDrtoDvtUFQBhFfT5v8n/1q/hy5Pu9PsbcNDxN/04d4uw5ijw0rrnFsjsxjJxStbYasHo2ccrnDQ4ahvQeEEELIW8nYhn9NGHCjOqjIamxI9FQ7CXZIeg8ytmEU3OMo+qewOjRTG17cnojWOgq1sDDH6QsDjm9De/tbvmmw6h3+AVnnlEWt/StSrx1Crw1Cj1X5UoOB2O96NW30smlr6Hu/2rcRMobBX2NvGx4mPtMP5nN65MxDWPVOYjO4gN3q6uiGx5pOudw6GOaZx/vdJIQQQq6JnCX3bNI0eMr3u1CfRbA2HDfYIfS7kTIPIu8cxbJ3orZDYCO4gM2xMLZCEWwrOxMqh3PMt/x9/07cutWW6XV+KGvw/klmwDue6nfzaYOPSxt8E2nT4J+sOic/9LU+mpQx+D/J3jFeJD47AK7ThLx5CKu+KWwGF5S3Jaq3MNTFS6dcNku7DwghhJD/jpx37Cckg/d1rs8JVmtvmEeozyRwWgckvRcZ6zDyrrH6sqGhWWXZ0NjiV3YmIv+uVX+GdL/n95jbeiQ+OwC+04y8pR4QdidjDa9TKgGhwuej9HIjIYQQ8vfI2Eb+X1HvecDrnA3zCDaw6lwCq3YTeJ0DSYMXGesQ8o4gllxjWPaEHqwEprWtbNknDd6/YO8YEP9MP8RuK/LWYaz6p7A5ejkgHIUlHMeSqHD5MQBtraqXEEIIeSIgGHw6ZRv6Q0nveYXXOcFp7GA1diUYqF9crw2cxg5eY4egc0LudyNl8D7MW4c7c5bcs62sP6X39jC3DUh8ph9Sjw0F2wjWBqexNao8PFXvIChXMit8wUYBgRBCCPkqAGhLGvyfFPtdEHRO8FoHeK29Fgp4jR2Cxg5R54SocyLV78HG0Oyrx7NCy/cJpAa8Vua20kFQAkIQq/4pbI0uYncyrjxdrQaEUiyJCp/XtrpmQggh5ImR1Ds/zmvtF2yPFWyPBWy3BWy3Vfm1ywy20wSux4qsZRi7U3GUYqnXXpCXP9jqulMDnmHmtgGJzw5A1jiw5BjF+uA0tsaUgHAwyyk7GyISSvEUzoR8e6trJoQQQp4YksH1I7zOccF0W5DoMiPeaVK+Ooxgui1ImwPYGg+rLzxKKMfTr93jlr6n1XUndc75WkDQOrHkGK0dMSgBgcXhoqA+NpVCRczT886EEELIV4sZcH0/r3WA6bEi0WWufQk6J1YGp7A1Hq7uO1ADQvKNF+SV729lzQDaZJ2LY+4YEP/sAJI6lxoQZrA1Fq69I3G4qB4xxFOoSEu/28qaCSGEkCcK1+39MN/nfIPttSLRbUGi2wyhz4UlTwjrI/PYnohib1p5/vk4IqEcSz28Jy39SKvrlvvcaeaOAYnP6ZWA4BzDWqAhIMxx6tsRSkA44wu/0eqaCSGEkCfGsin4Qb7f9YDV2MD0KGuX0+YAir5JbIzMYzsUxf6Msl5ZWVucenjGF36mlTUDaJP6XcvMHQOY2wYk+9xYdo5h/U0BQT1iiKdwJi39SitrJoQQQp4oq7bAB/g+5xvKLgRl/0HaMoSib1LpIISitRcd1YBwUZHz/7KVNQNok/ucO8wdIxK39UgPeJSAMDSLbTUgHKgdhOOIjHIifVER8z/dypoJIYSQJ0pM73kf3+/6Su1Nhh4r0pYAlr0TWB+ZUwLCdKIhICQvKmL+11pZM4LBpyWN44jtNCFx24DUgBfLrnFsDM1iezyC3emEMjOhHjGUE+mLF5LFn2hlzYQQQsgTJdXvfzff5/oy2/CyY8o0qASEYSUg7E4nakcM5Vjq4lwo/IdW1sy4XG8XtY5ztkMJCGn95YCwN5WodRDUgPDwrrD2sVbWTAghhDxRGIPhXeKA56XGGYTGgLAVitSGFA8XRZSiSdwV87/XypoPXa63ixr7C2ynCcxtAzIGP4ruceWIQQ0I+40dhHjqwT15/SOtrJkQQgh5osxYLO8Q9Z57lwOCvx4QxsPYnUrgYJ7DUVhUX0Ys/Gkra85Zgu8Re21fYDtMYO4YkDEOougOYWN4Dtuh+hFDfQYh8+qLqeK3t7JmQggh5Iky39//NknvLTMNASFp9GPJE8La0KwSEBpmEI6jMs6EXEcra85ZAt8s9Fq/zHaYwHQYkTUNYsUzgc2ReeyEItibftMRwxfv87lvbWXNhBBCyBMlZ7E8K+k9e9VbDEyPFbLR1xAQItidSqiLh6odhFxfa2sOfofQY3+V7TCB7TAhZw5gxTOBjeG5ekBQj0SOozLKTOalv5XXv6mVNRNCCCFPFKa9/RlR711mNPUhRdngQ8E9jrWhWWyO1TsI1Q/cUy7vaGXNWaPv+4Qe22tshwlcp1kJCN5JbI7MY/uRgHAUkXDCZM5fTO2+u5U1E0IIIU8UtLc/Jeg9aVZrB9Nre+uA8Mjq4gqXG2xlzTnL8Mf5HuvrbKcaECxDWPFWFztdHqo8jso4ZbPH9xjmXa2smRBCCHmitLe3PyUaPInGgCAZvEpACMzUA0J1M2FERoXPBVtZc8Y89LN8r/UB02EC12VRAoK6+XEnVF0NXe94nLDZTezuvq2VNRNCCCFPHNHgHee0ygxCoscKSe9F3jWG1VpAUGcQFpSAcMpkFlpZb8oa+HW+2/KQ7TRB6LEibx3Gqm9SHVJUNj/WOghKxyMNhnmmlTUTQgghTxTcQpuo9wxWOwhKQPCg4BrHamAGW+Nh7EzGLwWECptlWllz0uT7P/hu6wXTYYTQa0PBNlLvIEw0BgTlLYYTLhtDMPh0K2smhBBCnjiS0WdhtY7aEYM44EbeWe0gLNZnEBYEHIUlVJhcrpX1JvXuP2C7zGDuGCBq7MjbRrDqn8JmcOFSB0HZ2yDjlMtNAniqlTUTQgghTxxJ7+vldI5aB6EaEFYGp7E5toidyZjyobvAK7cC2OxKK+tNGwf/nOuygO0wQdI4ULAHseafVgLCROzyEYMygxAE0NbKmgkhhJAnTtLg/4vGgCD0u5B3jmJ1cBqbowvYnoxhf1Z58vk4IqHCZVda+YGbMQduc10WMB1GSNpHAsLkWwQELqdrb2+nDgIhhBDytZD0vj+tBwQLhD4X8o5qQFi89KF7FJZwymZ3WxkQknqvkesyKx0ErRNL1VqrHQQ1zNSOGNhsV6tqJYQQQp5YSaP/93mds95BUAPCyuA0NkYXsK227aszCCdM+qiVASFl8Hq4LrPaQVACwtrgNLZGF7EzEcP+zOWAcMbn/luraiWEEEKeWClz4N83HjHwfU7kHEGs+KewEVzA9kQUu9P1DsJJIl1u5bVBecAd4rotYDuMSPa5LwWE3dq8hFB7XKrCtfb1SUIIIeSJJBi9/xvXp3QQmF4reJ0TObsaEEarASHRGBDOW3VtELdutSX13gjXrcwgJPvdWHaNYS0wUwsI+w1HDKVYEidc9ndaUSshhBDyRJOMvl+pBoREjxWc1lELCOvB+Td1EMrx9AsAWhMQgLak3iNxXWYwd4xIDXhqAWGz2kGoBoRFEcexJCpS4ddbUSshhBDyRBP6nT/3aEDI2kZQ9E9hfWS+oYOgPPlcTqRfwuHh21tRK4A2ecCTVWYQTEjrvVh2jWM9MHu5g7CghJlSLHVxwud+pRW1EkIIIU80sc/7U3y/64LV2MHUAsIwiv4pbIzMYysUqb3oeBQWUY6nvljJ5d7RilpzltyzUr97jetUbjGk9F4U1Xcjtho6CIfqDEIplro44ws/04paCSGEkCcaM+D9MSUgNHQQrMMo+iZrHYS9hiefy/H0K4fM0ntbUSuC68/Jfe4DrtMMttOEtMGHojukBISxMHZqHQSh2kF4WBHyP9qKWgkhhJAnWsYa+EG+zwVWY1M7CHZkrENYVgNCtYNwoAaEUjz16n1+41tbUascDD4v6VwlrtMEttOMtF4JCOuB2UsB4XBBwGFYRCmeenAu536oFbUSQgghTzTR6Ps+oaGDwGrsyFiHUfRO1APCVL2DUIqlv/JiJvOhVtRamZl5h6hzVdhOE7guMzIGvxIQhpSAsKs+LFW7xRBPv3ovtfE9raiVEEIIeaKlbd4PC9UZhF4lIKQtQ+oRw9ylgHC0KKIUS75xL7XUkg/dojf0flHreIntNIHtMiNrHMRyY0CYqgeEw0UR5UTq5YqY+45W1EoIIYQ80TjD0IcEvecBU+sg2JC2BLDsncDa8By2xsO1IcXDBQGlWPJBmc//cCtqXXVOfkjUOl7mOs3guszImgZR9ExgY3juckCoziDEU1+oMLlvbkWthBBCyBMtpQt8QBhwP6h1EHofDQgR7EzGa0cMx9Fkywb/0rbgh0Wt88vKEYMFOXMAK141IIyrAUENMupSp5MXU6l3t6JWQggh5InGaF3vFfWeVxiNskmR6bUhZa4GhFlshSKXbgccR5MX51z+E62oNWUc/FFRY3+d7TSB77Yiaw5gxTuJ9eE5bI9HagGhumq5zKTLkMvPt6JWQggh5Im2bgi+S9K7v8A+EhCWPCGsDc9hcyxc6yAcLAgoRZMXp3z2f21FrVnT4I+LvfbX2E4T+B4rcpahWgdBCQgJ7M81LEpi0htlWaaAQAghhHytil7vO0W9555yxGBTAoJpEEueEFbV4b+dqXh9AVFEwjmX/2Qras1aB39O0NgfVDsIeeswVryT2BiZx3ZI6SAcXDpiyOaxvv5cK2olhBBCnmi78/NvEwbcJ6y2HhCSakBYG5pVOwj1/QKlaPLinCv8x1bUmrUGfl3otV2wnSYIvTbkrcNY9U1dCgiXZhDYTLyVL08SQgghT6z1YPA5vt91qMwgqAHB6H9TQNirziBEZJwJuf/UilozRv9vCb22C6bDBEFjR942glXfJDbVgLDXcNviKCzhlM0sAHiqFbUSQgghTzSmnXlG6HcXq7cYEj1WyEYfCu5xrA3NYmN0EdsNHYTjiIwTNvvnrag1Y/D/J77HCrbDBLEWEKodhOil65hHEQnlRGYc7RQQCCGEkK9ZMBh8WjR4M9UjhkSPFbJBCQir6jPKO5Nx7M0oTz4fRyScctmOVtSaNvj/K99tBXPHCEnrQN4+glV/wxGDGhAOFnglILBZB4C2VtRKCCGEPNEAtEkGL/umgOBSAsLG6CJ2JmPqk8/K7YATJqdrRa2pAe9tvtsKpsMESedEwR7Emn/6TR2Eg9oMQlbTijoJIYSQa0Ey+GZZraMWECS9FwXXWK2DsD0RrXUQjsISTrmsoxV1pvTePr7bCrbAeE+WAAAgAElEQVTDqAQEhxIQNoML2Akpr04eNBwxnHL5T7eiTkIIIeRakIy+Ie6RgJB3jWF1cBobowvYnohe6iCcchn/VdcIoC2p97n5bguYDiNknQsFx+gjAYG5NINQYbN/ctV1EkIIIdcCbqFN6Pd4WV1jQPAg7xyrHTE0BoTDRRGnXGb4yusE2lIGzzDXbQHbYYLc58KScwyr/ilsjS5iZ+LykOJxRL44ZVJ/eNV1EkIIIdeGOOAZaOwgiANu5B2jWHmkg7A/x+EoLOKEzc5ddY0AnkrqPXNKQDAi2e/GkmMUq2oHYVs9YqgPKcoXJ2z2t6+6TkIIIeRawK1bbaLee5tr6CAI/W7kqgEh+BYBIZGOX3mdQFtS70lwXUoHIdnvVjsIlwNCdQbhOCpfnIrZf3XVdRJCCCHXRtLo+9NqQGB6rRD6XMg5gm8KCAfzHA4XBZwwGfGqawwGg0/LA+4s12UG22FEasCDJecY1gana0cMezP1GYRSNPmwwuV+4arrJIQQQq4N2ej/Y07nfHNA8E+9ZUAoM+kMbt260v0Cu/3zb0v2u4tcpxlchwlpvRfLzjGsV3c1TMRqNy2UVyflN+7yS//zVdZICCGEXCtp69Dvc31OVJ985vucyDmCKPqnsD4yXw8IcxyOFkWUE+nlq66x6PW+U+5z7XCdZrAdJqT1Piy7xrA2OKN2EOoB4XBRQCmW/EqFz338quskhBBCrg3Z4Psdrs9Ze4uB1zmRtY/UAsJWqPqUstJBKMVTG1e9obDoDb9T6nMecV1KByFj9KPoGsd6YBZbY/WAUKsxlnqlzC19z1XWSAghhFwrksH/G3yfSwkIPVYlINhGUPRNKgFhPIKdhpcSy/H0/lU/grTkcr1X7nOdcV1mcJ0mZAx+LLvGsV59knoihv0ZtjakWIqlvlTmUhQQCCGEkH8oQe/51eoMQqLHCl7neIsOQlx5sGlRQDmRKoHBlT6jXPSG3i/pnC9wnWpAMA5i2TWOjaG5Wgdhv+GIoRxP3b/P5771KmskhBBCrpWU2ffztQ5Cr00JCLUOwhy2xusB4WBBwHEsdQaGudKAkDEMfUjSOl5WAoIZWZMSEJQjBvVJ6sYhxViqcpJOv+8qaySEEEKuFdHo++l6QLCC1dqRsQ4rAWF4Dlsh9YhBDQilWOqFsiw/f5U1pvWe7xU1ji9xnWbwXWZkzQGseEK1gLA7qRwxKDMIIkqxVOm+KH7DVdZICCGEXCvigPfHhAH3RTUgcFoHMrZ6QNgcD2NnKo69WVZZQhRLfuGqA0LKGPhhsdf2ZbbTBKHbgqx5CCueifoMwuTlWwzlRHoXcvlKaySEEEKuFXnA9UNCv+thrYOgUToIy94J9YhB+QDeVwNCKSp/8fO53HuussacZegnhF7b60oHwYKcZQgrXiUgbDcOKarvRZTiqRWsrz93lTUSQggh14ps8H2E73c9ZHqtYHqsYHttSFuGsOydwNrwHDbHwtiZVI8Y5nkcR+Uvn8Su9nw/axr659WAIHRb1YAwifWhOWyPhx/ZgyCizKTl9SAFBEIIIeQfTNIPfqcw4H5Q7yDYkLYOYdkzgdWhWTUgxLCn/oR+FJVfuy8Wvu0qa8ybh39N6LWB6zRD6LEhZx3GincCG8Nzl44YqjMI5UQ6ftVXMQkhhJBrJWULfEDod7+mbFK0qR2EQK2DsDUWxnbDGf9RRH69IhW+8yprzNuGPin02sB2miD22pG3DmPVN1ULCLuT8csBgUmH0N5OAYEQQgj5h0rrPe8TBlyvVFctM702pM2DWPaEHukgKAHhOCI9OOML//gqa8yaBv9I7LVdsB0miBolIKx4Jy8HhNn6DEI5kR68yvoIIYSQayfV73+3oHe/XO0gML1WpMyDWKoFhMVHAoL8sCLkf/Qqa0ybB/9U6LGC6zRB1DiQt41g1acEhO3xCHYbZiQOF0WUEmnzVa+DJoQQQq4VWRN8XhzwvMBq7ZcDgnscq4EZbI4tXjpiOI5IFyU2/9NXWWPWNPhpocd6wXaaIWnfIiBM1QPCUVjCCZPqoYBACCGE/P+w2z//NtHgrbAae+09BiUghOoBYSJWe/L5OCJfVLjcL1xljRmjr1votkIJCE4U7EFlBmFkHjuhaENA4HAUFlFi0n9xlfURQggh107OYnlW1HuPLnUQTH4Uqh2E0UVsT0RrQ4DHEemiwuT+9VXWmBzw9PNdFnCdZsg6lxIQ/FPYHJlXOwiJxg7CxUki/amrrI8QQgi5dhAMPi0OuDeVgKDsQkga/Si4lICwEVzA9kQUu9PKk89HYQkVJv9bV1Yf0JY2eP1CtxVchwnJPletg7AZXMB26E1HDA9PmPTvXVV9hBBCyLUE4ClxwFNo7CDIRh8KrjGsDk5jY3QB26EodqcSOJjjcLQoosJkr+wDGO3tT6UN3km+2wK2w4RknxtLjlGs+aexqT5H3XjEcByWHpYTmV+7qvoIIYSQawlAm6j3iNWAkOixQjYoAWFlcBrrjR2EWRZHYfFKW/gIBp9OD3jCfJflgu0wIdXvwZIjiLXBabWDEMWeWtvhPI+jiPTgjMv+8lXVRwghhFxb4oA7zGkdtSFFSe+tBYQN9UN4d1rtIIRFnLCZ/3ZVtTHtzDPJAY/Id5nBdpiQGvAoHYTBaWwFF7A9HqkFBHUV9OsVrvDPrqo+Qggh5NqSDN6JakBI9Fgh6T3IO0cvB4SpOA7UTYWn8XTHVdW2Oz//tlSfe4nvstQCwrJzrNZB2FGPPxpmEF4745d//KrqI4QQQq4tQe8dqg4pJnqskAY8KDhHUfRPYX1kvjaDUFtlHM/orqq2otf7TlnnXOU6zeA6TMjofUpA8KtHDOMR7DUEhOOI/MpJovCxq6qPEEIIubZEvcfMah21WwzSgFvpIPinsBFcwNZ4BDtTcSUgLAgoMxnbVdW25HK9N6lz7XGdplpAKKoBYSu4+OZrjhHpbyti7juuqj5CCCHkumoTBly62gxCrw1ivxIQqh2ErfGI8uSzGhBOEmnPVRW36Qm9T9LYj7kOE/haQBjHemAGW6OL2GkYUlRmEKSXrvoxKUIIIeRako3+25yuPoMg9ruRd1QDwlw9IMyySkBg0sGrqq3gmPo2SWN/gVcDQtboR9E1jvXBywHhYJbD4TyPUix5VmFy33xV9RFCCCHXlmj0/xWnc9ZuMQh9LuQcQRR9U1gbnsPmeLi+a2BBQDmRmryKunDrVlvW5Plxqcf+Mn/HCKHDhNzfGRCUa47lWLL8Ymr33VdRHyGEEHKtiXrXH3N9ztqipHpAmMT6iBIQdqbitQebSvFUuNk14dattvSA9xOS1nEkdJggdpiR7LGhYApgxR3CRmAWW8EF7E7EsD/N4GCWxdGCgEoi/fL99Oqvoh1PNbtGQggh5FqT9O4/qAWEHiv4PidythElIAxXjxhitSOGUkzmm11T2hT4RNYcqKy4Q9gaWcDueAR7EzHsT8axPxnHwTSDozkOxwsCShEZp/E0KmwOZ0IBd5PF+/dza/+i2TUSQggh15pk8P47XucEq1EDgs6J7KWAEMZOw5PP5Xgq1cx6cpbxb81Zh/ZW/VPYHJ7H9lgYuxMxHMwwyrbERRHlaBIn8TROmQxO2SwqXB4VPo8zoYAzcQl3k8Xtz+fW6TYDIYQQ8g8lGfy/UQ0IiR4rOK2jFhDWhuewOXY5IJRiySLa25vSwkcw+HRywG3KWYex6p3AxtAstkcXsRuKYr+6zXFBwHFEQimWxEkijRMmg1Muhwqfr32diQXcSxX7EMTTzaiTEEIIufZkk/9X+T61g9BrBae1I2sbxrJ3Qg0Ii5cCwnE0udmsM/5lT/CDyT73l7JGP4puZRhxc2QeO+MR7E7GarMGx2ERpaiMcjyFk0RGCQlsFqdcTvni8ziTll64n9783mbUSQghhFx7st7/s0KfqzaDwGkdyFqHGgLC5Q7CcUTeB5oTENLmwd8Re21I9bmVZ529k9gIzGI7qNxY2J9SrzQuCDgOS7WQUK52Eths7asi5C/uyiv/dzPqJIQQQq49Se/5Sb7fdcFWA4LGjqx1GEXvJNaGZrE5tojtiagaEDiUo8ljrK8/97jrANCW0nucXLcFosaOnCmAomsca42zCJPqrYU5DocLPI7CIo6jMkqxFEoNQeGEyeCEzaIiFsabFWYIIYSQay1p8X2c73NeVFctcxo7MpYAlr0TWA3MYHNUDQjT1SMG+S4OD9/+uOtg2tufSendS0KPFZz6tHPBNoIVzwTWAw1HDRMxZfeButnxaFE5bihFk/WgUA0LXHapLMvPP+5aCSGEkGsvafD+gNDnfJjosYJtCAhF74TSQRhdxHZ1IdEch1JEfvEes/6ux13HYbvr7Sm9d6MaEMQeGzIGH5Ydo1j1TirrldUHmnYmYtifYepvMCyKOAqLOIpIOI7KalchiTKT3jlkmMceZgghhJBrL2sc/26x3/U601sNCDZkzAEseyawpnYQdibqAeEoLL38ErP03sddB4LBp5N6T1HotqK6WlnWOJAzDWLZOYZV32RtQdL2eLhW094MU3sn4mBBwOGCgMNFAUdhCaVEKn/IPP5uByGEEHLtyQbfR6R+92tsjxVMtwVcjxoQ3CGsBWYvBYRDpYPwxt306u8jGHysVwgBtKUGPAGh2wq+0wzujhFchwmyzomcOYBl5xhWvJNYD8xiM7iArbGw+hS1suWxGhT25zjsz3PKcUgsOUYzCIQQQsjXSDYFPyjrvVu81gG2xwq22wpeDQhFdwirg9PYCi4oNwimGRzOcTiJpXAuLl2cJ1cGkMs9+zjrSRu8/1HqtT0UqgHhjhFcpxmyzomsKYAlNSSsDc5gY3hOOf4Yj2B7IoqdyTh2pxLYna6FhYtyNPn/PM76CCGEkGtPMA5+o6z3rnC9NiTuGMF2msF2msF3W5A1DSo3CNSAsD8Zx9E8j9NEGhUuhzM+j3Nx6eJuauWvHufSpIxz6ENSn+vzQrcFXIcJ3B0j2DtGsJ0mSFonsqZBFByjKHpCWPVPYX1oFhsj89gcXcTWeBhboWpYiGF/ln3xKJz+8OOqjRBCCLn22tvbn5LNgxahzwle50DGEsCqfwqb6hDg3lQCh7McjpQXEnGaqK41zqHSsLXwXFx6/YXc+k88rrrQ3v5USu/VShr7Bd9pBtdpAtuhfnWaIWjsSBl8yNtGsOQaR9E3idXBaawNzWJ9ZA4bwQVsji4qD0xNJ/rBMM88rtoIIYSQa2/ZPfaDot77hmzw1t5c2ByrzxpUbwcchxtWGicaFhGpGwsrfB7n0nIy9xiPGlK2wAeSfe5todsKrtMMrtOsBgQT2C4z+B4rpD4X0kY/crYRFFxjWPaEamFhNTCD9eG5w43x+Hc+rpoIIYSQGyFlGbQI/a76SuWhWWwEF7A1HqkN/R3M8zhcFHEcURYRleNplBPpS9sKT5Xjhgd3U6s//DjryxiG/qmkc1X4biv4LjO4LnMtLHBdFnDdFgi9dkh9LqQMPmQtQ8jZgyg4R7HkHr+75Jv6eQBtj7MmQggh5Fo7dDFvl03+z3M6B5ImP/KuMaz4p2pdhOrOA+V5Z762X6AUTdYWEJXV9w+q640rwtJfPM4acetWmzTg/ESyz3Uo9FiVgKB+8V0WcF0W8N0W8D02JShoHZD73Eib/PcLjuFfonBACCGEfI1StqkPSHrvQ1Zrh9JFGMGSJ4TVwIzSRai+vTCdwF7DIqJjNSSUYkl1W2G69uspl08+7hceAbTlLIGfknvtrwpdFuXqY6cZvPpV/Wex146M0Y8VzwR2JmOF3fndtz3OOgghhJAbIWsa/qgw4AarsYPV2JE0+pF3jinPO1ePGtSQsNswj1BdPnQcqW8qPFYDwwmbrTzOOYSqnCXw/Vyn+RX2tgHsZ/VgPjsA5nN6cB0mpA0+rPqnla2Ks6yycjmeyu3uUkAghBBCvmZJve/jwoAbrNYOVmMDr3MibRlCwTWOFf8U1oZn1WuDykrj3SllW2H17YPDRQGHiyKOwhKOIhKOwhJO4unzx70T4datW7dy/cP/iO+2vMzeMYL5nB7sHSNSAx6s+KewPRbG3lRDgFkQUIolV5qxBpoQQgi59mS77yOiwQtO6wCrsYPptULodyFjHUbBPY4V/zRWh2axMaoMLW5P1LcV7s+y9aDQ8FWOJ3cBPNbNirdu3bqVMTg/JPRYX2LvGMHeNiCt92LFO4mN4Tn1dcd4bVbicFFEOZE6qMzk3vG46yCEEEKuvbQn9L6k0feQ01UDgg1Mrw1iv7shJEypuwXmsamuNN6ZjNXXGs+ytbXGB/McSpHkUDMGA1P9/m8XNfYKe8cIvsuCnDmAFc+EEhDUGxf1IxAR5Vj6uBnvRBBCCCHXHoLBp5OWwCanc4LV2sFolIDAauwQBzxKSHApMwmrgRmsDasLiMbqmwp3p+LYmYrXZhSOwslfakatUrfp/aLWccJ2mMB1qwHBqwSE6pzEI0cMp2V5/ZuaUQshhBBy7aWsQ78t9LvBai93EZheG4R+F1LmQeQdo1jyhLAyqBw5XAoKDWuN96YTL22GYu9rRp3CHeM3ihr7MdthUjoIpgCKnhA2htQjhoYOwtGiiFIs+cK5VHx/M2ohhBBCrr2Uf/7dktF/Wu0isJpqQLCC6VUGF5NGP7J2ZVNh0TuhrDQOzGBtWDl62AgqbyDsTEX/S7PqjFos7xF77XucGhCyJuWIYX1o9tIMQvWWxXEsefe+WPi2ZtVDCCGEXHtZx/AviQbPg8uzCNZaJ4HT2CEOuJEyB5Sg4B7HkrrSeMU/pRw/DM0Ui97wO5tVY84y8w6x177GdZrAdZqRMQ2i6A5hfWgWW490EA4XRRxH5ZfOmOR3NaseQggh5NoD8FTaMvwX4oD7YfVGA9vb0EnosYLttYHTOiD1u5E0+pCxBJC1DSNvD2LJOXpS9E19XzNrLAeDz4tae04JCCZkjGpACKgBYTJWfdpZ6SBEk1+4K+X+UTNrIoQQQq69YDD4dNoa+JQ44Pkyr3OCU48b2F4bmB4ruF4bWPVXXmOHoHUoDyWZ/K8WHKGPNbu++f7+t0k6Z7IWENQOwlpgpr7xsbqjQQkIXzpnsh9tdl2EEELIjSAbfL8oDrgfCDoneI1dCQSNXz02iD02yDoniq5xHMwwX7rHZL6l2XWttwefEzX2BKc+/Zwx+lF0j6tHDIv1GYQ5rnrE8GqFz3282XURQgghN0LGEPwWoc/1ZabbgkSXGUynCYkOIxJ3jGA6zZDV7YW7UwnlxkBYev0sufRdza6LYZhnZJ1jgetSnnxOG/xYdo0rRwyji/UOQnVIMSp/+YRN/2Sz6yKEEEJuhJTf/26h3/US021BvNOEeIcRiQ4jxD4Xir5J9Rno+lrj47D0oBJv/k/qAJ4SdI4ZJSAYkTb4sOwaw1pgRrlBMRHF/oyytOlwQcBRVHr9hEt/otl1EUIIITfCejD4nDDgPmV6rah2EZIGX+0Z6O3Q5a2Fx2HpopzI/Eyz6wLQxmvsY3yXGewdI9J63+UOwkQMe9PKkOLBgoDjiPzgjC00ZWkTIYQQcuMgGHxa1Hu2GXU4ke9zIu8YRdE3pbzuGHrzWuMKk/vXTa+rvf0pUedwcbWA4MWSawxrg9NqB6ExIPA4ikgPTrnsv2p2XYQQQsiNAKBNNHgzjY835R2jKPqnsDEyr7zsOBXH3ixTDwjx9P/V9Lra258SNA5nLSAMeLHkHMN6YKbWQdidTtQCwnFEfliRCr/e7LoIIYSQG0M0eCOsxg6mxwqhz4WcI4iibxJrw3NKQJiMYa/h3YNyLP1fm10TgLak3t3Dd1uUp577PVh2jCodhOACdkJR7KnvQRwuCDgKyw9PuOzvNLsuQggh5MaQTb5RTutQjhh0TuTsI7WAsDkWxs5kvH5jYEFAOZ66cxV1pQY8f8N1WcCoAWHJOVYPCBPR+hFD9UVHJv1HV1EXIYQQciPIRr+J1TrUtxgcyNqGUfRNYn14Dlvj9aVE1RsDpVjKdRV1JQc8n+a7lYCQ7HdjyTGKVb8SELarHYTqLYaIdHHCZP/4KuoihBBCboSUJXCH0zrA9FrBaR3I2Iax7G3oIEzELnUQSrFkqNk14datNlHj+DO+2wq2ox4Q1vzT2BiZx/Z4pD6DoOxnuDhh0n/R7LoIIYSQGyNlHfrP1YDAauzIWIex7J3A6tAsNscW39xBiCYZAG3NrkvUOP9E6LFdsHeMkPvcWLIHseqfqs0gNA4pHoZFnCQyf9PsmgghhJAbQ7IO/janc4LptYHV2JCxDmHZO4G1oVlsjC5iWz3vP1B3DpQi0jLDMM80u66kzvW7Qq/tgu0wQta5ULAHseJTAkKtg9Bw/bLMZjubXRMhhBByY8imwX/J97suqs89py0BLHlCWBuaxeboIrYbflpXOgjyMdbXn2t2XUmN/f9UAoIJks6JgtpBqB0xVPczLCgB4SSRMjS7JkIIIeTGyFiDP8L3ux5UA0LKPIiCexyr6lrj7YkodhtuDJQiyRf2o9H3NLuuZJ/jN/le2wO2wwhJqwYE3xQ2awFB6SDsqw82leIp51UcfRBCCCE3QtoW/LDY736N1diQ6LEiZaoHhI3gghoQ6gOBxxH5lTO+8D80vS6951f5Husb7B0jJK2j1kFYH56rdRDqDzaJKMVTQxQQCCGEkMek6PW+Xxhwf4lRA4Js9KHgGsPK4DQ2RpUrhY0PNh1FpNcrUuE7m11XUuv8OaHH+jrbYYSkcSBvG8Gqbwob1YAw2bgCWkApkZqkgEAIIYQ8JjnLzDuEAc9LrEZ5j0E2KAFhdXBaeY+h+tN6NSCExTfOEpkfbHZdXI/9nwm91q+wHUaIGjvythGs+NQV0GNh7KoLnKqzEeV4ag7B4NPNrosQQgi5EdaDweckg+9UOWKwQNJ7kHeNoeifwrr6HkNjQDhelB6exNI/2ey6+M9ZPi50W19hO0xKQLAOY8U3ifWh2UsBoXaLIZ6KI5d7ttl1EUIIITeGZPDusho7Ej1WJSA4Ry8FhJ3GDsKiiJNo+leaXlOf96Nir+0VtsMIodemBATvJDaG57DVsJ+hdsQQT/FXcbuCEEIIuREAtElGX4HRKLcYxAG3EhCq7zGM199jUG4MCCjFUv+m2XWljIEfFnrtL7MdJgg9NuSswyh6J2odhEcXOB1H5SzWQQGBEEIIeVySJh/Lamy1J5+z9hEsN77HMHX5vP8oJv9hs2vKap3fLfTYXmQ7TeB7rMhZhi4HhIlH34hIFiu53DuaXRchhBByY8jmwQlWqxwx8Donso+86Lj9yE/rJ/HMXza9JpPng5LGcZfrNEPosSJrDmDFO4G1wAy2RhcvDSkeLAg4jiZXKSAQQgghj1HKMujltHawGhs4rQNZ24iybnm4/h7DI9sUB5pdU7Hf/+1ir+0u12UG321B1jyEouctjhhmWSUgxJI797e2vqHZdRFCCCE3RtI82MvpHn3RUXmPYXNsEdsTMexNN7TzI8khtLc/1cya0nrP+ySts6QEBPWIwR3CekBZAd04g3CwwOM4miydpNPva2ZNhBBCyI0imX2fUgKC8mBT2lJ/sKm+bllZlqQMBCYTAJoaEFaMg98o61yHXJcZfJcFWXMARU9I6SCMLmKnoSYlIMhn51Lx/c2siRBCCLlRZIv/3/J9zgslINiRtgxhyRNS1i2PLmKruk2x/h7Dcs7S3J0DosPxDZLGcch1Xg4Ia4EZbI4uYGciir0Zpr6fIZo8eyG+/MFm1kQIIYTcKLLZ/7N8n/Nh44NN9YCwgO3Q5eeVjyPyAXZ339bUmjTB56Ve+wbXaQbXZUbGOIhlt9JB2BxdxM5E7PIbEVHpfkXMfUczayKEEEJulKx96J8I/c43qlcdk6ZBLFUfbBqtP9hU+2k9It2/x6y/q5k1lYPB50WtPad0EMzImgax7B5XOgjBhctHDEpo+fxJLP29zayJEEIIuVGSrqHv4vvdX6kHBD8K7nHlwabgArZCUexM1R9HOg5LXzyJNXcgcLd//m2S1iFznWZwnWZkjH4lIAwqAWE7FMVeQwfhKCJ9scIlf6CZNRFCCCE3ypJr4r2i3vNK9YghafQjr77ouB5cwFYogp3q64lzHI7D4oMXmeK3N7OmnMXyrKh1iGxjQHBdDgiNr0weR6QvnzPZjzazJkIIIeRGyVlm3iHqvS8pAUF50THvGsPKo+8xzLDYn+NwtCg+LDP5jzSzJqadeUbuc3Ncp/mC7zQjY/BhyTXWEBAiDcceHA7D0qsVJv1jzayJEEIIuVEQDD4tGrxnjHrEIOm9KFx60bG+TVF9sOmiFJP+x6bWBLTJOuc812UB12lCSu9TOwjTygxCKIpd9dhjf47DUVh+rcxk/3kzayKEEEJulGAw+LRk8B6yWjuYXivEATdyjiCKvimsj8xhazyC7ckYdmcYHCjLki4qXOafNbMmAG3JPneI6zKrAcGLZdcYVv3T2Gh8hlpdlnQUFt4oRVK/0MyaCCGEkBsFQJtk8K4yGjuYXhuEfpcaEJQHmzYbVhurAQHlROrXm12XpHP6+C4LuA4TkgMeLLvGawFhWx2crAcE8Y1zvvCzza6JEEIIuTEAtMlGn6h0EGwQ+lxveo9heyKG3cZ1y9HUf2hqTe3tTyX7nLZqQEgNeLDsVDoImyPz2G7oIBzMczhcFB+e8dnfaGZNhBBCyI0jm/0L1YDA65zI2YOX3mOoLSZS1y2Xo6k/a3ZNks7Zx3WZwXaYkOx3o+AYxap/6i2PGA7D4sUpk/03za6JEEIIuVFS1kCA1SrvMXC6+ouOq0Oz2Gh8j6G6uXBR0jW7Jknn6uC7LGA7lYCwdCkghC8dMRwuChflePJ3m10TIYQQcqOkrcOdnM6pBAStHWnrEJY9E1gNzNQfbGrYO1CKJoebXZPc5/obvssCpsMIWe0grPjUgDAWxu7kowEh/Wv/+yUAABUsSURBVEfNrokQQgi5UdKW4T9SAoJVfbAp8Mh7DPWAcDjPoxSRw+1NfvJZ6nf9Kd9tuWA7jJD7lA7Cim9SGVIcjyiDk9W5iEXx4iSR/lQz6yGEEEJunIx15Df5ftcF02sF02u9HBDUdcu7DeuWS1F5BQzzTDNrkvtdfyz2WB+yd5SAULAHlQ7C8JxyxNDQQThYEFCKJ/+ymfUQQgghN07OEfwpJSDYwGqUFx0L7nGsqAGhdq2w/jjS4e58c190zBj8vyv0WB+yHUbIOpcaECaVgDCmBITqXMThonhRjqfuNLMeQggh5MbJekMfFfrdbzC9NiR6rEga/Si4qgHhzeuWjyPSfcjy882sKWX0/5YSEEyQdU7kbSNYUXczVANC4xFDKZbsbWY9hBBCyI2T841/q9Dvfo3R1ANC3ll9sOlyQDiY43AUll7dj+be08yaxAHnJ4Ue2xtshwmS1om8bRgr3kmsD1UDQv3q5cECj1IipQfQ1syaCCGEkBtlyzH1DcKA58vVgCAbfcg7L7/HUN2muD/L4nBRfH0vLL2/mTUlBzy/JPTavqIEBAfythEUq7sZRuu7GerHHkk3gKYOThJCCCE3Ss6Se1Y0eF6uBgTJ4EXeOVoLCJsNDzbVrhVGuO9pZk1pk/cTQo/tNbbDBEnjQN5a7SBcDgi1wcl4KsA0eXCSEEIIuVHUFx3vsprqg00e5BwNAWEsrC5LYmpXHc+Z7EebWZPY5/0pvseqdBA0duStwyh6QrWAUF3eVOsgxOQZAE83syZCCCHkRlEfbCrVAkK/8qLjsm8Sa+qDTdsTUWUoUFm3fHESS/9kM2uSus0/KfTYXmU7TBB7qwFh4u8MCOVYapaOGAghhJDHTDb5N1mNHazGBqHfrbzHUAsI1Qeb6suSjmPizzeznqzR931Cr+3LSkCwIW8ZxopnAmvV7Y6P7maIJaNYX3+umTURQgghN45s8mdYTf3Bpqy9+qJjNSCoP7HPMEpAiKR+q5n1CL3W7xV6bS+zHSaIPTbkLMNYdofUgLCA7VDk0gzCcVQSKjO5dzSzJkIIIeTGSVoGY9UXHTmdE5mGB5tqP7FXW/pzHMpR+b80sx5uwPthUet4odpByJmHUKx2EIL1gLA3q+5miMqZSo4CAiGEEPJYpawBD6dzgNXYwGkdyFiH1YCgvMewFYpgd0rpIBzM8zgKi91Nraff/+2SxnGX7TRB6LEiaw6g6A5hPTCrBoTopeVNpai8eh4Ov7OZNRFCCCE3TtI82MHpHEj8f+3dW2xjeX0H8B26F1hYUVjRqqtWAqkVL1AB+0jhgVKpEoXSqq2qiqpCQr1Q+lIkVAkh8VCxm5sT5+L7/R7HuTuxkzg5Fx+fYzvOdcbJTK5OnJmdDmUr0RV7mZ18+3DOcZzZtx2froS/H8nKo3/JS776n//5fY3Cpqo3pfcxJM0+huXWIwZ970ApYuViovJQ4rcVm+9+e0AwHzGY658PjfXP+nZH9eB4ZcXS5U1ERERdp+xKfF82Kp/1Rsfk9cKmyWX9H7KxC+FsuVSAhY2Opb7Ibym2wJnY44Lc50HNlcB2aBL19kcMZkDIimgsq6cXhcqLVs1DRETUlSruxLdle/BybcADYcCLijuBzdAkbsbnUDcCQnuD4tlS6WY6nbZs78CxO/3xks3fEHuckPvcWHfqAaH9DoI5z4l+gtA8XJQ/ZdU8REREXUnzjX/ZbHQUBjwoO41Gx/aAYJ4gZCU0lkpntVrtGavm2YlEPqoM+I6kHifkXjeqzji2g3pgufaIwQgsjSXltQuh/LtWzUNERNSVysH4HxTtwUeCzQthwAvNGcNmMIPdtnXLj50g/KKZtq7RUenxv1Aa9N2UelyQe91Yd8axHczoAWF88T0nGo2l0v27UvX3rJqHiIioK+2Hp14sjoQfiu2NjkZAuDW+cFXYZOweOFsqvflAED5m1Tw1t/sZZShQk3pckHtcWHfEsB3I4GasPSC09UMsKb+4L+18xqp5iIiIutK9+drzxZHQO+YjBnXsqtHRXLfcXpDUyCtvWnkpsOZ2P1MaCmpSjxNSjxPVsZj+iCE2awQE/UTj8Kph8pdNYeP3rZqHiIioK50GhQ8rY+E39UcMZqNjBjvRGdRTC9gzGhSP5gQczQto5IrvNGT5d6yaR/jpT59Wh/ySeYJQHYtiK5BpBYT9jH6i0QosOeVXTan2eavmISIi6kqCIDytjEX/RzTuIJRGwnrls9nHMHF93fLJooy7OeWzVs0D4IZqD6xIPS5IrzpRGY1iyz9x7QThcGa1tU3xNK+8eSFUv2DVPERERF2r5Ig8EAd9EPrNyue0HhBa65avL0tqrGpfsmoWPSD4c1KPC1KPC5XRSCsg1FMLuN1+grAg4TSvvN0olCxtmCQiIupKmiN2YhY2FYdDemHTtYBwvY/hYrXyNatmAfChks2fkXvdkF51ojxiBIRoW0Aw7kQYJwjvnBcqX7FqHiIioq5Vdsc3xEG98lm2B7HeVti0N3F994C+bln9ayvnUe3hiNxrPGIYCbcCwt744vUThKyI05z87plYtrSCmoiIqCtV3Mmc2egoDwWw7k1dBQSjj+GgbTnRxYr2L1bNAuCGZg8E5F43xFccKA+HselLY9e4NPmeE4Rc8dHZavWbVs1DRETUtareZEgc9BuVz3qj4+N9DGZAOFmQcJorvmLlPKo9NCr3uiG+6kB5RA8IN6Mz2Hv80mRWxMli8dHFWvVvrJyHiIioK617U/8pDfkhmI2OHr2w6T3rlueMgJBXglY2Oqr2gM28g6ANh7DhHcfN6Azq5p2I1lsVekA4Wy7/vVWzEBERda2KJ/nPUlujY9WdxFZoEruJOdQf316YFXG2rBasDAgle+jHcp/+iEEbCmLDO47dyFVAOJg2K58FnOSKl81V7XtWzUJERNS1qq7EN6UhPwSbHhDKrrgeEOLXA8Lh1brlLfwUllU+q/bgf8h9nkvpFQc0+/WAcNs8QZhtvXZ52Vip/MCqWYiIiLrWRjjzh7LdPEHw6o2OwclWYVP7mwNH8wLOlpRzKyufFVvgB3Kf+9I8Qdj0jmMnPN0KCK0TBONOxHmh/EOrZiEiIupaFW/6M/JwEOa6Zc0Zx2ZQ72Oop9oLmwSzj+G/IeBpq+YpDwW/X+xzPxJfcUAbDGDDk8JueBr1RBb7Ezl9cdPsKo7nRZwsypcXq5UfW/nIg4iIqCvtxuOfkO2Bq4DguCpsqj9W2HQ0L6CRV99uqtZVPmv2wD8U+zwPZSMgbLYHhLS+l+FgRr80ebwg4Wy51MOAQERE1GGKf/aF4khIDwj9HqhmYVNsFreSWWP3gP7cXy9IKuL+zs5HrZpH7vH+VbHP/VB6xQHV5m87QZh/LCCs4WRBwtlKaRiw7k4EERFRV1ocHn5OGQ2jVfk8GrkqbEpmsT+xhDtTyziaW8OxsU2xmVc/adU8ypD/W8U+10P5VSdUm18/QQhNtQLCwdQKDmdW9VmyEs6XVZ+VdyKIiIi6EoDfUMbCb+rbFM3CponHCpuu3hw4XZRxrigvWTVPeSj4J3Kv+y3pZw6UBnzYcCexYwaE8UXcMd6qOJ4zAsKKOm7lnQgiIqKupTmjvzQrn4vDQdR86Wt9DLeNi4HmmwPNFfXzVsyBp566UbEF/67Y63oo/2wMWr8PG64kdoKTqMfnsT+ew53JZRzNrOJ4TsCpXh5150F5+494D4GIiKjDSo7YudnoqAwHUfMZhU2JeT0gTF4PCBZVLN9Yd0S/pQx475X6vajaQ6iNRbHrTaMensF+cgGHmSUcz6ziNCvhPK/golDGXXEd94obF/fVnT9mSCAiIuogzR3faVU+24N65XN4+nofg7EL4WRBwumS+u1Oz1B2xF+uuZPnu+Ep7CcXcHsij8OpFRzNrOI0K6KxKOMsr+B8WUWzoKG5WsHFWhUXa1XcFdfxWnGz8WB9+4udnouIiKhrqY5YVg8IHsiD/lYfw83E3HsCwnFWxFlB/adOfn89LXxsw53I7YQmL2/FZrGfWsAdMyDMruLksYBwvqKiWSjjYq2Ci7UKmmsVXAhV3FM2lnB6+uFOzkZERNS1NGfcKw76IA54Idl8eqNjyGx0XGwtSzIDQnO59Gonv3/dEf1WzRF/azswgZuRGewlsridNu8bFFr3DU5zRTSWSkZI0NAslHG+qn+aaxU0xfW3f17a+kYnZyMiIupaZXfyJ1J7QDAKm27G57D32Lrl43kRZ8ulSKe++3B4+LmKI5IuD4ew6R3XX2mMz2E/tYg7mSUcTuunCMdZ0aybRmOphLNlFWcrGs5WNJwXND0krJbxmlzLdmo2IiKirlZ2xb4jD/khDngg2ryouBLYCrYVNmWWcGd6pbUL4XxJzXXqu5WR5EvqoL9RsvlQcyWwE8i0ThHMtxYOpgv6d2dFnC7KOM0X0cgrelBYUds+Gi7Wqg+aat2yPQ1ERERdo+ob/2orIAx4UTH6GHbNPgZjm+KReYKQL2126rvXneEvlmz+N+U+DyojYb2cKTSFW7FZ7CUXWo8a2kNC6yTBCAmnSwoayyX9s6Jdngvrn+vUfERERF1r3Rn5nDTohzjghdjvQdkZw2Ygg93oLPbGF7E/kdf/Qc+u4XhOwHm+dBe12jOd+O6KM/I1xeZ7KPe4UBrwYd0Rw5Yvjd3wNG7F51A33mi4Ko1aw9G8qAeFRVn/5Io4ycmtxw/3pOpXOzEbERFRV9sKTn9atvkeCX1uPSA4YtgMTGA3OtP6B31gvlEwL+I8r+C+srkC4IlXHK874l9XbP635R4Xij0uaENB1FwJbPknsBuZwa34vB5SWicJet3z4ZyAo3m9sOlkQcKx8TnJFXG+yoBARET0RBS//wVlJPSaPOiH1O+B2OtCeTSKTV9avwuQzOLORB4Hk8s4mRNwliviwthBcE/e3Mbh4XNP8v3aaPRL6qD/DbnXDanHiWKfB9pwCDV3EtvByVZIqKcWsJ/O6fchplb0S5OzazicMz7zRmDIyQ/Pl0p8xEBERPR+qen0R8rueF22+aAY/5Q3fWnsxef0Z/8TSziZF9BYLOJ8qYSLQhnNgv62wMVqBc3VCl5TNhefZIPhpj/5kmoPnukBwaWHhH4PyiNh1DwpbAcz2IlM42Z8DreSWeylc8Z2xyXcntLvJhzMrOLOTAEHs6s4yor/e7xS+3gn/05ERERdpeyO/0QZi1xuR6ZRTy1gL72IO1PLODTLkNouA7bvHmiultFcrehBYa366EFp+7vvd4Z6Ov2sNhKOF/u9kHpcEHucEHuckNtCwmYgg+3wFHajs7iZmMet1EIrKOxn8tg3wsLtqWUczQsrnfwbERERdZWt4PRvqo7o6zWj2rm1FCmzhINp/fjefK2wkVdwtlTC+YqmfwoazgtlnBsnCnfF9eYDof6x9zMHnsINdSz6p8pg4A25zw2p1wXRCApSvwfqcAhVVwIb/glshSaxHZnGbnyuFRTq4wuojy9iL72I/Uz+0cHs2l92+m9FRETUNcru5L+WRiOXVW8KW+EpfedBagH7mTzuTC0bbwzopwgn5u4BY+/A+YrW+tksaGgWyu/+V3HjL97vLEIw+GFtJDRbtPkg9bkh9rog9Log9roh9XtQHApAc8RQ9aZQ809g0wgKO7FZ7MRm9cCQzF7up3Nrp0GBq5aJiIjeL80VL8j2IMoufedB+ynCvrEY6XB2Fcfz4lVIyBXRWFJwZjxuOFtWW5+7QsX3JPOs+9OfVYdDh7LNp1+W7HND6HPrP/s9kGw+KMNBaM4Yqp4kar40NgJ6WNgMT2E7OnNRTy98oVN/HyIioq4DQXhadUab0pAfyki41d64G5vFrVS21b+gh4Q1/e2ArP464UnOPE3QlxQ18or+CGJF3XrSumXNEf+6OhI6Lg76Idl8EPs9V58Br74KetAH2R6AMhqG6ohCc8VR8abub4Umv8G6ZyIioidQc88/X3JEX5cG/ZCG/Ci74qj5063n+7dSC8abAsutk4SjeUFfUGTsHWgtKDJOFs6WS8eHi4tP9MojgBtlb/plbSxaUIaD78qDfkiDPog2/WPOKw35IdsDkEdC72ruWGnDO/EVhgMiIqInpPj9L5QcsdelIT8EmxfF4SAqrgQ2ApmrkJDMtl4nvDN9tXfgaF7AUVbfZNj6LEho5JVD1OvPdmK+ui/9ybI7/o/qWLRaHA29VRwJvSsPB1EcDl0qI6FHymj4VyVHZFvzJP5tM5D+VCe+k4iIqOvV0+lnNWesKQ0FINp8EGxelEbDqHqS2AxmsB2duQoJ5p2E1s6BgrHJcA1Hc4L+c17A6aK8CeBDnZxTTac/suFNv1z2pf627E78UHPGflR2xL6j+WJfLjrin+CpARERUQcBuKG6YyXZHoRo82HNaHEsjUZQ9aT0kGC+TpicR318AfsTeexP5FuPHQ5mCvpyImNB0UlOGrd6ZgYCIiIii1V84z9SRsOX5mOGtX4PRJsPyohxkhDIYCs8pb9GmJjHrWRW3zdgLifK6GHBeATx6HBB/vMP+nciIiKiJ1QJT71YHA2/IQ359ccMA16s9bshDHigjIRQcSWw7ksbOwdmsBPTtxheLShaxF46h3o6h9tTy417tdrzH/TvRERERB1Q9iSGZHsQ7SHB/Mj2INSxKKqeFGr+9LXlRLuxWewm9McPN1PZy/1M/gcf9O9CREREHVJP15/VXPFT2R6ANPh4SNDvJSgjIX2LoSeJdV8aG4EMNkOT2ApPYTsyje34bPWD/j2IiIiow7Rg8tOqM/a6PHx1ktAKCjYvRJsX4qAPsj2I0lgEqiOGsjuBiieJdX9q/+eK8sIH/TsQERGRBXbj2U9ozviOMhK+bH/kIA7qn/YFRZI9gOJo+N2SIyorPX6GAyIiol9nqNWeqXhS/64646fKaPihPBKCbA9Asgf0rYXDQSij4XdKjsjtsjf1XUEQnv6gZyYiIqL/JzuRyEcrgdSfVTyJAc0Vn1NdsULZnZysepI/03zjX2YwICIioqfw1FNcTkRERERERERERERERERERERERERERERERERERERERERERERERERERERERERERERERERERERERERERERERERERERERERERERERERERERERERERERERERERERERERERERERERERERERERERERERERERERERERERERERERERERERERERERERERERERERERERERERERERERERERERERERERERL9O/g8TaYXd4Er4dQAAAABJRU5ErkJggg==;" vertex="1" parent="1">
          <mxGeometry x="10" y="251.57" width="136.86" height="136.86" as="geometry" />
        </mxCell>
        <mxCell id="l9aSFqAme1yQ4oTrggSr-5" value="Dropout 0.1" style="rounded=0;whiteSpace=wrap;html=1;" vertex="1" parent="1">
          <mxGeometry x="296" y="353" width="80" height="30" as="geometry" />
        </mxCell>
      </root>
    </mxGraphModel>
  </diagram>
</mxfile>
